<svg xmlns="http://www.w3.org/2000/svg" xmlns:xlink="http://www.w3.org/1999/xlink" width="90" height="90" viewBox="0 0 90 90"><defs><clipPath id="a"><rect width="90" height="90" fill="none"/></clipPath></defs><g clip-path="url(#a)"><path d="M101.835,133.488a.937.937,0,0,0-.871.816.871.871,0,0,0,.846.828.832.832,0,0,0,.86-.8.921.921,0,0,0-.835-.84m0,0a.937.937,0,0,0-.871.816.871.871,0,0,0,.846.828.832.832,0,0,0,.86-.8.921.921,0,0,0-.835-.84m0,0a.937.937,0,0,0-.871.816.871.871,0,0,0,.846.828.832.832,0,0,0,.86-.8.921.921,0,0,0-.835-.84m0,0a.937.937,0,0,0-.871.816.871.871,0,0,0,.846.828.832.832,0,0,0,.86-.8.921.921,0,0,0-.835-.84m0,0a.937.937,0,0,0-.871.816.871.871,0,0,0,.846.828.832.832,0,0,0,.86-.8.921.921,0,0,0-.835-.84m0,0a.937.937,0,0,0-.871.816.871.871,0,0,0,.846.828.832.832,0,0,0,.86-.8.921.921,0,0,0-.835-.84m0,0a.937.937,0,0,0-.871.816.871.871,0,0,0,.846.828.832.832,0,0,0,.86-.8.921.921,0,0,0-.835-.84m0,0a.937.937,0,0,0-.871.816.871.871,0,0,0,.846.828.832.832,0,0,0,.86-.8.921.921,0,0,0-.835-.84m0,0a.937.937,0,0,0-.871.816.871.871,0,0,0,.846.828.832.832,0,0,0,.86-.8.921.921,0,0,0-.835-.84m0,0a.937.937,0,0,0-.871.816.871.871,0,0,0,.846.828.832.832,0,0,0,.86-.8.921.921,0,0,0-.835-.84m0,0a.937.937,0,0,0-.871.816.871.871,0,0,0,.846.828.832.832,0,0,0,.86-.8.921.921,0,0,0-.835-.84m0,0a.937.937,0,0,0-.871.816.871.871,0,0,0,.846.828.832.832,0,0,0,.86-.8.921.921,0,0,0-.835-.84m0,0a.937.937,0,0,0-.871.816.871.871,0,0,0,.846.828.832.832,0,0,0,.86-.8.921.921,0,0,0-.835-.84m0,0a.937.937,0,0,0-.871.816.871.871,0,0,0,.846.828.832.832,0,0,0,.86-.8.921.921,0,0,0-.835-.84m0,0a.937.937,0,0,0-.871.816.871.871,0,0,0,.846.828.832.832,0,0,0,.86-.8.921.921,0,0,0-.835-.84m0,0a.937.937,0,0,0-.871.816.871.871,0,0,0,.846.828.832.832,0,0,0,.86-.8.921.921,0,0,0-.835-.84m0,0a.937.937,0,0,0-.871.816.871.871,0,0,0,.846.828.832.832,0,0,0,.86-.8.921.921,0,0,0-.835-.84m0,0a.937.937,0,0,0-.871.816.871.871,0,0,0,.846.828.832.832,0,0,0,.86-.8.921.921,0,0,0-.835-.84m0,0a.937.937,0,0,0-.871.816.871.871,0,0,0,.846.828.832.832,0,0,0,.86-.8.921.921,0,0,0-.835-.84m0,0a.937.937,0,0,0-.871.816.871.871,0,0,0,.846.828.832.832,0,0,0,.86-.8.921.921,0,0,0-.835-.84m0,0a.937.937,0,0,0-.871.816.871.871,0,0,0,.846.828.832.832,0,0,0,.86-.8.921.921,0,0,0-.835-.84m0,0a.937.937,0,0,0-.871.816.871.871,0,0,0,.846.828.832.832,0,0,0,.86-.8.921.921,0,0,0-.835-.84m0,0a.937.937,0,0,0-.871.816.871.871,0,0,0,.846.828.832.832,0,0,0,.86-.8.921.921,0,0,0-.835-.84m0,0a.937.937,0,0,0-.871.816.871.871,0,0,0,.846.828.832.832,0,0,0,.86-.8.921.921,0,0,0-.835-.84m0,0a.937.937,0,0,0-.871.816.871.871,0,0,0,.846.828.832.832,0,0,0,.86-.8.921.921,0,0,0-.835-.84m0,0a.937.937,0,0,0-.871.816.871.871,0,0,0,.846.828.832.832,0,0,0,.86-.8.921.921,0,0,0-.835-.84m0,0a.937.937,0,0,0-.871.816.871.871,0,0,0,.846.828.832.832,0,0,0,.86-.8.921.921,0,0,0-.835-.84m0,0a.937.937,0,0,0-.871.816.871.871,0,0,0,.846.828.832.832,0,0,0,.86-.8.921.921,0,0,0-.835-.84m0,0a.937.937,0,0,0-.871.816.871.871,0,0,0,.846.828.832.832,0,0,0,.86-.8.921.921,0,0,0-.835-.84m0,0a.937.937,0,0,0-.871.816.871.871,0,0,0,.846.828.832.832,0,0,0,.86-.8.921.921,0,0,0-.835-.84m0,0a.937.937,0,0,0-.871.816.871.871,0,0,0,.846.828.832.832,0,0,0,.86-.8.921.921,0,0,0-.835-.84m0,0a.937.937,0,0,0-.871.816.871.871,0,0,0,.846.828.832.832,0,0,0,.86-.8.921.921,0,0,0-.835-.84m0,0a.937.937,0,0,0-.871.816.871.871,0,0,0,.846.828.832.832,0,0,0,.86-.8.921.921,0,0,0-.835-.84m0,0a.937.937,0,0,0-.871.816.871.871,0,0,0,.846.828.832.832,0,0,0,.86-.8.921.921,0,0,0-.835-.84m0,0a.937.937,0,0,0-.871.816.871.871,0,0,0,.846.828.832.832,0,0,0,.86-.8.921.921,0,0,0-.835-.84m0,0a.937.937,0,0,0-.871.816.871.871,0,0,0,.846.828.832.832,0,0,0,.86-.8.921.921,0,0,0-.835-.84m0,0a.937.937,0,0,0-.871.816.871.871,0,0,0,.846.828.832.832,0,0,0,.86-.8.921.921,0,0,0-.835-.84m0,0a.937.937,0,0,0-.871.816.871.871,0,0,0,.846.828.832.832,0,0,0,.86-.8.921.921,0,0,0-.835-.84m0,0a.937.937,0,0,0-.871.816.871.871,0,0,0,.846.828.832.832,0,0,0,.86-.8.921.921,0,0,0-.835-.84m0,0a.937.937,0,0,0-.871.816.871.871,0,0,0,.846.828.832.832,0,0,0,.86-.8.921.921,0,0,0-.835-.84m0,0a.937.937,0,0,0-.871.816.871.871,0,0,0,.846.828.832.832,0,0,0,.86-.8.921.921,0,0,0-.835-.84m0,0a.937.937,0,0,0-.871.816.871.871,0,0,0,.846.828.832.832,0,0,0,.86-.8.921.921,0,0,0-.835-.84m0,0a.937.937,0,0,0-.871.816.871.871,0,0,0,.846.828.832.832,0,0,0,.86-.8.921.921,0,0,0-.835-.84m0,0a.937.937,0,0,0-.871.816.871.871,0,0,0,.846.828.832.832,0,0,0,.86-.8.921.921,0,0,0-.835-.84m0,0a.937.937,0,0,0-.871.816.871.871,0,0,0,.846.828.832.832,0,0,0,.86-.8.921.921,0,0,0-.835-.84M107.3,156.7a9.145,9.145,0,0,0,.971-.628l-.971.628m0,0a9.145,9.145,0,0,0,.971-.628l-.971.628m-5.462-23.213a.937.937,0,0,0-.871.816.871.871,0,0,0,.846.828.832.832,0,0,0,.86-.8.921.921,0,0,0-.835-.84m0,0a.937.937,0,0,0-.871.816.871.871,0,0,0,.846.828.832.832,0,0,0,.86-.8.921.921,0,0,0-.835-.84M107.3,156.7a9.145,9.145,0,0,0,.971-.628l-.971.628m0,0a9.145,9.145,0,0,0,.971-.628l-.971.628m-5.462-23.213a.937.937,0,0,0-.871.816.871.871,0,0,0,.846.828.832.832,0,0,0,.86-.8.921.921,0,0,0-.835-.84m0,0a.937.937,0,0,0-.871.816.871.871,0,0,0,.846.828.832.832,0,0,0,.86-.8.921.921,0,0,0-.835-.84M107.3,156.7a9.145,9.145,0,0,0,.971-.628l-.971.628m0,0a9.145,9.145,0,0,0,.971-.628l-.971.628m-5.462-23.213a.937.937,0,0,0-.871.816.871.871,0,0,0,.846.828.832.832,0,0,0,.86-.8.921.921,0,0,0-.835-.84m0,0a.937.937,0,0,0-.871.816.871.871,0,0,0,.846.828.832.832,0,0,0,.86-.8.921.921,0,0,0-.835-.84M107.3,156.7a9.145,9.145,0,0,0,.971-.628l-.971.628m0,0a9.145,9.145,0,0,0,.971-.628l-.971.628m-5.462-23.213a.937.937,0,0,0-.871.816.871.871,0,0,0,.846.828.832.832,0,0,0,.86-.8.921.921,0,0,0-.835-.84m0,0a.937.937,0,0,0-.871.816.871.871,0,0,0,.846.828.832.832,0,0,0,.86-.8.921.921,0,0,0-.835-.84M107.3,156.7a9.145,9.145,0,0,0,.971-.628l-.971.628m0,0a9.145,9.145,0,0,0,.971-.628l-.971.628m-5.462-23.213a.937.937,0,0,0-.871.816.871.871,0,0,0,.846.828.832.832,0,0,0,.86-.8.921.921,0,0,0-.835-.84m0,0a.937.937,0,0,0-.871.816.871.871,0,0,0,.846.828.832.832,0,0,0,.86-.8.921.921,0,0,0-.835-.84M107.3,156.7a9.145,9.145,0,0,0,.971-.628l-.971.628m0,0a9.145,9.145,0,0,0,.971-.628l-.971.628m-5.462-23.213a.937.937,0,0,0-.871.816.871.871,0,0,0,.846.828.832.832,0,0,0,.86-.8.921.921,0,0,0-.835-.84m0,0a.937.937,0,0,0-.871.816.871.871,0,0,0,.846.828.832.832,0,0,0,.86-.8.921.921,0,0,0-.835-.84M107.3,156.7a9.145,9.145,0,0,0,.971-.628l-.971.628m0,0a9.145,9.145,0,0,0,.971-.628l-.971.628m-5.462-23.213a.937.937,0,0,0-.871.816.871.871,0,0,0,.846.828.832.832,0,0,0,.86-.8.921.921,0,0,0-.835-.84m0,0a.937.937,0,0,0-.871.816.871.871,0,0,0,.846.828.832.832,0,0,0,.86-.8.921.921,0,0,0-.835-.84M107.3,156.7a9.145,9.145,0,0,0,.971-.628l-.971.628m0,0a9.145,9.145,0,0,0,.971-.628l-.971.628m-5.462-23.213a.937.937,0,0,0-.871.816.871.871,0,0,0,.846.828.832.832,0,0,0,.86-.8.921.921,0,0,0-.835-.84m0,0a.937.937,0,0,0-.871.816.871.871,0,0,0,.846.828.832.832,0,0,0,.86-.8.921.921,0,0,0-.835-.84M107.3,156.7a9.145,9.145,0,0,0,.971-.628l-.971.628m0,0a9.145,9.145,0,0,0,.971-.628l-.971.628m-5.462-23.213a.937.937,0,0,0-.871.816.871.871,0,0,0,.846.828.832.832,0,0,0,.86-.8.921.921,0,0,0-.835-.84m0,0a.937.937,0,0,0-.871.816.871.871,0,0,0,.846.828.832.832,0,0,0,.86-.8.921.921,0,0,0-.835-.84M107.3,156.7a9.145,9.145,0,0,0,.971-.628l-.971.628m0,0a9.145,9.145,0,0,0,.971-.628l-.971.628m-5.462-23.213a.937.937,0,0,0-.871.816.871.871,0,0,0,.846.828.832.832,0,0,0,.86-.8.921.921,0,0,0-.835-.84m0,0a.937.937,0,0,0-.871.816.871.871,0,0,0,.846.828.832.832,0,0,0,.86-.8.921.921,0,0,0-.835-.84M107.3,156.7a9.145,9.145,0,0,0,.971-.628l-.971.628m0,0a9.145,9.145,0,0,0,.971-.628l-.971.628m-5.462-23.213a.937.937,0,0,0-.871.816.871.871,0,0,0,.846.828.832.832,0,0,0,.86-.8.921.921,0,0,0-.835-.84m0,0a.937.937,0,0,0-.871.816.871.871,0,0,0,.846.828.832.832,0,0,0,.86-.8.921.921,0,0,0-.835-.84M107.3,156.7a9.145,9.145,0,0,0,.971-.628l-.971.628m0,0a9.145,9.145,0,0,0,.971-.628l-.971.628m-5.462-23.213a.937.937,0,0,0-.871.816.871.871,0,0,0,.846.828.832.832,0,0,0,.86-.8.921.921,0,0,0-.835-.84m0,0a.937.937,0,0,0-.871.816.871.871,0,0,0,.846.828.832.832,0,0,0,.86-.8.921.921,0,0,0-.835-.84M107.3,156.7a9.145,9.145,0,0,0,.971-.628l-.971.628m0,0a9.145,9.145,0,0,0,.971-.628l-.971.628m-5.462-23.213a.937.937,0,0,0-.871.816.871.871,0,0,0,.846.828.832.832,0,0,0,.86-.8.921.921,0,0,0-.835-.84m0,0a.937.937,0,0,0-.871.816.871.871,0,0,0,.846.828.832.832,0,0,0,.86-.8.921.921,0,0,0-.835-.84M107.3,156.7a9.145,9.145,0,0,0,.971-.628l-.971.628m0,0a9.145,9.145,0,0,0,.971-.628l-.971.628m-5.462-23.213a.937.937,0,0,0-.871.816.871.871,0,0,0,.846.828.832.832,0,0,0,.86-.8.921.921,0,0,0-.835-.84m0,0a.937.937,0,0,0-.871.816.871.871,0,0,0,.846.828.832.832,0,0,0,.86-.8.921.921,0,0,0-.835-.84M107.3,156.7a9.145,9.145,0,0,0,.971-.628l-.971.628m0,0a9.145,9.145,0,0,0,.971-.628l-.971.628m-5.462-23.213a.937.937,0,0,0-.871.816.871.871,0,0,0,.846.828.832.832,0,0,0,.86-.8.921.921,0,0,0-.835-.84m0,0a.937.937,0,0,0-.871.816.871.871,0,0,0,.846.828.832.832,0,0,0,.86-.8.921.921,0,0,0-.835-.84m0,0a.937.937,0,0,0-.871.816.871.871,0,0,0,.846.828.832.832,0,0,0,.86-.8.921.921,0,0,0-.835-.84m0,0a.937.937,0,0,0-.871.816.871.871,0,0,0,.846.828.832.832,0,0,0,.86-.8.921.921,0,0,0-.835-.84m0,0a.937.937,0,0,0-.871.816.871.871,0,0,0,.846.828.832.832,0,0,0,.86-.8.921.921,0,0,0-.835-.84m0,0a.937.937,0,0,0-.871.816.871.871,0,0,0,.846.828.832.832,0,0,0,.86-.8.921.921,0,0,0-.835-.84m0,0a.937.937,0,0,0-.871.816.871.871,0,0,0,.846.828.832.832,0,0,0,.86-.8.921.921,0,0,0-.835-.84m0,0a.937.937,0,0,0-.871.816.871.871,0,0,0,.846.828.832.832,0,0,0,.86-.8.921.921,0,0,0-.835-.84m0,0a.937.937,0,0,0-.871.816.871.871,0,0,0,.846.828.832.832,0,0,0,.86-.8.921.921,0,0,0-.835-.84m0,0a.937.937,0,0,0-.871.816.871.871,0,0,0,.846.828.832.832,0,0,0,.86-.8.921.921,0,0,0-.835-.84m0,0a.937.937,0,0,0-.871.816.871.871,0,0,0,.846.828.832.832,0,0,0,.86-.8.921.921,0,0,0-.835-.84m0,0a.937.937,0,0,0-.871.816.871.871,0,0,0,.846.828.832.832,0,0,0,.86-.8.921.921,0,0,0-.835-.84m0,0a.937.937,0,0,0-.871.816.871.871,0,0,0,.846.828.832.832,0,0,0,.86-.8.921.921,0,0,0-.835-.84m0,0a.937.937,0,0,0-.871.816.871.871,0,0,0,.846.828.832.832,0,0,0,.86-.8.921.921,0,0,0-.835-.84m0,0a.937.937,0,0,0-.871.816.871.871,0,0,0,.846.828.832.832,0,0,0,.86-.8.921.921,0,0,0-.835-.84m0,0a.937.937,0,0,0-.871.816.871.871,0,0,0,.846.828.832.832,0,0,0,.86-.8.921.921,0,0,0-.835-.84m0,0a.937.937,0,0,0-.871.816.871.871,0,0,0,.846.828.832.832,0,0,0,.86-.8.921.921,0,0,0-.835-.84m0,0a.937.937,0,0,0-.871.816.871.871,0,0,0,.846.828.832.832,0,0,0,.86-.8.921.921,0,0,0-.835-.84m0,0a.937.937,0,0,0-.871.816.871.871,0,0,0,.846.828.832.832,0,0,0,.86-.8.921.921,0,0,0-.835-.84m0,0a.937.937,0,0,0-.871.816.871.871,0,0,0,.846.828.832.832,0,0,0,.86-.8.921.921,0,0,0-.835-.84m0,0a.937.937,0,0,0-.871.816.871.871,0,0,0,.846.828.832.832,0,0,0,.86-.8.921.921,0,0,0-.835-.84m0,0a.937.937,0,0,0-.871.816.871.871,0,0,0,.846.828.832.832,0,0,0,.86-.8.921.921,0,0,0-.835-.84m0,0a.937.937,0,0,0-.871.816.871.871,0,0,0,.846.828.832.832,0,0,0,.86-.8.921.921,0,0,0-.835-.84m0,0a.937.937,0,0,0-.871.816.871.871,0,0,0,.846.828.832.832,0,0,0,.86-.8.921.921,0,0,0-.835-.84m0,0a.937.937,0,0,0-.871.816.871.871,0,0,0,.846.828.832.832,0,0,0,.86-.8.921.921,0,0,0-.835-.84m0,0a.937.937,0,0,0-.871.816.871.871,0,0,0,.846.828.832.832,0,0,0,.86-.8.921.921,0,0,0-.835-.84m0,0a.937.937,0,0,0-.871.816.871.871,0,0,0,.846.828.832.832,0,0,0,.86-.8.921.921,0,0,0-.835-.84m0,0a.937.937,0,0,0-.871.816.871.871,0,0,0,.846.828.832.832,0,0,0,.86-.8.921.921,0,0,0-.835-.84m0,0a.937.937,0,0,0-.871.816.871.871,0,0,0,.846.828.832.832,0,0,0,.86-.8.921.921,0,0,0-.835-.84m0,0a.937.937,0,0,0-.871.816.871.871,0,0,0,.846.828.832.832,0,0,0,.86-.8.921.921,0,0,0-.835-.84m0,0a.937.937,0,0,0-.871.816.871.871,0,0,0,.846.828.832.832,0,0,0,.86-.8.921.921,0,0,0-.835-.84m0,0a.937.937,0,0,0-.871.816.871.871,0,0,0,.846.828.832.832,0,0,0,.86-.8.921.921,0,0,0-.835-.84m0,0a.937.937,0,0,0-.871.816.871.871,0,0,0,.846.828.832.832,0,0,0,.86-.8.921.921,0,0,0-.835-.84m0,0a.937.937,0,0,0-.871.816.871.871,0,0,0,.846.828.832.832,0,0,0,.86-.8.921.921,0,0,0-.835-.84m0,0a.937.937,0,0,0-.871.816.871.871,0,0,0,.846.828.832.832,0,0,0,.86-.8.921.921,0,0,0-.835-.84m0,0a.937.937,0,0,0-.871.816.871.871,0,0,0,.846.828.832.832,0,0,0,.86-.8.921.921,0,0,0-.835-.84m0,0a.937.937,0,0,0-.871.816.871.871,0,0,0,.846.828.832.832,0,0,0,.86-.8.921.921,0,0,0-.835-.84m0,0a.937.937,0,0,0-.871.816.871.871,0,0,0,.846.828.832.832,0,0,0,.86-.8.921.921,0,0,0-.835-.84m0,0a.937.937,0,0,0-.871.816.871.871,0,0,0,.846.828.832.832,0,0,0,.86-.8.921.921,0,0,0-.835-.84m0,0a.937.937,0,0,0-.871.816.871.871,0,0,0,.846.828.832.832,0,0,0,.86-.8.921.921,0,0,0-.835-.84m0,0a.937.937,0,0,0-.871.816.871.871,0,0,0,.846.828.832.832,0,0,0,.86-.8.921.921,0,0,0-.835-.84m0,0a.937.937,0,0,0-.871.816.871.871,0,0,0,.846.828.832.832,0,0,0,.86-.8.921.921,0,0,0-.835-.84m0,0a.937.937,0,0,0-.871.816.871.871,0,0,0,.846.828.832.832,0,0,0,.86-.8.921.921,0,0,0-.835-.84m0,0a.937.937,0,0,0-.871.816.871.871,0,0,0,.846.828.832.832,0,0,0,.86-.8.921.921,0,0,0-.835-.84M107.3,156.7a9.145,9.145,0,0,0,.971-.628l-.971.628" transform="translate(-82.748 -109.588)" fill="#1e1a18"/><path d="M69.973.775c-.039-.227-.121-.546-.284-.63-.28-.144-.552.023-.787.273a5.95,5.95,0,0,1-1.113.974,9.347,9.347,0,0,1-3.9,1.2,26.8,26.8,0,0,1-6.319-.071c-1.368-.138-2.725-.379-4.094-.506A9.611,9.611,0,0,0,47.45,3.461a14,14,0,0,0-3.633,3.332c-.133.167-.227.414-.464.044a13.651,13.651,0,0,0-2.979-3.271,8.172,8.172,0,0,0-9.118-.811,12.069,12.069,0,0,0-4.388,4.381c-.057.093-.127.177-.162.224a28.264,28.264,0,0,0-1.82-2.328C22.311,2.341,19.079,1.675,15.5,2.168c-1.167.161-2.332.349-3.5.473a22.517,22.517,0,0,1-5.868-.068A9.487,9.487,0,0,1,2.083,1.091C1.675.807,1.319.45.907.172A.817.817,0,0,0,.267.024.725.725,0,0,0,0,.6,14.28,14.28,0,0,0,.122,2.721C.312,3.914.8,4.837,2.1,5.035c.425.064.478.274.572.616.32,1.156.764,2.247,2.1,2.6.32.084.662.079.988.144.13.026.312.1.353.205a2.644,2.644,0,0,0,2.9,1.961c.126-.012.324.162.4.3.4.684.834,1.346,1.7,1.412a16.128,16.128,0,0,0,2.213-.054c.268-.016.444-.02.573.273a2.578,2.578,0,0,0,.523.732A1.463,1.463,0,0,0,16,13.752c.4-.129.809-.23,1.212-.348.273-.079.412-.061.583.26.563,1.053.95,1.367,2.18.868.488-.2.945-.47,1.412-.715.585-.308,1.162-.634,1.754-.929a.77.77,0,0,1,.921.359c.206.34-.129.436-.292.547a16.1,16.1,0,0,1-2.028,1.279A10.8,10.8,0,0,1,16.572,16c-.29-.01-.388.054-.382.364.021,1.088.025,2.178,0,3.267-.008.361.1.446.454.442,3.018-.035,6.036-.048,9.054-.065.549,0,1.1,0,1.646.022.08,0,.233.17.218.223a3.67,3.67,0,0,0,1.718,4.236c.221.126.211.216.094.407-.415.68-.8,1.379-1.224,2.053a.4.4,0,0,0,0,.545c.509.729.989,1.478,1.456,2.234a1.561,1.561,0,0,1,.215.663c.084.944.083,1.9.218,2.835.193,1.344.223,2.62-.824,3.676-.021.021-.03.054-.051.074-.151.155-.119.288.006.454.437.578.87,1.161,1.279,1.758a1.217,1.217,0,0,1,.191.577c.09,1.294.159,2.59.235,3.885a.446.446,0,0,1,.013.166c.093,1.206.1,1.015-1.061.845-.261-.038-.518-.1-.777-.15h0c-.766-.173-1.54-.315-2.3-.525A15.362,15.362,0,0,1,19.287,39.7a8.308,8.308,0,0,1-2.605-4.982,6.547,6.547,0,0,1,.471-3.393,7.829,7.829,0,0,1,3.914-3.618c1.249-.6,2.527-1.147,3.79-1.723a.679.679,0,0,0,.166-1.176c-.09-.077-.194-.138-.295-.21l.51-.442-.83-.123c.107-.095.174-.152.238-.211a1.028,1.028,0,0,0,.369-1.166c-.177-.493-.576-.6-1.062-.585-1.218.045-2.437.046-3.654.114a6.519,6.519,0,0,0-1.734.289A6,6,0,0,0,16,24.569a21.723,21.723,0,0,0-3.436,6.449,10.755,10.755,0,0,0-.534,5.638,11.8,11.8,0,0,0,3.4,6.256,28.561,28.561,0,0,0,7.84,5.424c.923.451.9.43.207,1.176A7.331,7.331,0,0,0,21.5,53.6a8.457,8.457,0,0,0,2.462,7.089,19.366,19.366,0,0,0,1.97,1.739c.179.148.2.213.045.372-.294.3-.573.623-.858.935-.175.263-.359.522-.523.793a5.711,5.711,0,0,0,1.639,7.983,8.962,8.962,0,0,0,3.06,1.307c-.425.49-.83.938-1.212,1.4a15.017,15.017,0,0,0-1.307,1.673,1.014,1.014,0,0,0,.647,1.544,1.966,1.966,0,0,0,1.99-.55c.724-.646,1.406-1.339,2.141-1.971a5.5,5.5,0,0,1,2.188-1.2c.07.751.137,1.47.2,2.189.079.841.166,1.682.23,2.524.018.235.1.305.333.294.381-.018.762-.005,1.144-.005.835,0,.834,0,.952-.8.02-.134.063-.264.072-.4.083-1.158.175-2.316.231-3.476.015-.317.167-.375.393-.3a4.2,4.2,0,0,1,1.123.471c1.327.952,2.645,1.922,3.925,2.935a1.446,1.446,0,0,0,2.152-.1,1.286,1.286,0,0,0-.263-1.569c-.465-.475-.961-.92-1.432-1.39-.5-.5-.986-1.01-1.423-1.462a23.146,23.146,0,0,0,2.567-1.245,5.371,5.371,0,0,0,2.689-4.509,6.036,6.036,0,0,0-1.028-3.453l-1.343-1.607c.65-.354,1.346-.686,1.992-1.093a7.941,7.941,0,0,0,3.725-5.1,6.9,6.9,0,0,0-2.555-7.247c-.138-.114-.267-.236-.451-.4l1.338-.545c.118-.065.237-.128.352-.2l3.1-1.832h0a2.8,2.8,0,0,0,.309-.17,16.637,16.637,0,0,0,6.621-8.809c.036-.146.07-.292.107-.438a12.046,12.046,0,0,0-.177-6.583,13.985,13.985,0,0,0-4.229-6.352,4.881,4.881,0,0,0-2.075-1.412,14.29,14.29,0,0,0-2.355-.409,30.563,30.563,0,0,0-3.274.07.541.541,0,0,0-.506.643c.058.385.173.762.266,1.156h-.518c.308.3.308.3.047.62a.6.6,0,0,0,.295,1c.514.166,1.043.29,1.553.468A11.33,11.33,0,0,1,52.9,29.326a5.843,5.843,0,0,1,1.323,5.43,9.606,9.606,0,0,1-2.664,4.489,18.423,18.423,0,0,1-6.506,4.169c-.993.389-2.034.663-3.052.989-.858.209-1.715.42-2.576.614-.03.007-.15-.162-.144-.242.033-.372.1-.741.148-1.112h0a.611.611,0,0,1-.043-.174c.08-1.261.16-2.523.25-3.784a1.172,1.172,0,0,1,.42-.856c.448-.386.836-.839,1.276-1.234.2-.179.158-.3.016-.46-.354-.413-.711-.825-1.046-1.254a.7.7,0,0,1-.146-.432q.185-2.951.4-5.9a.6.6,0,0,1,.188-.329c.562-.571,1.123-1.141,1.7-1.692.22-.209.3-.318.025-.579-.68-.65-1.3-1.365-1.967-2.023-.263-.258-.149-.326.094-.448A3.179,3.179,0,0,0,42.475,22.2a11.954,11.954,0,0,0,.021-2.037c1.632,0,3.367-.012,5.1,0,2.088.017,4.175.061,6.263.079.1,0,.286-.127.287-.2.017-1.327.013-2.655.013-3.947-.931,0-1.829.073-2.711-.015a10.707,10.707,0,0,1-5.406-2.286c-.318-.239-.286-.47,0-.7a.925.925,0,0,1,1.122-.118q1.419.753,2.884,1.415c1.338.6,1.989.393,2.721-.84.125-.211.214-.2.427-.131a3.019,3.019,0,0,0,1.758.233,2.593,2.593,0,0,0,1.638-1.394c.118-.211.2-.217.41-.162a11.745,11.745,0,0,0,1.681.338,1.69,1.69,0,0,0,1.777-.924c.164-.305.314-.616.473-.923a.431.431,0,0,1,.566-.261,2.329,2.329,0,0,0,.989,0A2.367,2.367,0,0,0,64.2,8.52c.08-.242.167-.364.436-.313a1.856,1.856,0,0,0,2.116-.945A10.812,10.812,0,0,0,67.5,5.349c.089-.271.193-.4.488-.415a1.968,1.968,0,0,0,1.819-1.442A5.142,5.142,0,0,0,69.973.775M24.195,47.992c-.135-.041-.237-.193-.354-.294a1.251,1.251,0,0,1,.381-.194c.421-.05.846-.08,1.271-.089.637-.014.637,0,.547-.664l-1.489.361A3.963,3.963,0,0,1,21.8,46.86a1.871,1.871,0,0,1-.623-.563,11.1,11.1,0,0,1,1.2-.06c.513.026.416-.3.407-.6-.011-.38-.28-.219-.463-.2a6.711,6.711,0,0,1-3.193-.3,1.815,1.815,0,0,1-1.115-1.107l1.236-.09c.083-.477-.191-.576-.582-.623a4.993,4.993,0,0,1-2.8-1.074,2.63,2.63,0,0,1-.881-1.506c.482.256.886.482,1.3.684a.5.5,0,0,0,.344.006c.052-.174.2-.354-.13-.495a7.46,7.46,0,0,1-2.7-1.814,3.457,3.457,0,0,1-.889-1.97,4.8,4.8,0,0,1,1.787,1.469c.365-.354.3-.653-.051-.97-.592-.54-1.162-1.1-1.74-1.66-.062-.061-.159-.127-.166-.2-.053-.593-.089-1.186-.129-1.779l.2-.085,1.242,1.547a.508.508,0,0,0,.077-.846q-.555-.656-1.068-1.344a.573.573,0,0,1-.12-.419,22.177,22.177,0,0,1,4.687-8.978,2.915,2.915,0,0,1,1.957-.965c1.373-.126,2.756-.156,4.136-.182.2,0,.4.234.6.36-.164.147-.3.364-.493.43A8.207,8.207,0,0,0,19.9,26.082c-.036.046-.068.1-.127.183l3.419-.691.058.18c-.147.069-.29.151-.443.205a15.493,15.493,0,0,0-4.062,2.079,7,7,0,0,0-3.011,5.89c0,.069-.006.138-.011.237l-1-.692c-.252.432-.226.657.247.885a3.015,3.015,0,0,1,1.487,2.16c.051.2-.016.275-.226.262a7.72,7.72,0,0,0-.868-.015c-.1,0-.193.094-.289.144.092.172-.109.5.277.515a8.074,8.074,0,0,1,.913.013.841.841,0,0,1,.51.259c.412.529.785,1.088,1.234,1.723-.46,0-.82-.011-1.177.006a1.278,1.278,0,0,0-.358.128c.164.182-.078.61.359.617.5.008,1-.023,1.507-.018a.706.706,0,0,1,.4.11c.479.37.937.768,1.411,1.146.27.214.164.3-.1.353l-1.184.232A.958.958,0,0,0,20.2,42.4a1.978,1.978,0,0,1,2.062.5c.132.1.271.182.486.327-.439.258-.828.482-1.211.715a1.633,1.633,0,0,0-.234.216c.164.126.113.532.49.379.519-.211,1.03-.438,1.554-.633a.911.911,0,0,1,.546-.048c.563.181,1.108.411,1.664.61.21.075.248.156.057.291-.393.279-.787.554-1.2.844a.687.687,0,0,0,1.046.2,6.033,6.033,0,0,0,.89-.538.951.951,0,0,1,1.234-.122l.935.258c-.147.239-.286.483-.444.715-.119.172-.262.329-.394.492.617.333.62.338,1.177-.077a5.926,5.926,0,0,0,.547-.476,1.329,1.329,0,0,1,1.462-.264.349.349,0,0,1,.134.247c.1.881.2,1.763.27,2.647.041.552-.154.848-.7.857-.887.014-1.778-.094-2.667-.165-.088-.006-.167-.109-.264-.175,1.549-.8,1.6-.86,1.3-1.294a3.929,3.929,0,0,1-1.072.461,9.509,9.509,0,0,1-3.688-.379m12.111,2.133h.159c0-3.355.007-6.71-.009-10.066,0-.387.113-.484.486-.459.562.038,1.126.025,1.69.021.211,0,.287.053.277.286-.126,2.852-.238,5.705-.357,8.557q-.2,4.8-.41,9.6c-.03.71-.053,1.42-.1,2.127-.007.108-.138.213-.227.306-.037.038-.112.04-.172.056-1.256.323-1.339.25-1.336-1,.008-3.144,0-6.288,0-9.432m4.166,16.361a7.771,7.771,0,0,1,1.087.545,1.125,1.125,0,0,1,.246,1.827,7.64,7.64,0,0,1-1.816,1.394,20.292,20.292,0,0,1-2.438.987c-.256.1-.386.109-.343-.279.141-1.289.22-2.584.324-3.877.027-.344.041-.69.092-1.03a.3.3,0,0,1,.241-.169c.871.189,1.738.4,2.606.6m-3.664-.677c.3-.006.336.1.328.365-.022.8-.007,1.6-.007,2.4h-.087c-.043.875-.078,1.75-.138,2.624a.434.434,0,0,1-.229.318,3.5,3.5,0,0,1-.756.111.959.959,0,0,1-.042-.248,10.177,10.177,0,0,1,.007-1.133c.037-.377-.116-.448-.456-.436-.425.017-.854-.052-1.277-.034-.569.025-.36-.4-.405-.657-.066-.361.241-.223.4-.228a13.423,13.423,0,0,1,1.415.005c.373.027.334-.189.339-.422s.014-.4-.321-.383c-.546.032-1.1,0-1.644.014-.524.01-.261-.4-.338-.624-.093-.265.107-.278.31-.277.548,0,1.1-.025,1.644-.01.437.012.266-.3.309-.5.058-.268-.124-.244-.3-.242-.579.008-1.159-.015-1.735.025-.355.025-.336-.176-.37-.406-.046-.311.158-.259.336-.259,1,0,2.01.016,3.015,0m-1.36-17.565c.483-.033.347.285.367.531s0,.414-.35.4c-1-.035-2.007-.026-3.01-.038-.271,0-.666-.633-.523-.85.038-.058.183-.064.279-.064.547-.006,1.1,0,1.642,0v.031c.532,0,1.067.027,1.6-.009m.178,1.715c.063,0,.152.224.179.354.089.43-.054.6-.541.566a21.46,21.46,0,0,0-2.464-.031c-.447.02-.643-.123-.681-.544a3.471,3.471,0,0,0-.063-.361c1.2,0,2.384-.006,3.569.015m-.105,4.649c.409-.016.272.269.281.466s.065.424-.3.4c-.866-.046-1.735-.061-2.6-.083-.492-.013-.281-.449-.424-.672a1.415,1.415,0,0,1,.392-.136c.426-.017.854-.006,1.28-.006v.031c.456,0,.915.014,1.37,0m.023,1.724c.437,0,.208.348.262.538.062.226-.075.273-.281.268-.823-.022-1.647-.02-2.468-.054a.5.5,0,0,1-.327-.252,1.837,1.837,0,0,1-.113-.5c1.009,0,1.969,0,2.927,0m-2.921-4.7c.471-.015.942-.006,1.413-.006v.04c.487,0,.974.024,1.458-.008.392-.025.309.221.309.433s.075.42-.289.4c-.957-.043-1.915-.05-2.872-.073-.478-.012-.275-.455-.428-.674a1.716,1.716,0,0,1,.409-.115m2.911,1.585c.421,0,.238.291.263.475s.052.381-.274.369c-.909-.032-1.82-.023-2.729-.056a.5.5,0,0,1-.316-.258,2.335,2.335,0,0,1-.139-.527c1.106,0,2.151.008,3.2,0M32.511,65.1l-.005.124a11.122,11.122,0,0,1-1.55.081c-.709-.057-.969-.441-.916-1.185.416.189.822.391,1.243.558.4.16.818.282,1.228.421M30.2,66.3c.854-.17,1.708-.346,2.565-.5.066-.011.224.144.232.232a8.97,8.97,0,0,1,.009.9c.054.387.124.771.16,1.159q.127,1.374.223,2.75c.005.09-.125.277-.168.27a7.446,7.446,0,0,1-4.142-1.815c-1.078-1.041-.872-2.11.48-2.772a5.469,5.469,0,0,1,.64-.225m2.912-7.544c-.088,0-.2-.137-.246-.235a2.6,2.6,0,0,1-.105-.495c.954,0,1.891-.008,2.827.017.069,0,.187.248.183.378s-.127.371-.2.372c-.819.013-1.638-.006-2.457-.037M35.171,47.5c-.9-.025-1.793-.074-2.689-.054-.421.01-.615-.114-.645-.522a2.3,2.3,0,0,0-.092-.383c1.292,0,2.567,0,3.841.01.08,0,.216.143.229.233.1.717.075.735-.644.716m.649-2c-.042.1-.157.256-.241.256q-1.759,0-3.519-.048a.4.4,0,0,1-.282-.21c-.076-.161-.07-.358-.137-.523-.112-.271-.031-.329.245-.32.578.019,1.157.006,1.736.006v.054c.595,0,1.189.011,1.783,0,.32-.008.495.073.429.43-.022.117.027.254-.015.36m-.013-1.765c0,.035-.147.086-.227.089-1.229.042-2.458.081-3.686.1-.085,0-.218-.128-.249-.223-.1-.31-.171-.632-.26-.979,1.428-.043,2.82-.085,4.213-.12.075,0,.216.058.218.093.014.345.011.692-.009,1.037m-4.218,8.421c.258,2.445.528,4.888.792,7.332.017.158.08.348-.224.277a6.8,6.8,0,0,1-4.075-2.3,3.358,3.358,0,0,1-.706-2.171,3.446,3.446,0,0,1,2.45-2.965,11.269,11.269,0,0,1,1.444-.4c.2-.055.294,0,.318.231M28.653,77.4c-.445.37-.882.412-1.11.174s-.145-.687.223-1.095c.385-.426.77-.854,1.187-1.248a.707.707,0,0,1,.993-.078c.238.192.329-.015.432-.129.038-.041-.048-.188-.073-.289-.043-.18-.083-.36-.124-.541a1.79,1.79,0,0,1,.706-.067,5.87,5.87,0,0,1,.97.544c-1.06.906-2.122,1.829-3.2,2.729m7.185.964c-.007.09-.019.18-.028.27-.062.625-.063.6-.71.629-.4.021-.574-.1-.565-.5a5.222,5.222,0,0,0-.05-.583c-.039-.607-.039-.607.589-.622.832-.019.832-.019.765.805m.051-1.462c-.027.192.006.4-.3.379a5.086,5.086,0,0,0-.725.006c-.274.018-.448-.012-.459-.365-.014-.434.286-.229.463-.268a1.468,1.468,0,0,1,.316,0c.136,0,.273.006.409,0,.183-.009.335,0,.3.253m.088-.986c-.023.261.043.566-.406.523-.3-.03-.61.028-.91,0a.457.457,0,0,1-.3-.264c-.127-.344-.02-.535.391-.472a3.044,3.044,0,0,0,.456,0,1.271,1.271,0,0,1,.363.007c.142.044.438-.178.4.207m.065-.652a.313.313,0,0,1-.23.181c-.425.014-.852.013-1.276-.014a.373.373,0,0,1-.241-.219c-.156-.39-.011-.554.411-.492a3.168,3.168,0,0,0,.456,0v0h.456c.483,0,.552.081.424.543m2.4-1.712a1.251,1.251,0,0,1-1.614.4,5.167,5.167,0,0,0,.36-.517c.036-.064-.019-.176-.033-.266-.1.014-.235-.007-.279.048a2.686,2.686,0,0,1-2.75.741l.757-.64c-.2-.342-.4-.343-.727-.114a3.451,3.451,0,0,1-2.31.7.746.746,0,0,1-.432-.2c-.038-.036.11-.239.14-.373.023-.1.035-.256-.022-.313a.428.428,0,0,0-.341-.11c-.572.139-1.132.332-1.708.445-.185.036-.406-.117-.611-.183a3.3,3.3,0,0,1,.219-.6c.085-.143.245-.22.024-.388-.176-.134-.274-.194-.481-.012a2.244,2.244,0,0,1-.817.452c-.316.093-.462-.109-.346-.417a1.583,1.583,0,0,1,.21-.348c.244-.338.247-.336-.066-.635a3.566,3.566,0,0,1-.754.417.823.823,0,0,1-.618-.114c-.152-.105-.208-.347-.306-.528a3.189,3.189,0,0,1,.5-.092c.6-.018.634-.036.469-.457a.428.428,0,0,0-.28-.193c-.355-.076-.727-.088-1.072-.191a1.381,1.381,0,0,1-.974-1.244c-.017-.24.053-.339.293-.325a.758.758,0,0,0,.273-.01c.152-.051.419-.131.419-.2,0-.249.1-.57-.379-.6-.684-.045-.868-.384-.456-.948a5.561,5.561,0,0,1,1.224-1.038c.219-.163.308-.684.084-.85-.045-.033-.165,0-.233.04a5.378,5.378,0,0,1-.928.436c.379-.447.75-.9,1.144-1.332.055-.061.221-.049.329-.031a4.718,4.718,0,0,0,2.3-.115c.3-.1.371.02.418.266a2.038,2.038,0,0,0,.833,1.451,1.49,1.49,0,0,1-2.034-.038c-.318-.271-.546-.309-.864.035.267.251.543.525.835.781.161.141.21.243.068.444-.4.557-.385.565-1.028.3a2.447,2.447,0,0,0-.424-.164c-.085-.017-.259.026-.266.065-.029.151-.065.357.013.456a.969.969,0,0,0,.474.256,1.568,1.568,0,0,1,1.114,1.481,3.674,3.674,0,0,0-.565.008c-.111.017-.3.11-.3.17,0,.193-.011.417.338.372a2.448,2.448,0,0,1,2.061.771c.171.163.222.273-.038.386a.969.969,0,0,0-.3.2,1.174,1.174,0,0,0-.154.277c.133.026.311.121.391.069a1.636,1.636,0,0,1,1.606-.162c.271.108.364.219.154.485a1.533,1.533,0,0,0-.163.477c.273.042.574.278.76-.171a.523.523,0,0,1,.422-.21c.482.024.961.1,1.5.162-.2.171-.367.313-.535.457.568.271.577.281,1.066-.008a1.5,1.5,0,0,1,1.07-.234,7.221,7.221,0,0,0,1.169.014l-.415.363c.4.386.766.088,1.111-.029a.6.6,0,0,1,.689.114,1.534,1.534,0,0,0,.625.359c.384.092.383.218.163.5M41.422,75.1c.188-.224.325-.154.5.033.428.45.883.875,1.317,1.319a1.683,1.683,0,0,1,.416.528,2.937,2.937,0,0,1,.08.747c-.257-.01-.593.081-.759-.046-.721-.549-1.4-1.16-2.081-1.754-.309-.268-.607-.548-.91-.823-.2-.185-.3-.37-.069-.617a.3.3,0,0,0,0-.3.332.332,0,0,0-.313-.007c-.335.234-.661.43-.9.288.277-.361.548-.724.836-1.074a.255.255,0,0,1,.245-.015c.44.323.863.668,1.3.991.191.141.139.234-.024.325-.187.1-.216.2-.065.378s.281.2.429.024m2.991-9.441a.692.692,0,0,1,.136,0c.861-.011,1.1.2,1.189,1.069.006.061,0,.122.008.182.078.971.078,1-.868.982-.552-.009-.283.408-.452.658.354,0,.657.016.957,0,.233-.016.312.057.241.278A4.245,4.245,0,0,1,43.93,71.2a4.317,4.317,0,0,1-.195-.566c-.05-.268-.2-.263-.429-.255-.32.012-.227.213-.218.375a1.7,1.7,0,0,1-.845,1.6c-.2.13-.364.185-.536-.064-.1-.147-.19-.413-.489-.219s-.034.359.039.482c.147.248-.016.29-.174.339a2.952,2.952,0,0,1-2.255-.241,9.981,9.981,0,0,1-.865-.548c.279-.132.557-.263.836-.392a5.659,5.659,0,0,0,.537-.247c.559-.337,1.1-.6,1.724-.1.092.074.364-.072.662-.141-.152-.1-.195-.133-.238-.161-.685-.449-.714-.557.011-.955a6.13,6.13,0,0,1,1.46-.408c.168-.042.417.095.426-.242s-.243-.181-.387-.216c-.2-.049-.406-.076-.609-.114.086-.221.113-.506.27-.653a7.593,7.593,0,0,1,1.213-.92c.244-.151.245-.256.15-.49-.128-.314-.277-.111-.416-.052a6.448,6.448,0,0,0-.7.332c-.331.19-.441.025-.353-.252.156-.5.377-.972.571-1.457l.853-.358h0c-.006.3.116.448.436.381m-1.158-20.7.266-.054a.873.873,0,0,1,1.061.2,3.376,3.376,0,0,0,.69.431c.661.352.664.348,1.278-.071-.392-.273-.78-.546-1.169-.814-.237-.164-.241-.271.056-.372.543-.188,1.073-.415,1.619-.594a.815.815,0,0,1,.5.04,12.6,12.6,0,0,1,1.245.54c.428.217.713.153.84-.333L48.5,43.266c-.22-.129-.3-.247-.015-.413.365-.214.7-.477,1.071-.682a.909.909,0,0,1,.5-.056,6.093,6.093,0,0,1,.893.157.958.958,0,0,0,1.14-.432c-.423-.082-.855-.161-1.286-.251-.22-.045-.31-.114-.072-.3a18.186,18.186,0,0,1,1.449-1.168,2.148,2.148,0,0,1,.948-.106c.329-.019.661-.006.988-.035a.336.336,0,0,0,.223-.189c.195-.518.169-.547-.38-.551q-.457,0-.914-.01c-.011,0-.022-.014-.073-.052.431-.607.858-1.219,1.3-1.819.049-.067.186-.088.285-.1a2.674,2.674,0,0,1,.639,0c.523.089.7-.153.66-.659H54.423a3.229,3.229,0,0,1,1.841-2.552c.37-.148,0-.379.049-.566-.105-.011-.238-.066-.31-.023-.258.151-.495.337-.768.53-.049-.51-.08-1.009-.148-1.5a6.813,6.813,0,0,0-2.9-4.618A15.889,15.889,0,0,0,48.164,25.8c-.138-.052-.269-.121-.4-.182.008-.044.017-.089.026-.133.552.083,1.108.148,1.655.254s1.066.243,1.671.387l.016-.026a.154.154,0,0,0,.012-.025A6.711,6.711,0,0,0,48.392,23.9c-.465-.212-.963-.35-1.43-.56-.158-.071-.263-.256-.392-.389.134-.111.263-.226.4-.329a.312.312,0,0,1,.171-.058A14.013,14.013,0,0,1,52.191,23a3.75,3.75,0,0,1,1.537,1.232,21.319,21.319,0,0,1,3.565,5.1,9.172,9.172,0,0,1,.768,3.314.881.881,0,0,1-.2.5c-.341.457-.729.88-1.057,1.345-.293.418-.268.435.091.811l1.227-1.524.2.091c-.047.59-.082,1.181-.152,1.769-.013.1-.16.2-.253.289-.542.527-1.077,1.063-1.633,1.575-.338.31-.393.609-.091.921.458-.408.916-.84,1.4-1.237.274-.226.468-.183.405.234h-.021l.018.009a5.511,5.511,0,0,1-3.354,3.252c-.363.167-.512.332-.252.71l1.529-.789a2.359,2.359,0,0,1-1.072,1.678,5.643,5.643,0,0,1-2.758.924c-.3.038-.42.164-.379.414.013.075.231.143.364.167.265.048.536.064.837.1-.187.712-.771.945-1.32,1.216l-.006,0,0,0a9.117,9.117,0,0,1-3.149.175c-.475-.032-.111.375-.29.486.069.1.129.265.209.274.463.052.93.066,1.49.1a2.417,2.417,0,0,1-1.709.894,11.211,11.211,0,0,1-1.354-.011c-.5-.116-1-.238-1.506-.346-.12-.026-.341-.046-.359,0a.778.778,0,0,0-.052.475c.021.076.209.139.329.153.451.056.907.082,1.358.136a1.322,1.322,0,0,1,.477.139,1.523,1.523,0,0,1,.309.3c-.118.074-.228.2-.355.216-1.124.182-3.526-.438-4.276-1.815l-.023-.04c-.515-.918-.445-1.071.581-1.275M42.664,52.9a2.926,2.926,0,0,1,.891,3.94,6.378,6.378,0,0,1-3.047,2.7c-.623.3-1.287.513-1.88.744,0-1.42-.019-2.779.005-4.138.024-1.375.092-2.75.137-4.124.006-.172-.019-.337.25-.306A7.379,7.379,0,0,1,42.664,52.9M40.388,37.091H30.1c.254-.481.493-.959.765-1.421.049-.082.23-.124.349-.124q3.9.018,7.8.058a.5.5,0,0,1,.346.135c.331.407.639.833,1.028,1.351m-4.51-4.783h-.02V29.862c0-.163-.041-.324.242-.31q1.732.079,3.465.114c.256.006.331.07.309.336-.125,1.532-.242,3.064-.334,4.6-.021.344-.107.461-.472.455-.927-.018-1.857-.011-2.783.035-.374.018-.422-.113-.414-.427.019-.785.006-1.571.006-2.356m5.881-5.135H28.887c.427-.74.818-1.431,1.23-2.111a.442.442,0,0,1,.326-.161q4.52-.052,9.04-.075a.632.632,0,0,1,.409.21c.606.674,1.2,1.364,1.867,2.137M36.4,20.939c0-.054.116-.161.179-.162.865-.011,1.731-.007,2.59-.007a4.1,4.1,0,0,1-5.146,3.059c.387-.261.771-.491,1.121-.764A2.534,2.534,0,0,0,36.4,20.939m-.985.248a2.427,2.427,0,0,1-2.157,1.351A1.9,1.9,0,0,1,31.047,21.1c-.078-.285-.049-.4.3-.389.638.027,1.277.008,1.916.008s1.249.024,1.871-.008c.456-.024.442.162.286.471M68.2,3.676a8.2,8.2,0,0,1-3.058.979,22.823,22.823,0,0,1-6.586.375c-1.116-.114-2.219-.345-3.334-.491a2.211,2.211,0,0,0-.875.1.46.46,0,0,0-.252.373c.012.108.212.253.35.281,1.114.224,2.227.471,3.353.624a23.391,23.391,0,0,0,8.292-.436c.4-.088.464-.01.366.387a1.482,1.482,0,0,1-1.142,1.065,9.036,9.036,0,0,1-1.826.346,25.235,25.235,0,0,1-6.569-.584c-1.19-.233-2.358-.577-3.545-.831a1.335,1.335,0,0,0-.851.113c-.352.193-.281.589.112.688,1.586.4,3.161.888,4.773,1.139,1.841.287,3.716.357,5.569.52a1.171,1.171,0,0,1-1.117.943,12.653,12.653,0,0,1-2.45.054A46.175,46.175,0,0,1,52,7.73a1.2,1.2,0,0,0-.579-.065,2.384,2.384,0,0,0-.574.358c.129.165.224.416.392.479a13.2,13.2,0,0,0,1.905.6c2.079.449,4.163.864,6.249,1.276.351.069.405.166.183.447a1.493,1.493,0,0,1-1.193.558,9.612,9.612,0,0,1-3.372-.679c-1.483-.486-2.945-1.034-4.431-1.505a2.018,2.018,0,0,0-1.034.06c-.122.03-.247.314-.242.479,0,.112.213.267.36.319,1.786.628,3.58,1.236,5.365,1.867a.415.415,0,0,1,.2.349.624.624,0,0,1-.758.552,13.179,13.179,0,0,1-2.322-.586c-1.167-.461-2.281-1.054-3.432-1.558a1.588,1.588,0,0,0-.823-.076.518.518,0,0,0-.32.383c-.008.122.163.322.3.381,1.211.517,2.434,1.008,3.649,1.514a3.268,3.268,0,0,1,.449.278c-.176.223-.311.542-.542.644a1.145,1.145,0,0,1-.833-.051c-1.007-.454-1.992-.955-2.982-1.443a3.5,3.5,0,0,1-.513-.293c-.362-.266-.573-.3-.9.153a2.648,2.648,0,0,1-2.672.89,6.53,6.53,0,0,1-1.591-.5c-.27-.11-.375-.124-.527.17a2.71,2.71,0,0,1-2.922,1.7,7.951,7.951,0,0,1-1.146-.283c-.175-.048-.34-.126-.535-.2a1.889,1.889,0,0,0,.848,1.541c.866.65,1.787,1.23,2.624,1.8H29.794c1.431-1,3.1-1.566,3.868-3.3-.617.119-1.135.25-1.663.316a2.661,2.661,0,0,1-3.14-1.658c-.132-.264-.235-.182-.412-.112a4.97,4.97,0,0,1-2.8.421,3.235,3.235,0,0,1-1.807-.981c-.19-.2-.306-.207-.555-.07-1.193.657-2.391,1.309-3.617,1.9-.609.294-.9.156-1.2-.318-.136-.219-.119-.294.151-.411,1.177-.513,2.34-1.06,3.5-1.619.29-.14.672-.342.456-.752-.237-.451-.568-.131-.851,0A22.077,22.077,0,0,1,17,12.583a5.563,5.563,0,0,1-1.616.054,1.148,1.148,0,0,1-.907-.8,21.718,21.718,0,0,0,6.076-1.9c.338-.154.55-.335.4-.721-.124-.327-.4-.373-.849-.208-1.7.632-3.4,1.289-5.12,1.865A7.907,7.907,0,0,1,11.8,11.3a1.828,1.828,0,0,1-1.733-1.06,17.313,17.313,0,0,0,2.038-.13c1.778-.318,3.546-.688,5.312-1.06.563-.119,1.107-.322,1.666-.464.313-.079.529-.22.414-.56s-.39-.326-.681-.242c-1.265.369-2.522.774-3.8,1.088a16.25,16.25,0,0,1-5.144.574A8.424,8.424,0,0,1,7.819,8.93c-.267-.093-.461-.394-.688-.6.02-.046.039-.093.06-.141,1.1,0,2.206.054,3.3-.011A24.658,24.658,0,0,0,17.76,6.561c.145-.054.218-.294.324-.448-.2-.1-.419-.31-.59-.275-.921.188-1.827.448-2.744.662A30.625,30.625,0,0,1,7.644,7.542,8.941,8.941,0,0,1,5.5,7.207a2.235,2.235,0,0,1-1.654-1.83c.536.1,1.046.2,1.552.3A20.5,20.5,0,0,0,11.844,6c1.322-.156,2.625-.471,3.932-.744.145-.031.248-.253.37-.387-.2-.115-.45-.371-.606-.326a20.517,20.517,0,0,1-6.833.64A21.448,21.448,0,0,1,2.441,4.112,2.207,2.207,0,0,1,.883,2.3,1.118,1.118,0,0,1,.869,1.94c.042-.285.117-.418.446-.2A13.474,13.474,0,0,0,5.889,3.57a28.83,28.83,0,0,0,8.344.612,20.612,20.612,0,0,1,3.959.015,10.1,10.1,0,0,1,7.122,3.938,2.854,2.854,0,0,1,.561,1.784c-.01.682-.482,1.119-1.25,1.283a2.218,2.218,0,0,0-.572.326c.173.169.32.441.521.488a6.075,6.075,0,0,0,3.675-.112,1.834,1.834,0,0,0,1.134-1.428,5.523,5.523,0,0,1,3.374-4.307,6.46,6.46,0,0,1,7.1,1.888,3.85,3.85,0,0,1,.668,1.505,2.714,2.714,0,0,0,2.748,2.517,17.439,17.439,0,0,0,2.412-.093.539.539,0,0,0,.39-.338.537.537,0,0,0-.295-.422c-1.155-.4-1.454-.994-1.027-2.155a5.8,5.8,0,0,1,2.252-2.782,12.77,12.77,0,0,1,8.517-2.3,26.393,26.393,0,0,0,10.17-.8,28.962,28.962,0,0,0,3.1-1.374c.1-.047.2-.111.335-.186A1.965,1.965,0,0,1,68.2,3.676" transform="translate(0 0)" fill="#1e1a18"/><path d="M354.455,302.835a1.853,1.853,0,0,0-1.9-.109c-.529.281-1.025.624-1.538.94,0-.055,0-.129-.009-.2a.921.921,0,0,0-1.567-.672c-.394.271-.8.522-1.219.79-.216-.739-.543-1.007-1.25-1a8.266,8.266,0,0,0-1.226.1,12.778,12.778,0,0,0-6.726,3.257,9.424,9.424,0,0,0-2.966,4.424l-.115.415c-.209-.251-.342-.557-.56-.638-.325-.119-.247-.254-.158-.453.609-1.359,1.227-2.715,1.821-4.08a9.19,9.19,0,0,0,.607-1.644,1.128,1.128,0,0,0-1.323-1.423,3.663,3.663,0,0,0-1.281.421c-.614.343-1.176.778-1.779,1.186,0-.13,0-.248,0-.366a1.19,1.19,0,0,0-1.4-1.232,4.07,4.07,0,0,0-1.291.391,15.755,15.755,0,0,0-1.487.97,1.666,1.666,0,0,0,.037-.429c-.056-.325.045-.7-.352-.917a1.1,1.1,0,0,0-1.223.035c-.777.464-1.607.839-2.408,1.266a.819.819,0,0,0-.372.35,1.194,1.194,0,0,0,.594,1.24c.368.117.4.273.258.6-.843,2-1.66,4.008-2.5,6.007a.655.655,0,0,0,.144.815c.264.26.5.522.943.325a8.333,8.333,0,0,1,1.156-.409,1.052,1.052,0,0,0,.686-.652c.64-1.313,1.275-2.632,1.992-3.9a21.319,21.319,0,0,1,1.458-2.025.552.552,0,0,1-.018.4c-.7,1.825-1.4,3.653-2.118,5.475a.738.738,0,0,0,.244.915.764.764,0,0,0,.942.182,9.475,9.475,0,0,1,1.182-.461.875.875,0,0,0,.619-.59c.273-.733.567-1.461.9-2.169a11.256,11.256,0,0,1,2.084-3.093,1.185,1.185,0,0,1-.1.332,18.443,18.443,0,0,0-1.522,4.856c-.137,1.033.444,1.488,1.421,1.078.942-.4,1.848-.877,2.753-1.313.165,1.057.7,1.627,1.635,1.514a5.671,5.671,0,0,0,1.712-.555,14.451,14.451,0,0,0,1.559-.989c-.019.2-.036.368-.049.531a.873.873,0,0,0,1,.933,8.835,8.835,0,0,0,3.542-1.574.752.752,0,0,0,.274-.443c.053-.414-.744-1.214-1.214-1.226.193-.45.351-.9.577-1.322a.732.732,0,0,0-.165-1.039c-.2-.163-.156-.315-.117-.537a11.8,11.8,0,0,0,.178-1.729c.005-.2.014-.278.211-.279.32,0,.639-.008.959,0,.364,0,.729-.008.872.451a.439.439,0,0,0,.31.241c.543.059.467.352.307.7-.044.095-.065.2-.1.3-.655,1.795-1.3,3.59-1.972,5.379a.667.667,0,0,0,.2.8c.25.24.475.448.873.3a7.2,7.2,0,0,1,1.1-.292.752.752,0,0,0,.625-.572c.189-.619.4-1.231.616-1.843a11.947,11.947,0,0,1,2.4-4.417,2.106,2.106,0,0,1,2.271-.865c.388.12.6-.073.722-.418.163-.468.317-.938.494-1.4a.464.464,0,0,0-.25-.636m-11.977,3.012a9.548,9.548,0,0,1-3.712,4.931c.211-2.4,1.837-3.757,3.712-4.931" transform="translate(-264.751 -248.252)" fill="#000102"/><path d="M284.918,276.309c-.334-.23-.663-.431-1.083-.161a3.566,3.566,0,0,1-.62.279c-.822.327-1.647.648-2.554,1,.313-.733.582-1.354.844-1.977a18.027,18.027,0,0,0,1.319-4.115.907.907,0,0,0-1.2-1q-1.452.579-2.888,1.192a.733.733,0,0,0-.369.353,1.228,1.228,0,0,0,.985,1.453c-.381.913-.766,1.812-1.132,2.718-1,2.472-2.018,4.937-2.972,7.426a5.958,5.958,0,0,0-.343,1.945,1.368,1.368,0,0,0,1.874,1.442,10.283,10.283,0,0,0,1.906-1.022,6.122,6.122,0,0,0,.6-.459c-.025.205-.037.31-.05.413-.118.893.5,1.41,1.33,1.077.9-.359,1.784-.759,2.665-1.161a.753.753,0,0,0,.366-.367c.173-.439-.473-1.394-1.008-1.461.409-.926.81-1.82,1.2-2.718a16.489,16.489,0,0,0,1.377-4.005.759.759,0,0,0-.253-.852m-6.9,7.452q1.187-2.908,2.373-5.817l.128-.006a1.146,1.146,0,0,0,1.077,1.16.536.536,0,0,1,.007.3c-.505,1.156-1.024,2.307-1.531,3.464-.174.394-.325.8-.5,1.23a1.226,1.226,0,0,0-1.555-.328" transform="translate(-225.308 -221.885)" fill="#000102"/><path d="M138.766,459.1a17.469,17.469,0,0,1-.216-1.785c-.035-.481.008-.969-.019-1.451-.071-1.263-.6-2.025-1.679-2.232a8.811,8.811,0,0,0-2.219-.108,2.671,2.671,0,0,0-1.853.872,1.334,1.334,0,0,0,.258,2.195,2.045,2.045,0,0,0-1,1.76,4.171,4.171,0,0,0-.646.055c-.275.068-.343-.02-.339-.283.01-.681.013-1.362-.016-2.042-.015-.33.03-.5.421-.55a.888.888,0,0,0,.814-.844c.038-.41-.2-.951-.579-.971-.734-.038-.676-.477-.653-.961a1.592,1.592,0,0,0-.065-.445,1.166,1.166,0,0,0-1.207-.895,1.132,1.132,0,0,0-1.1.969,5.48,5.48,0,0,0-.048.9c0,.211-.009.34-.272.421a.861.861,0,0,0-.61.869.87.87,0,0,0,.568.9c.273.1.316.247.316.5,0,.968,0,1.935.049,2.9a1.558,1.558,0,0,0,.771,1.356,3.062,3.062,0,0,0,3.092-.257.233.233,0,0,1,.219-.02,3.046,3.046,0,0,0,3.395.143c.3-.148.456-.2.7.083a1.089,1.089,0,0,0,1.376.189,1.1,1.1,0,0,0,.537-1.269m-2.714-1.208c-.053.391-.492.687-1.168.7l-.362-.288c.137-.131.253-.314.418-.378a4.482,4.482,0,0,1,.925-.22c.054-.009.2.133.188.191m-.024-2.222a.939.939,0,0,1-.242.182,6.3,6.3,0,0,1-.659.167c-.276.059-.554.106-.847.161.452-.83.72-.719,1.475-.7.093,0,.183.121.274.186" transform="translate(-104.692 -370.59)" fill="#000102"/><path d="M251.5,280.756a11.885,11.885,0,0,1-4.349,5.314,5.3,5.3,0,0,0-.438.386l-1.343-1.607c.65-.354,1.346-.686,1.992-1.093a7.94,7.94,0,0,0,3.725-5.1,6.9,6.9,0,0,0-2.555-7.247c-.138-.113-.267-.236-.451-.4l1.338-.545a10.946,10.946,0,0,1,2.563,4.88,8.943,8.943,0,0,1-.483,5.408" transform="translate(-201.098 -222.043)" fill="#0f33a2"/><path d="M118.9,284.432c-.295.3-.573.623-.858.935a11.789,11.789,0,0,1-3.04-3.2,9.527,9.527,0,0,1-1.625-5.414,9.923,9.923,0,0,1,2.264-6.117c.178-.225.367-.442.55-.663.923.451.9.43.207,1.176a7.331,7.331,0,0,0-1.973,4.086,8.456,8.456,0,0,0,2.462,7.089,19.391,19.391,0,0,0,1.97,1.739c.179.148.2.213.045.372" transform="translate(-92.922 -221.635)" fill="#1033a1"/><path d="M8.771,454.953a9.909,9.909,0,0,0,.315,1.462,1.435,1.435,0,0,0,1.511.94,1.46,1.46,0,0,0,1.412-.954c.065-.152.123-.308.2-.456a1.176,1.176,0,0,1,2.237.643,3.251,3.251,0,0,1-2.065,2.67A4.255,4.255,0,0,1,6.3,455.839a5.2,5.2,0,0,1,.873-3.955,4.356,4.356,0,0,1,6.9.181,1.767,1.767,0,0,1,.307,1.414,1.077,1.077,0,0,1-.879.87,1.115,1.115,0,0,1-1.232-.488c-.115-.177-.223-.359-.327-.543a1.472,1.472,0,0,0-1.561-.78,1.392,1.392,0,0,0-1.238.927,12.44,12.44,0,0,0-.373,1.487" transform="translate(-5.11 -369.66)" fill="#000102"/><path d="M92.386,466.322c0-.741-.01-1.481,0-2.222a1.129,1.129,0,0,1,.695-1.167,1.224,1.224,0,0,1,1.351.266c.067.063.283.039.39-.02a2.819,2.819,0,0,1,3.257.375,2.378,2.378,0,0,1,.642,1.694c.015,1.118.022,2.237,0,3.355a1.182,1.182,0,0,1-1.527,1.249,1.206,1.206,0,0,1-.889-1.268c-.012-.906-.01-1.813-.015-2.72a.822.822,0,0,0-.008-.226c-.083-.279.019-.677-.464-.706a.823.823,0,0,0-.9.6,2.45,2.45,0,0,0-.074.626c-.013.816,0,1.632-.022,2.448a1.218,1.218,0,1,1-2.431-.017c-.01-.756,0-1.511,0-2.267Z" transform="translate(-75.715 -379.966)" fill="#010102"/><path d="M325.587,468.56a17.721,17.721,0,0,1-.211-1.783c-.034-.467.007-.938-.015-1.405a2.144,2.144,0,0,0-2.03-2.354,6.6,6.6,0,0,0-1.905-.033,2.6,2.6,0,0,0-2.025,1.146,1.227,1.227,0,0,0,.466,1.9c-.129.107-.224.181-.314.261a1.966,1.966,0,0,0-.632,1.969,2.009,2.009,0,0,0,1.463,1.58,3.21,3.21,0,0,0,2.593-.285c.288-.16.456-.2.7.081a1.132,1.132,0,0,0,1.907-1.074m-3.812-1.188a3.914,3.914,0,0,1,.795-.183,1.978,1.978,0,0,1,.329-.008,1.773,1.773,0,0,1-.083.345c-.155.332-.5.513-1.116.517-.049-.042-.2-.169-.353-.3a1.748,1.748,0,0,1,.428-.374m1.091-2.225a.892.892,0,0,1-.223.157,6.462,6.462,0,0,1-.654.169c-.289.061-.582.109-.885.164.445-.828.721-.724,1.5-.694.089,0,.173.133.258.2" transform="translate(-261.336 -380.048)" fill="#000102"/><path d="M286.074,455.337c0-1.269.007-2.538,0-3.807a1.136,1.136,0,0,0-1.022-1.23,1.079,1.079,0,0,0-1.277.989,14.726,14.726,0,0,0-.089,1.619c-.085-.034-.154-.06-.221-.089a2.942,2.942,0,0,0-3.886,1.326,4.362,4.362,0,0,0-.346,2.563c.306,2.43,2.272,3.489,4.5,2.463a.305.305,0,0,1,.277.043,1.19,1.19,0,0,0,2.067-.933c0-.981,0-1.964,0-2.945M283.33,455a2.226,2.226,0,0,1,.058,2.107.865.865,0,0,1-1.5-.036,4.958,4.958,0,0,1-.294-1.024,5.284,5.284,0,0,1,.281-.963A.831.831,0,0,1,283.33,455" transform="translate(-228.809 -369.67)" fill="#000001"/><path d="M196.59,455.633a2.971,2.971,0,0,0-2.016-2.892,3.175,3.175,0,0,0-2.5.22c0-.5.011-.965,0-1.428a1.133,1.133,0,0,0-1.189-1.207c-.733.005-1.166.506-1.17,1.373-.006,1.329,0,2.659,0,3.989,0,.906-.011,1.813,0,2.719a1.13,1.13,0,0,0,.692,1.127,1.22,1.22,0,0,0,1.352-.252.387.387,0,0,1,.353-.024,2.92,2.92,0,0,0,3.841-.856,4.106,4.106,0,0,0,.635-2.768m-3.461,1.909a.872.872,0,0,1-.835-.594,2.2,2.2,0,0,1,.03-1.674.893.893,0,0,1,.911-.612.838.838,0,0,1,.8.682,5.188,5.188,0,0,1,.135.812,4.568,4.568,0,0,1-.189.825.83.83,0,0,1-.849.56" transform="translate(-155.48 -369.699)" fill="#010102"/><path d="M402.925,467.15a.212.212,0,0,1-.007-.209,1.479,1.479,0,0,0,.4-1.5,3.037,3.037,0,0,0-3.241-2.561,6.022,6.022,0,0,0-.726.053,2.978,2.978,0,0,0-2.513,2.194,3.723,3.723,0,0,0,.752,3.832,3.666,3.666,0,0,0,3.545.867,2.7,2.7,0,0,0,1.894-1.2,1.094,1.094,0,0,0-.1-1.476m-2.322-1.687c-.438-.007-.877,0-1.365,0,.166-.378.373-.626.74-.562a1.991,1.991,0,0,1,.745.31c.159.107.136.258-.12.254m.9,1.8c-1.05,1-1.962.983-2.278,0Z" transform="translate(-325.064 -380.009)" fill="#000102"/><path d="M363.654,456.233c0-1.526,0-3.052,0-4.578,0-.831-.431-1.321-1.153-1.331s-1.176.472-1.206,1.293c-.016.434,0,.868,0,1.336-.146-.066-.251-.121-.361-.163a2.94,2.94,0,0,0-3.911,1.7,4.759,4.759,0,0,0-.07,2.847,2.872,2.872,0,0,0,4.308,1.881.349.349,0,0,1,.324.013,1.178,1.178,0,0,0,1.418.278,1.2,1.2,0,0,0,.659-1.238c-.005-.68,0-1.36,0-2.039m-4.413-.114-.058-.015a4.913,4.913,0,0,1,.27-.981.831.831,0,0,1,1.476-.058,2.081,2.081,0,0,1,.212,1.658.922.922,0,0,1-.979.824,1,1,0,0,1-.894-.93c-.025-.163-.019-.331-.027-.5" transform="translate(-292.395 -369.698)" fill="#000001"/><path d="M264.02,456.453c0-.741-.039-1.484.017-2.22a2.025,2.025,0,0,1,.383-.968c.147-.206.174-.26-.024-.427a1.18,1.18,0,0,1,.832-2.062,1.142,1.142,0,0,1,1.121.7,1.229,1.229,0,0,1-.3,1.369c-.178.158-.211.205-.028.421a1.611,1.611,0,0,1,.388.918c.039,1.525.026,3.052.014,4.578a1.2,1.2,0,1,1-2.394.006c-.018-.77,0-1.541,0-2.312" transform="translate(-216.37 -370.069)" fill="#000102"/><path d="M230.48,452.886a1.175,1.175,0,0,1-.167-1.792,1.268,1.268,0,0,1,1.763-.042,1.208,1.208,0,0,1-.049,1.741c-.174.158-.215.2-.03.418a1.607,1.607,0,0,1,.39.918c.039,1.51.026,3.022.013,4.533a1.2,1.2,0,1,1-2.4.008c-.016-1.511-.035-3.023.016-4.533a4.528,4.528,0,0,1,.46-1.252" transform="translate(-188.478 -370.019)" fill="#000102"/><path d="M56.2,462.929a3.253,3.253,0,0,0-3.494,3.484,3.483,3.483,0,1,0,3.494-3.484m-.9,4.37a6.126,6.126,0,0,1-.184-.892c.071-.279.128-.6.238-.908a.778.778,0,0,1,.778-.517.848.848,0,0,1,.863.474,2.229,2.229,0,0,1,.045,1.88.866.866,0,0,1-.882.585.876.876,0,0,1-.857-.623" transform="translate(-43.199 -380.046)" fill="#010102"/><path d="M249.238,454.951c0,1.148.018,2.3-.007,3.444a1.2,1.2,0,1,1-2.392-.1c-.011-1.133,0-2.266,0-3.4s-.013-2.266.006-3.4a1.2,1.2,0,1,1,2.4.059c.006,1.133,0,2.266,0,3.4" transform="translate(-202.296 -369.647)" fill="#000103"/><path d="M325.529,287.474a1.513,1.513,0,0,1-1.505,1.5,1.214,1.214,0,0,1-1.291-1.276,1.568,1.568,0,0,1,1.542-1.533,1.2,1.2,0,0,1,1.254,1.307" transform="translate(-264.504 -234.932)" fill="#010203"/><path d="M220.42,244.617c-.858.209-1.715.42-2.576.614-.03.007-.15-.161-.144-.241.033-.372.1-.741.148-1.112h0l2.572.741" transform="translate(-178.421 -200.212)" fill="#0f33a2"/><path d="M242.575,121.376l1.085,2.22a1.8,1.8,0,0,1-1.783-.851c.048-.024.072-.048.1-.047.594.016.579.019.5-.542a5.444,5.444,0,0,1-.007-.8l.113.02" transform="translate(-198.236 -99.628)" fill="#1e1b19"/><path d="M144.4,122.631c-.25.622-.8.892-1.722.848l1.051-2.179.1-.012a2.654,2.654,0,0,1-.018.887c-.166.439,0,.5.366.457a2.01,2.01,0,0,1,.223,0" transform="translate(-116.933 -99.573)" fill="#1c1917"/><path d="M161.758,244.805c-.261-.038-.518-.1-.777-.15.508-.172,1.018-.329,1.516-.525.127-.051.207-.221.309-.337,0,.058.008.114.013.166.093,1.206.1,1.015-1.061.845" transform="translate(-131.936 -200.145)" fill="#1033a1"/><path d="M286.246,134.1a.82.82,0,1,1,.012-1.64.816.816,0,0,1,.832.823.829.829,0,0,1-.844.817" transform="translate(-233.932 -108.747)" fill="#af9090"/><path d="M287.091,133.287a.829.829,0,0,1-.844.817.82.82,0,1,1,.012-1.64.816.816,0,0,1,.833.823" transform="translate(-233.933 -108.747)" fill="#fefefe"/><path d="M321.319,209.019l0,.008-.018-.009h.021" transform="translate(-263.328 -171.595)" fill="#fefefe"/><path d="M102.67,134.327a.832.832,0,0,1-.86.8.871.871,0,0,1-.846-.828.938.938,0,0,1,.871-.816.921.921,0,0,1,.835.84" transform="translate(-82.747 -109.587)" fill="#fefefe"/><path d="M137.038,259.633a9.2,9.2,0,0,1-.971.628l.971-.628" transform="translate(-111.517 -213.148)" fill="#fefefe"/><path d="M145.405,290.285a1.349,1.349,0,0,1-.492.072c-.341-.044-.324.143-.283.367h0l-.853.358-.315-.459a3.34,3.34,0,0,0-.259.26,2.746,2.746,0,0,1-.475.594.736.736,0,0,1-.611.055.626.626,0,0,1-.275-.485,9.576,9.576,0,0,1,.105-1.26c.051-.437-.356-.136-.472-.3-.069.084-.188.162-.2.251-.028.27.006.546-.019.815a.636.636,0,0,1-.736.622c-.272-.033-.44-.139-.438-.46,0-.421-.058-.842-.07-1.263-.01-.332-.25-.361-.472-.335-.073.009-.149.227-.173.358a2.738,2.738,0,0,0-.007.5c0,.356-.113.631-.52.671-.384.038-.665-.044-.774-.5-.123-.511-.349-1-.5-1.5-.114-.393-.342-.153-.529-.122-.212.035-.378.1-.252.386.171.386.305.787.473,1.175.1.226.033.289-.2.3a2.016,2.016,0,0,1-1.678-.86,8.8,8.8,0,0,1-.933-1.443c-.189-.365-.428-.212-.64-.129-.058.024-.077.317-.016.438.263.523.563,1.029.847,1.537a2.471,2.471,0,0,1-2.687-1.587,5.612,5.612,0,0,1-.187-1.109c-.043-.544-.447-.262-.692-.314-.324-.068-.3.16-.247.362.128.508.248,1.02.407,1.52.077.24.069.294-.2.238a4.342,4.342,0,0,1-3.766-3.337c-.107-.481-.5-.133-.842-.272l.495,1.493a2.049,2.049,0,0,1-1.459-1.851c0-.559-.014-1.119,0-1.679,0-.277-.032-.485-.379-.476-.363.01-.178.285-.185.426-.026.539-.01,1.08-.01,1.639a1.782,1.782,0,0,1-1.021-2.216c.251-.657.6-1.277.891-1.922a.3.3,0,0,0-.075-.279c-.524-.349-.589-.339-.859.229a13.73,13.73,0,0,1-.7,1.439c-.1-.556-.249-1.107-.3-1.667a6.092,6.092,0,0,1,.078-1.26c.04-.348.457-.586,1.046-.632.152-.012.3-.006.456-.016.321-.02.337-.238.316-.484-.026-.3-.22-.217-.4-.18-.3.063-.6.109-.89.182-.215.055-.269.013-.232-.215a1.77,1.77,0,0,1,2.114-1.5,1.376,1.376,0,0,0,.451.044c.1-.017.259-.124.269-.207s-.109-.285-.181-.29c-.434-.027-.871-.014-1.306-.014a1.8,1.8,0,0,1,1.127-1.368.687.687,0,0,1,.43.07,10.594,10.594,0,0,0,4.365.989,4.3,4.3,0,0,1,1.072.183.633.633,0,0,1,.371.391c.023.093-.183.294-.327.364a1.291,1.291,0,0,1-1.485-.055,8,8,0,0,0-1.439-.67c-.288-.133-.4.071-.469.266-.018.05.151.188.254.256a8.912,8.912,0,0,1,1.023.663c.386.341.26.734-.23.867a2.781,2.781,0,0,1-1.881-.351c-.165-.072-.317-.17-.486-.262-.392.879.593.948.821,1.466-.625,0-1.252.007-1.879,0-.18,0-.4-.1-.366.205.027.222-.2.6.307.589.32-.006.64-.006.96,0a.857.857,0,0,1,.209.061.812.812,0,0,1-.1.226c-.371.439-.757.867-1.122,1.311a.836.836,0,0,0-.236.462c.006.363.276.484.611.317.04-.021.084-.035.124-.056.875-.464.888-.467,1.18.462a.831.831,0,0,1-.1.572c-.2.37-.469.706-.674,1.076a.4.4,0,0,0,.047.389c.15.113.327.381.565.083a7.864,7.864,0,0,1,.6-.681c.09-.087.3-.193.347-.155a.7.7,0,0,1,.305.425c.027.679,0,1.36,0,2.041,0,.18-.037.389.263.348.221-.03.468,0,.481-.343.016-.42.065-.841.092-1.262.016-.221.077-.323.3-.16.1.071.211.119.315.182.608.375.6.373.263.986-.038.068-.025.242.015.261.193.092.38.359.62.05.21-.271.411-.566.853-.428.283.089.51.165.47.535-.027.244.046.44.374.438.291,0,.485-.056.434-.4-.036-.24.073-.294.286-.225a.919.919,0,0,0,.135.016c.67.122.694.124.662.8-.018.39.116.5.489.465.25-.026.381-.13.343-.37-.081-.517.155-.6.589-.467a.75.75,0,0,0,.182.015c.765.05.78.05.777.781,0,.3.105.381.4.389s.357-.1.361-.367c.01-.584.024-.584.617-.536.046,0,.091,0,.137,0,.61.016.631.017.6.648-.017.335.14.37.406.368.246,0,.472.017.428-.338a.745.745,0,0,1,.008-.358.321.321,0,0,1,.248-.171c.36.054.711.155,1.069.216.3.051.371.143.162.4a.575.575,0,0,0-.089.383c.192.1.429.242.579-.066.234-.482.568-.488.988-.24a6,6,0,0,0,.739.356c.257.108.244.228.044.378a1.231,1.231,0,0,0-.285.221c-.074.105-.17.28-.13.363.1.2.246.3.511.144.307-.174.626-.6,1.01-.3a12.841,12.841,0,0,1,1.307,1.289.277.277,0,0,1-.116.159" transform="translate(-100.653 -225.445)" fill="#0f33a2"/><path d="M225.975,267.77c-.46-.06-.918-.135-1.38-.172-.171-.014-.456-.2-.488.184-.024.288.045.484.4.523a12.088,12.088,0,0,1,1.473.267c.119.028.293.2.29.3-.035.961-.1,1.92-.163,2.88a.475.475,0,0,1-.071.213c-.083.132-.18.255-.272.382a4.3,4.3,0,0,1-.212-.382c-.27-.623-.554-1.242-.792-1.878-.177-.473-.412-.092-.612-.069-.3.033-.163.213-.094.36.392.834.789,1.666,1.169,2.5a.724.724,0,0,1,.068.461,3.656,3.656,0,0,1-1.3,1.761c0-.766.011-1.407,0-2.046-.009-.426-.141-.513-.495-.336a.36.36,0,0,0-.133.288,3.662,3.662,0,0,1-.56,2.637,11.352,11.352,0,0,1-1.042,1.008l-.09-.09c.13-.347.236-.706.4-1.038.211-.438.053-.647-.386-.733-.191.471-.373.947-.577,1.415a3.226,3.226,0,0,1-.339.588c-.384.534-.428.494-1.016.214-.915-.436-1.864-.8-2.8-1.193-.095-.04-.193-.072-.367-.136a11.066,11.066,0,0,0,1.053-.457c.474-.267.923-.578,1.384-.867.084-.052.176-.09.265-.135.02.1.049.2.06.3.037.344.046.693.114,1.031a.455.455,0,0,0,.3.262c.2.049.34-.034.329-.293a5.445,5.445,0,0,1,.014-1.344,3.924,3.924,0,0,1,.543-1.111c.033-.055.3-.053.382.014.278.234.51.521.784.759a.394.394,0,0,0,.357.042c.168-.09.261-.231.073-.433a12.607,12.607,0,0,1-.874-1.042.527.527,0,0,1-.049-.4c.085-.3.225-.59.32-.89.068-.218.135-.242.34-.115.384.239.8.422,1.193.651.3.174.428-.018.512-.227.021-.054-.147-.235-.26-.28a2.253,2.253,0,0,1-1.541-1.423c-.154-.529-.106-.606.439-.607a5.4,5.4,0,0,1,.731.008c.421.057.467-.181.4-.481a.348.348,0,0,0-.275-.2,4.842,4.842,0,0,1-2.2-.263c-.163-.06-.278-.246-.414-.374a1.92,1.92,0,0,1,.471-.376,4.349,4.349,0,0,1,.761-.129c.121-.021.341-.065.341-.1a1.021,1.021,0,0,0-.112-.472c-.023-.042-.21-.007-.32.008-.66.09-1.317.207-1.979.264-.174.015-.363-.15-.546-.233.12-.159.209-.372.368-.465a12.23,12.23,0,0,1,1.121-.523,2.432,2.432,0,0,1-.213-.287c-.172-.317-.348-.286-.658-.128a18.3,18.3,0,0,1-1.994.834.5.5,0,0,1-.463-.144c-.059-.108.028-.346.124-.473a3.639,3.639,0,0,1,.606-.606c.23-.186.129-.307-.018-.475s-.254-.145-.429,0c-.433.351-.891.672-1.349.991-.219.152-.338.074-.32-.195.071-1.084.14-2.167.215-3.25,0-.052.053-.1.1-.183a4,4,0,0,0,.308.82c.045.07.333-.011.51-.023-.131-.783-.023-.937.744-.889.563.035,1.12.17,1.679.26l.02.144c-.381.2-.77.387-1.137.61-.114.069-.26.284-.226.355.084.175.186.4.505.207a8.448,8.448,0,0,1,1.4-.653.958.958,0,0,1,.655.039c.482.216.937.49,1.494.791l-1.726.593c.153.479.426.554.856.365a11.405,11.405,0,0,1,1.332-.468.6.6,0,0,1,.463.023c.451.355.883.736,1.3,1.132.209.2.026.238-.152.239-.411,0-.823,0-1.234,0-.205,0-.377.018-.333.289.036.225-.027.515.351.514.548,0,1.1.028,1.645,0a.693.693,0,0,1,.687.338c.228.365.431.745.645,1.119l-.082.111" transform="translate(-176.991 -214.893)" fill="#0f33a2"/><path d="M138.878,256.553c-.887.015-1.778-.094-2.667-.165-.088-.006-.167-.109-.264-.175,1.549-.8,1.6-.861,1.3-1.294a3.929,3.929,0,0,1-1.072.461,9.509,9.509,0,0,1-3.688-.378c-.135-.041-.237-.193-.354-.294a1.25,1.25,0,0,1,.381-.194c.421-.05.846-.08,1.271-.089.637-.014.637,0,.547-.664l-1.489.361a9.177,9.177,0,0,0,.971-.628,11.141,11.141,0,0,1,1.158-.761l.1-.051.815-.527.935.258c-.147.239-.286.483-.444.715-.119.173-.262.329-.393.492.617.333.62.338,1.177-.077a5.932,5.932,0,0,0,.547-.476,1.329,1.329,0,0,1,1.462-.264.349.349,0,0,1,.134.247c.1.882.2,1.763.27,2.647.041.552-.154.848-.7.857" transform="translate(-108.296 -207.009)" fill="#1033a1"/><path d="M137.038,259.633a9.2,9.2,0,0,1-.971.628l.971-.628" transform="translate(-111.517 -213.148)" fill="#0f33a2"/><path d="M239.749,253.8c-.118.074-.228.2-.355.216-1.123.182-3.526-.438-4.276-1.816l-.023-.04c-.515-.918-.445-1.071.581-1.275l.266-.054.117.071h0c.816.493,1.636.979,2.444,1.484a4.161,4.161,0,0,1,.524.418c.055.048.109.1.165.141-.5-.116-1-.238-1.506-.346-.12-.026-.341-.046-.359,0a.777.777,0,0,0-.052.475c.021.076.209.139.329.153.451.056.906.082,1.358.136a1.319,1.319,0,0,1,.477.139,1.518,1.518,0,0,1,.309.3" transform="translate(-192.421 -205.919)" fill="#0f33a2"/><path d="M220.892,254.5c-.845-.088-1.744-.177-2.641-.286a.3.3,0,0,1-.18-.234c.005-.127.071-.344.146-.36.68-.145,1.367-.262,2.055-.365.068-.01.2.113.232.2.147.355.269.719.387,1.044" transform="translate(-178.726 -207.91)" fill="#1033a1"/><path d="M210.957,368.583c-.516.135-1.028.293-1.55.4-.457.094-.927.133-1.39.2.027-.344.041-.69.092-1.03a.3.3,0,0,1,.241-.169c.871.189,1.738.4,2.606.6" transform="translate(-170.485 -302.097)" fill="#1033a1"/><path d="M170.212,368.641l-2.807-.634c.854-.17,1.708-.346,2.565-.5.066-.011.224.144.232.232a8.916,8.916,0,0,1,.009.9" transform="translate(-137.201 -301.709)" fill="#1033a1"/><path d="M334.63,307.42c.572-.486,1.15-1.052,1.8-1.509a8.188,8.188,0,0,1,1.8-.933,1.171,1.171,0,0,1,.915.175.74.74,0,0,1,.133.956c-.527,1.205-1.073,2.4-1.595,3.609-.366.846-.707,1.7-1.054,2.557-.06.148-.09.308-.149.516a2.516,2.516,0,0,0,.307-.093c.49-.234.751-.122.906.418a.314.314,0,0,1-.114.279c-.915.473-1.829.948-2.763,1.381-.336.156-.631-.18-.58-.587a17.927,17.927,0,0,1,1.575-4.992c.316-.715.657-1.419.987-2.127l-.09-.085c-.565.533-1.168,1.032-1.687,1.606a14.934,14.934,0,0,0-2.912,5.14.769.769,0,0,1-.593.589,4.4,4.4,0,0,0-.809.3c-.254.114-.465.23-.736-.022-.295-.274-.045-.476.032-.683.733-1.968,1.485-3.928,2.22-5.895.123-.33.188-.682.28-1.024l-.113-.076c-.319.289-.657.56-.954.869a18.765,18.765,0,0,0-3.633,5.98.9.9,0,0,1-.641.623,7.467,7.467,0,0,0-.773.273c-.232.087-.431.163-.657-.07s-.088-.411-.005-.611c.754-1.815,1.517-3.626,2.262-5.444.2-.483.339-.988.543-1.589-.255.072-.375.111-.5.14-.369.085-.868-.413-.748-.757.022-.064.134-.1.209-.143.831-.44,1.668-.872,2.494-1.32.406-.221.8-.052.785.4a10.234,10.234,0,0,1-.219,1.378c-.032.174-.091.344-.167.626.586-.526,1.072-.989,1.588-1.417a3.851,3.851,0,0,1,1.944-.939c.583-.079,1.027.245.984.822a16.859,16.859,0,0,1-.28,1.675" transform="translate(-266.865 -250.21)" fill="#0f33a2"/><path d="M413.709,305.43a1.53,1.53,0,0,0-.651.177,9.9,9.9,0,0,0-1.182.765c-.4.3-.753.653-1.159,1.011.06-.5.137-.931.152-1.364a.578.578,0,0,0-.225-.462.7.7,0,0,0-.555.057c-.717.413-1.414.859-2.119,1.293A.675.675,0,0,1,408,306.5c.2-.663-.042-1-.737-.984a8.882,8.882,0,0,0-1.406.129,12.507,12.507,0,0,0-7.358,4.3,6.9,6.9,0,0,0-1.849,4c-.079,1.058.584,1.7,1.6,1.38a7.875,7.875,0,0,0,1.863-.921c.651-.419,1.235-.943,1.848-1.422-.144.58-.3,1.143-.42,1.716-.091.445.2.734.621.576a29.724,29.724,0,0,0,2.76-1.161c.622-.307.578-.356.2-.915-.16-.235-.286-.251-.508-.1a7.554,7.554,0,0,1-.707.366,3.244,3.244,0,0,1,.09-.4q.427-1.048.864-2.093a.466.466,0,0,0-.337-.667,1.682,1.682,0,0,0-.312,0,1.071,1.071,0,0,1,.049-.173,2.864,2.864,0,0,0,.3-2.681c-.017-.036.107-.2.175-.2a8.432,8.432,0,0,1,1.454-.091c.515.037,1.167-.121,1.373.635a.324.324,0,0,0,.263.151,7.511,7.511,0,0,0,.795-.129c-.241.77-.444,1.509-.7,2.228-.546,1.52-1.13,3.026-1.675,4.547a.9.9,0,0,0,.047.6c.122.281.373.162.593.1a5.48,5.48,0,0,1,.705-.181.687.687,0,0,0,.616-.548q.478-1.487,1.037-2.948A9.267,9.267,0,0,1,411.7,307.9a2.061,2.061,0,0,1,1.559-.639c.824.074.822.093,1.1-.673.026-.071.054-.141.079-.212.237-.678.013-.981-.734-.949m-10.9,2.909a9.548,9.548,0,0,1-3.712,4.931c.211-2.4,1.837-3.757,3.712-4.931" transform="translate(-325.081 -250.744)" fill="#0f33a2"/><path d="M282.007,274.62a3.552,3.552,0,0,0-.55.154c-.332.165-.454.083-.612-.271-.212-.475-.008-.592.366-.733.767-.29,1.526-.6,2.282-.919.242-.1.5-.263.685.011a.887.887,0,0,1,.128.645,24.916,24.916,0,0,1-.866,2.8c-1.119,2.756-2.3,5.486-3.439,8.236-.252.611-.408,1.261-.6,1.9a.878.878,0,0,0,0,.254.772.772,0,0,0,.252-.049c.234-.139.457-.3.686-.446a.619.619,0,0,1,.963.39.246.246,0,0,1-.072.194,6.607,6.607,0,0,1-2.619,1.675.984.984,0,0,1-1.3-1.014,6.362,6.362,0,0,1,.616-2.716c1.209-2.981,2.445-5.951,3.666-8.927.147-.358.26-.729.421-1.184" transform="translate(-227.268 -223.884)" fill="#0f33a2"/><path d="M303.507,313.367a3.3,3.3,0,0,0,.553-.2c.336-.208.444-.048.594.248.2.392.177.582-.276.748-.754.277-1.474.643-2.221.94-.658.261-.909.006-.824-.709A12.024,12.024,0,0,1,302.42,311q.781-1.784,1.558-3.57a3.625,3.625,0,0,0,.116-.421,3.792,3.792,0,0,1-.733.25.692.692,0,0,1-.527-.132,1.5,1.5,0,0,1-.231-.616c-.007-.025.129-.1.207-.133.956-.387,1.91-.78,2.875-1.143a.622.622,0,0,1,.521.069.572.572,0,0,1,.168.493c-.336,1.092-.664,2.19-1.079,3.254-.51,1.306-1.1,2.581-1.658,3.871a4.448,4.448,0,0,0-.128.442" transform="translate(-246.952 -250.565)" fill="#0f33a2"/><path d="M159.98,470.728c-.127-.723-.231-1.45-.345-2.174l.092-.015c0-.393.015-.787,0-1.179a1.647,1.647,0,0,0-1.52-1.791,7.645,7.645,0,0,0-2.086-.016,1.834,1.834,0,0,0-1.589,1.069,1.057,1.057,0,0,0,.01.805.769.769,0,0,0,.661.232c.191-.031.385-.26.51-.447a1.642,1.642,0,0,1,1.955-.553.7.7,0,0,1,.486.826c-.013.122-.315.262-.507.311-.749.191-1.517.314-2.26.525a1.569,1.569,0,0,0-1.232,1.769,1.677,1.677,0,0,0,1.378,1.49,2.635,2.635,0,0,0,2.143-.368c.476-.327.763-.368,1.09.159a.614.614,0,0,0,.89.169.683.683,0,0,0,.325-.813m-3.45-.585-.362-.288c.137-.131.254-.314.418-.378a4.486,4.486,0,0,1,.925-.22c.054-.009.2.133.188.19-.053.391-.492.687-1.168.7" transform="translate(-126.338 -382.148)" fill="#0f32a2"/><path d="M131.115,458.993c0-.483-.007-.967,0-1.45,0-.228-.03-.369-.314-.369a.537.537,0,0,1-.033-1.072c.34-.013.355-.18.347-.432a8.3,8.3,0,0,1,.007-1,.763.763,0,0,1,.835-.768c.436.032.684.334.693.848,0,.151,0,.3,0,.453,0,.256-.082.58.043.748.1.139.489.038.691.149a.954.954,0,0,1,.487.547c.023.143-.26.4-.459.494s-.631.009-.706.142a1.843,1.843,0,0,0-.055.841c0,.71,0,1.42.02,2.129.017.575.147.677.728.64a1.594,1.594,0,0,0,.271-.031.515.515,0,0,1,.673.3.532.532,0,0,1-.3.721,2.534,2.534,0,0,1-2.326-.008c-.569-.31-.565-.929-.6-1.484-.03-.466-.006-.936-.007-1.4" transform="translate(-106.759 -372.636)" fill="#0f33a2"/><path d="M10.288,456.854a13.562,13.562,0,0,0,.288,1.541,1.926,1.926,0,0,0,1.924,1.388,1.939,1.939,0,0,0,1.9-1.288c.167-.4.293-.855.889-.8a.69.69,0,0,1,.665.67,2.744,2.744,0,0,1-1.7,2.429c-2.313.94-5.287.143-5.6-3.387a4.308,4.308,0,0,1,1.219-3.7,3.9,3.9,0,0,1,5.77.565,1.733,1.733,0,0,1,.273.93.927.927,0,0,1-.442.657.655.655,0,0,1-.852-.225c-.146-.212-.268-.44-.411-.653a1.973,1.973,0,0,0-3.483.242,9.312,9.312,0,0,0-.447,1.634" transform="translate(-7.076 -371.641)" fill="#0f32a2"/><path d="M96.382,466.236a2.483,2.483,0,0,1,2.03-.86,1.875,1.875,0,0,1,1.933,2.016c.026,1.088.012,2.177,0,3.266a.8.8,0,0,1-.761.9c-.462.007-.763-.358-.774-.923-.02-1.026-.011-2.055-.08-3.078-.045-.669-.3-.92-.753-.976a1.222,1.222,0,0,0-1.346.712,3.105,3.105,0,0,0-.189,1.013c-.029.785-.01,1.572-.016,2.358a.8.8,0,0,1-.761.893.787.787,0,0,1-.777-.877c-.007-1.452,0-2.9,0-4.354,0-.63.179-.9.62-.937.5-.043.721.16.877.85" transform="translate(-77.764 -382.052)" fill="#0f33a2"/><path d="M327.269,470.735c-.127-.723-.233-1.449-.348-2.173l.091-.015c0-.409.017-.818,0-1.225a1.628,1.628,0,0,0-1.509-1.75,7.626,7.626,0,0,0-2.088-.022,1.828,1.828,0,0,0-1.609,1.107,1.024,1.024,0,0,0,.048.8.8.8,0,0,0,.675.2c.178-.029.351-.259.469-.437a1.634,1.634,0,0,1,1.951-.564.7.7,0,0,1,.491.821c-.011.122-.308.267-.5.315-.749.192-1.516.319-2.259.527a1.586,1.586,0,0,0-1.24,1.765,1.67,1.67,0,0,0,1.37,1.494,2.646,2.646,0,0,0,2.142-.361c.463-.31.763-.395,1.092.15a.615.615,0,0,0,.888.178.679.679,0,0,0,.335-.81m-2.346-1.111c-.155.332-.5.513-1.116.517-.048-.042-.2-.169-.353-.3a1.745,1.745,0,0,1,.428-.374,3.925,3.925,0,0,1,.795-.183,1.975,1.975,0,0,1,.329-.008,1.775,1.775,0,0,1-.083.345" transform="translate(-263.443 -382.147)" fill="#0f32a2"/><path d="M287.554,453.591c0-.582-.306-.85-.857-.773-.374.052-.589.339-.6.838-.009.722,0,1.443,0,2.241-.244-.187-.406-.323-.581-.442a2.5,2.5,0,0,0-3.633,1.014,3.973,3.973,0,0,0,.18,3.58,2.191,2.191,0,0,0,2.513,1.114,8.817,8.817,0,0,0,1.507-.692l0-.014a.218.218,0,0,1,.015.044c.124.53.4.781.817.733.432-.051.641-.335.642-.884q0-3.378,0-6.757m-3.726,5.548a4.971,4.971,0,0,1-.294-1.024,5.266,5.266,0,0,1,.281-.963.831.831,0,0,1,1.453-.084,2.226,2.226,0,0,1,.059,2.107.865.865,0,0,1-1.5-.036" transform="translate(-230.747 -371.735)" fill="#0f32a2"/><path d="M198.081,456.948a2.437,2.437,0,0,0-2.472-1.933,3.014,3.014,0,0,0-1.954.864c0-.851.008-1.6,0-2.354a.7.7,0,0,0-.928-.75c-.457.117-.524.5-.525.9q0,3.013,0,6.027c0,.272-.017.546.009.815a.727.727,0,0,0,1.444.046c.013-.076.027-.152.044-.254.08.057.119.08.151.11a2.445,2.445,0,0,0,4.163-1.058,4.24,4.24,0,0,0,.07-2.41m-2.913,2.58a.872.872,0,0,1-.835-.594,2.2,2.2,0,0,1,.03-1.674.893.893,0,0,1,.911-.612.838.838,0,0,1,.8.682,5.192,5.192,0,0,1,.135.812,4.571,4.571,0,0,1-.189.825.83.83,0,0,1-.849.56" transform="translate(-157.518 -371.684)" fill="#0f32a2"/><path d="M401,468.6c.471.02.944.005,1.415.005v0c.5,0,1.005.014,1.508,0,.575-.022.9-.247.946-.665a2.293,2.293,0,0,0-.047-.806,2.975,2.975,0,0,0-4.557-1.513,3.34,3.34,0,0,0-1.072,3.669,2.954,2.954,0,0,0,3.487,2,2.439,2.439,0,0,0,2-1.172c.155-.279.229-.587-.081-.814a.606.606,0,0,0-.822.11,6.114,6.114,0,0,1-.739.6,1.5,1.5,0,0,1-2.345-1.018c-.047-.253-.009-.4.307-.388m.957-1.9a1.988,1.988,0,0,1,.745.31c.159.107.136.258-.12.254-.438-.007-.877,0-1.365,0,.166-.379.373-.626.74-.562" transform="translate(-327.04 -381.812)" fill="#0f32a1"/><path d="M365.1,453.624c0-.537-.23-.768-.732-.764-.467,0-.714.282-.722.847-.009.721,0,1.442,0,2.263-.189-.164-.289-.256-.394-.342a2.516,2.516,0,0,0-3.8.847,3.955,3.955,0,0,0,.187,3.663,2.195,2.195,0,0,0,2.495,1.069,8.873,8.873,0,0,0,1.5-.687.021.021,0,0,1,0-.007c0,.01.008.024.012.038.123.525.412.779.826.725s.63-.338.632-.892q0-.862,0-1.724c0-1.678,0-3.357,0-5.035m-3.032,6a1,1,0,0,1-.894-.93c-.025-.163-.019-.331-.027-.5l-.058-.015a4.9,4.9,0,0,1,.27-.981.831.831,0,0,1,1.476-.058,2.082,2.082,0,0,1,.212,1.658.922.922,0,0,1-.979.824" transform="translate(-294.301 -371.78)" fill="#0f32a2"/><path d="M268.091,468.485c0,.741,0,1.482,0,2.222,0,.573-.272.893-.737.9s-.756-.311-.758-.876q-.008-2.245,0-4.49c0-.561.247-.809.753-.8s.736.258.741.821c.006.741,0,1.482,0,2.222" transform="translate(-218.49 -382.109)" fill="#0f33a2"/><path d="M268.1,454a.659.659,0,0,1-.761.741.669.669,0,0,1-.737-.725.694.694,0,0,1,.775-.744.642.642,0,0,1,.723.728" transform="translate(-218.502 -372.117)" fill="#0f32a2"/><path d="M234.127,468.512c0,.755.007,1.511,0,2.266a.745.745,0,0,1-.759.831.723.723,0,0,1-.731-.809q-.013-2.289,0-4.578c0-.519.264-.781.736-.782.508,0,.751.247.757.8.008.755,0,1.511,0,2.266" transform="translate(-190.655 -382.108)" fill="#0f33a2"/><path d="M233.394,454.74a.675.675,0,0,1-.754-.744.667.667,0,0,1,.731-.725c.513-.01.768.23.767.721a.657.657,0,0,1-.744.748" transform="translate(-190.666 -372.118)" fill="#0f32a1"/><path d="M57.472,465.387a2.744,2.744,0,0,0-2.27,3.036,2.822,2.822,0,0,0,.755,2.171,3.271,3.271,0,0,0,3.583.668,2.92,2.92,0,0,0,1.726-2.742c.092-1.863-1.151-3.567-3.795-3.134m.73,4.5a.876.876,0,0,1-.857-.623,6.127,6.127,0,0,1-.184-.892c.071-.279.128-.6.238-.908a.778.778,0,0,1,.778-.517.848.848,0,0,1,.863.474,2.23,2.23,0,0,1,.045,1.88.866.866,0,0,1-.882.585" transform="translate(-45.238 -382.008)" fill="#0f32a2"/><path d="M250.862,457.037c0,1.149.011,2.3,0,3.448-.008.628-.523.995-1.042.712a.927.927,0,0,1-.429-.663c-.032-2.313-.025-4.627-.016-6.941a.665.665,0,0,1,.738-.73.69.69,0,0,1,.75.772c.012,1.134,0,2.268,0,3.4" transform="translate(-204.372 -371.782)" fill="#0f32a2"/><path d="M327.013,289.535a1.03,1.03,0,0,1-1.081,1.038.8.8,0,0,1-.838-.816,1.137,1.137,0,0,1,1.114-1.1c.532,0,.812.305.8.873" transform="translate(-266.439 -236.98)" fill="#0f32a2"/><path d="M287.091,133.287a.829.829,0,0,1-.844.817.82.82,0,1,1,.012-1.64.816.816,0,0,1,.833.823" transform="translate(-233.933 -108.747)" fill="#1d1a17"/><path d="M102.67,134.327a.832.832,0,0,1-.86.8.871.871,0,0,1-.846-.828.938.938,0,0,1,.871-.816.921.921,0,0,1,.835.84" transform="translate(-82.747 -109.587)" fill="#1e1a18"/><path d="M412.263,317.346a7.932,7.932,0,0,0-4.077,3.6,5.818,5.818,0,0,0-.558,1.974c-.091.644.228.839.732.438a15.371,15.371,0,0,0,2.141-2.01,10.007,10.007,0,0,0,2.063-4.09c-.138.039-.222.054-.3.086m-4.18,5.637c.21-2.4,1.837-3.757,3.712-4.931a9.548,9.548,0,0,1-3.712,4.931" transform="translate(-334.069 -260.458)" fill="#010103"/><path d="M165.239,483.661a.308.308,0,0,0-.235-.186c-.521.1-1.04.209-1.551.346a.793.793,0,0,0-.675.84.872.872,0,0,0,.93.69,1.428,1.428,0,0,0,1.532-1.689m-1.645,1.246-.362-.288c.137-.131.254-.314.418-.378a4.485,4.485,0,0,1,.925-.22c.054-.009.2.133.188.19-.053.391-.492.687-1.168.7" transform="translate(-133.403 -396.913)" fill="#010203"/><path d="M332.532,483.567c-.021-.22-.1-.243-.288-.2-.485.121-.978.213-1.46.341-.534.141-.78.44-.729.835a.874.874,0,0,0,.965.7,1.446,1.446,0,0,0,1.512-1.682m-.553.721c-.155.332-.5.513-1.116.517-.048-.042-.2-.169-.353-.3a1.745,1.745,0,0,1,.428-.374,3.925,3.925,0,0,1,.795-.183,1.975,1.975,0,0,1,.329-.008,1.772,1.772,0,0,1-.083.345" transform="translate(-270.499 -396.812)" fill="#010203"/><path d="M292.646,472.649a1.27,1.27,0,0,0-2.258.042,6.5,6.5,0,0,0-.357,1.193l.089.024c0,.135-.011.272,0,.408a1.578,1.578,0,0,0,1.1,1.415,1.3,1.3,0,0,0,1.535-.773,2.485,2.485,0,0,0-.106-2.308m-.364,2.269a.865.865,0,0,1-1.5-.036,4.964,4.964,0,0,1-.294-1.024,5.278,5.278,0,0,1,.281-.963.831.831,0,0,1,1.453-.084,2.226,2.226,0,0,1,.058,2.107" transform="translate(-237.702 -387.478)" fill="#010203"/><path d="M203.627,473.867a3.246,3.246,0,0,0,0-.542,1.432,1.432,0,0,0-1-1.283,1.284,1.284,0,0,0-1.416.486,2.549,2.549,0,0,0-.089,2.652,1.342,1.342,0,0,0,1.351.564,1.19,1.19,0,0,0,1-.821,6.6,6.6,0,0,0,.229-1.047l-.071-.011m-.567.9a.83.83,0,0,1-.849.56.872.872,0,0,1-.835-.594,2.2,2.2,0,0,1,.03-1.674.893.893,0,0,1,.911-.612.838.838,0,0,1,.8.683,5.187,5.187,0,0,1,.135.811,4.584,4.584,0,0,1-.189.825" transform="translate(-164.561 -387.483)" fill="#010203"/><path d="M410.89,472.669a1.279,1.279,0,0,0-1.35-1.086,1.3,1.3,0,0,0-1.264,1.189.348.348,0,0,0,.217.262c.362.029.727.012,1.091.013.334,0,.668-.015,1,0,.312.019.358-.126.306-.383m-.739-.065c-.438-.007-.877,0-1.365,0,.166-.378.373-.626.74-.562a1.991,1.991,0,0,1,.745.31c.159.107.136.258-.12.254" transform="translate(-334.611 -387.15)" fill="#020204"/><path d="M370.257,472.746a1.23,1.23,0,0,0-1.157-.67,1.171,1.171,0,0,0-1.122.713,7.852,7.852,0,0,0-.332,1.144,7.017,7.017,0,0,0,.272,1.087,1.21,1.21,0,0,0,1.066.8,1.229,1.229,0,0,0,1.319-.689,2.46,2.46,0,0,0-.045-2.387m-.2,1.833a.922.922,0,0,1-.979.824,1,1,0,0,1-.894-.93c-.025-.163-.019-.331-.027-.5l-.058-.015a4.9,4.9,0,0,1,.27-.981.83.83,0,0,1,1.476-.058,2.082,2.082,0,0,1,.212,1.658" transform="translate(-301.312 -387.555)" fill="#010203"/><path d="M66.781,473.152a1.358,1.358,0,0,0-1.245-1.128,1.291,1.291,0,0,0-1.467,1,4.355,4.355,0,0,0-.1,1.384,1.433,1.433,0,0,0,1.165,1.389,1.274,1.274,0,0,0,1.43-.639,6.41,6.41,0,0,0,.36-1.077c-.059-.4-.084-.668-.14-.932m-.522,1.648a.866.866,0,0,1-.882.585.875.875,0,0,1-.857-.623,6.076,6.076,0,0,1-.184-.892c.071-.279.128-.6.238-.908a.777.777,0,0,1,.777-.517.848.848,0,0,1,.863.474,2.231,2.231,0,0,1,.045,1.88" transform="translate(-52.412 -387.51)" fill="#010103"/></g></svg>