<svg id="logo" xmlns="http://www.w3.org/2000/svg" xmlns:xlink="http://www.w3.org/1999/xlink" width="32" height="32" viewBox="0 0 32 32">
  <defs>
    <style>
      .cls-1 {
        fill: none;
      }

      .cls-2 {
        clip-path: url(#clip-path);
      }

      .cls-3 {
        fill: #1e1a18;
      }

      .cls-4 {
        fill: #000102;
      }

      .cls-5 {
        fill: #0f33a2;
      }

      .cls-6 {
        fill: #1033a1;
      }

      .cls-7 {
        fill: #010102;
      }

      .cls-8 {
        fill: #000001;
      }

      .cls-9 {
        fill: #000103;
      }

      .cls-10 {
        fill: #010203;
      }

      .cls-11 {
        fill: #1e1b19;
      }

      .cls-12 {
        fill: #1c1917;
      }

      .cls-13 {
        fill: #af9090;
      }

      .cls-14 {
        fill: #fefefe;
      }

      .cls-15 {
        fill: #0f32a2;
      }

      .cls-16 {
        fill: #0f32a1;
      }

      .cls-17 {
        fill: #1d1a17;
      }

      .cls-18 {
        fill: #010103;
      }

      .cls-19 {
        fill: #020204;
      }
    </style>
    <clipPath id="clip-path">
      <rect id="Retângulo_3" data-name="Retângulo 3" class="cls-1" width="32" height="32"/>
    </clipPath>
  </defs>
  <g id="Grupo_7" data-name="Grupo 7" class="cls-2">
    <path id="Caminho_1" data-name="Caminho 1" class="cls-3" d="M101.274,133.488a.333.333,0,0,0-.31.29.31.31,0,0,0,.3.294.3.3,0,0,0,.306-.286.328.328,0,0,0-.3-.3m0,0a.333.333,0,0,0-.31.29.31.31,0,0,0,.3.294.3.3,0,0,0,.306-.286.328.328,0,0,0-.3-.3m0,0a.333.333,0,0,0-.31.29.31.31,0,0,0,.3.294.3.3,0,0,0,.306-.286.328.328,0,0,0-.3-.3m0,0a.333.333,0,0,0-.31.29.31.31,0,0,0,.3.294.3.3,0,0,0,.306-.286.328.328,0,0,0-.3-.3m0,0a.333.333,0,0,0-.31.29.31.31,0,0,0,.3.294.3.3,0,0,0,.306-.286.328.328,0,0,0-.3-.3m0,0a.333.333,0,0,0-.31.29.31.31,0,0,0,.3.294.3.3,0,0,0,.306-.286.328.328,0,0,0-.3-.3m0,0a.333.333,0,0,0-.31.29.31.31,0,0,0,.3.294.3.3,0,0,0,.306-.286.328.328,0,0,0-.3-.3m0,0a.333.333,0,0,0-.31.29.31.31,0,0,0,.3.294.3.3,0,0,0,.306-.286.328.328,0,0,0-.3-.3m0,0a.333.333,0,0,0-.31.29.31.31,0,0,0,.3.294.3.3,0,0,0,.306-.286.328.328,0,0,0-.3-.3m0,0a.333.333,0,0,0-.31.29.31.31,0,0,0,.3.294.3.3,0,0,0,.306-.286.328.328,0,0,0-.3-.3m0,0a.333.333,0,0,0-.31.29.31.31,0,0,0,.3.294.3.3,0,0,0,.306-.286.328.328,0,0,0-.3-.3m0,0a.333.333,0,0,0-.31.29.31.31,0,0,0,.3.294.3.3,0,0,0,.306-.286.328.328,0,0,0-.3-.3m0,0a.333.333,0,0,0-.31.29.31.31,0,0,0,.3.294.3.3,0,0,0,.306-.286.328.328,0,0,0-.3-.3m0,0a.333.333,0,0,0-.31.29.31.31,0,0,0,.3.294.3.3,0,0,0,.306-.286.328.328,0,0,0-.3-.3m0,0a.333.333,0,0,0-.31.29.31.31,0,0,0,.3.294.3.3,0,0,0,.306-.286.328.328,0,0,0-.3-.3m0,0a.333.333,0,0,0-.31.29.31.31,0,0,0,.3.294.3.3,0,0,0,.306-.286.328.328,0,0,0-.3-.3m0,0a.333.333,0,0,0-.31.29.31.31,0,0,0,.3.294.3.3,0,0,0,.306-.286.328.328,0,0,0-.3-.3m0,0a.333.333,0,0,0-.31.29.31.31,0,0,0,.3.294.3.3,0,0,0,.306-.286.328.328,0,0,0-.3-.3m0,0a.333.333,0,0,0-.31.29.31.31,0,0,0,.3.294.3.3,0,0,0,.306-.286.328.328,0,0,0-.3-.3m0,0a.333.333,0,0,0-.31.29.31.31,0,0,0,.3.294.3.3,0,0,0,.306-.286.328.328,0,0,0-.3-.3m0,0a.333.333,0,0,0-.31.29.31.31,0,0,0,.3.294.3.3,0,0,0,.306-.286.328.328,0,0,0-.3-.3m0,0a.333.333,0,0,0-.31.29.31.31,0,0,0,.3.294.3.3,0,0,0,.306-.286.328.328,0,0,0-.3-.3m0,0a.333.333,0,0,0-.31.29.31.31,0,0,0,.3.294.3.3,0,0,0,.306-.286.328.328,0,0,0-.3-.3m0,0a.333.333,0,0,0-.31.29.31.31,0,0,0,.3.294.3.3,0,0,0,.306-.286.328.328,0,0,0-.3-.3m0,0a.333.333,0,0,0-.31.29.31.31,0,0,0,.3.294.3.3,0,0,0,.306-.286.328.328,0,0,0-.3-.3m0,0a.333.333,0,0,0-.31.29.31.31,0,0,0,.3.294.3.3,0,0,0,.306-.286.328.328,0,0,0-.3-.3m0,0a.333.333,0,0,0-.31.29.31.31,0,0,0,.3.294.3.3,0,0,0,.306-.286.328.328,0,0,0-.3-.3m0,0a.333.333,0,0,0-.31.29.31.31,0,0,0,.3.294.3.3,0,0,0,.306-.286.328.328,0,0,0-.3-.3m0,0a.333.333,0,0,0-.31.29.31.31,0,0,0,.3.294.3.3,0,0,0,.306-.286.328.328,0,0,0-.3-.3m0,0a.333.333,0,0,0-.31.29.31.31,0,0,0,.3.294.3.3,0,0,0,.306-.286.328.328,0,0,0-.3-.3m0,0a.333.333,0,0,0-.31.29.31.31,0,0,0,.3.294.3.3,0,0,0,.306-.286.328.328,0,0,0-.3-.3m0,0a.333.333,0,0,0-.31.29.31.31,0,0,0,.3.294.3.3,0,0,0,.306-.286.328.328,0,0,0-.3-.3m0,0a.333.333,0,0,0-.31.29.31.31,0,0,0,.3.294.3.3,0,0,0,.306-.286.328.328,0,0,0-.3-.3m0,0a.333.333,0,0,0-.31.29.31.31,0,0,0,.3.294.3.3,0,0,0,.306-.286.328.328,0,0,0-.3-.3m0,0a.333.333,0,0,0-.31.29.31.31,0,0,0,.3.294.3.3,0,0,0,.306-.286.328.328,0,0,0-.3-.3m0,0a.333.333,0,0,0-.31.29.31.31,0,0,0,.3.294.3.3,0,0,0,.306-.286.328.328,0,0,0-.3-.3m0,0a.333.333,0,0,0-.31.29.31.31,0,0,0,.3.294.3.3,0,0,0,.306-.286.328.328,0,0,0-.3-.3m0,0a.333.333,0,0,0-.31.29.31.31,0,0,0,.3.294.3.3,0,0,0,.306-.286.328.328,0,0,0-.3-.3m0,0a.333.333,0,0,0-.31.29.31.31,0,0,0,.3.294.3.3,0,0,0,.306-.286.328.328,0,0,0-.3-.3m0,0a.333.333,0,0,0-.31.29.31.31,0,0,0,.3.294.3.3,0,0,0,.306-.286.328.328,0,0,0-.3-.3m0,0a.333.333,0,0,0-.31.29.31.31,0,0,0,.3.294.3.3,0,0,0,.306-.286.328.328,0,0,0-.3-.3m0,0a.333.333,0,0,0-.31.29.31.31,0,0,0,.3.294.3.3,0,0,0,.306-.286.328.328,0,0,0-.3-.3m0,0a.333.333,0,0,0-.31.29.31.31,0,0,0,.3.294.3.3,0,0,0,.306-.286.328.328,0,0,0-.3-.3m0,0a.333.333,0,0,0-.31.29.31.31,0,0,0,.3.294.3.3,0,0,0,.306-.286.328.328,0,0,0-.3-.3m0,0a.333.333,0,0,0-.31.29.31.31,0,0,0,.3.294.3.3,0,0,0,.306-.286.328.328,0,0,0-.3-.3m1.942,8.254a3.253,3.253,0,0,0,.345-.223l-.345.223m0,0a3.253,3.253,0,0,0,.345-.223l-.345.223m-1.942-8.254a.333.333,0,0,0-.31.29.31.31,0,0,0,.3.294.3.3,0,0,0,.306-.286.328.328,0,0,0-.3-.3m0,0a.333.333,0,0,0-.31.29.31.31,0,0,0,.3.294.3.3,0,0,0,.306-.286.328.328,0,0,0-.3-.3m1.942,8.254a3.253,3.253,0,0,0,.345-.223l-.345.223m0,0a3.253,3.253,0,0,0,.345-.223l-.345.223m-1.942-8.254a.333.333,0,0,0-.31.29.31.31,0,0,0,.3.294.3.3,0,0,0,.306-.286.328.328,0,0,0-.3-.3m0,0a.333.333,0,0,0-.31.29.31.31,0,0,0,.3.294.3.3,0,0,0,.306-.286.328.328,0,0,0-.3-.3m1.942,8.254a3.253,3.253,0,0,0,.345-.223l-.345.223m0,0a3.253,3.253,0,0,0,.345-.223l-.345.223m-1.942-8.254a.333.333,0,0,0-.31.29.31.31,0,0,0,.3.294.3.3,0,0,0,.306-.286.328.328,0,0,0-.3-.3m0,0a.333.333,0,0,0-.31.29.31.31,0,0,0,.3.294.3.3,0,0,0,.306-.286.328.328,0,0,0-.3-.3m1.942,8.254a3.253,3.253,0,0,0,.345-.223l-.345.223m0,0a3.253,3.253,0,0,0,.345-.223l-.345.223m-1.942-8.254a.333.333,0,0,0-.31.29.31.31,0,0,0,.3.294.3.3,0,0,0,.306-.286.328.328,0,0,0-.3-.3m0,0a.333.333,0,0,0-.31.29.31.31,0,0,0,.3.294.3.3,0,0,0,.306-.286.328.328,0,0,0-.3-.3m1.942,8.254a3.253,3.253,0,0,0,.345-.223l-.345.223m0,0a3.253,3.253,0,0,0,.345-.223l-.345.223m-1.942-8.254a.333.333,0,0,0-.31.29.31.31,0,0,0,.3.294.3.3,0,0,0,.306-.286.328.328,0,0,0-.3-.3m0,0a.333.333,0,0,0-.31.29.31.31,0,0,0,.3.294.3.3,0,0,0,.306-.286.328.328,0,0,0-.3-.3m1.942,8.254a3.253,3.253,0,0,0,.345-.223l-.345.223m0,0a3.253,3.253,0,0,0,.345-.223l-.345.223m-1.942-8.254a.333.333,0,0,0-.31.29.31.31,0,0,0,.3.294.3.3,0,0,0,.306-.286.328.328,0,0,0-.3-.3m0,0a.333.333,0,0,0-.31.29.31.31,0,0,0,.3.294.3.3,0,0,0,.306-.286.328.328,0,0,0-.3-.3m1.942,8.254a3.253,3.253,0,0,0,.345-.223l-.345.223m0,0a3.253,3.253,0,0,0,.345-.223l-.345.223m-1.942-8.254a.333.333,0,0,0-.31.29.31.31,0,0,0,.3.294.3.3,0,0,0,.306-.286.328.328,0,0,0-.3-.3m0,0a.333.333,0,0,0-.31.29.31.31,0,0,0,.3.294.3.3,0,0,0,.306-.286.328.328,0,0,0-.3-.3m1.942,8.254a3.253,3.253,0,0,0,.345-.223l-.345.223m0,0a3.253,3.253,0,0,0,.345-.223l-.345.223m-1.942-8.254a.333.333,0,0,0-.31.29.31.31,0,0,0,.3.294.3.3,0,0,0,.306-.286.328.328,0,0,0-.3-.3m0,0a.333.333,0,0,0-.31.29.31.31,0,0,0,.3.294.3.3,0,0,0,.306-.286.328.328,0,0,0-.3-.3m1.942,8.254a3.253,3.253,0,0,0,.345-.223l-.345.223m0,0a3.253,3.253,0,0,0,.345-.223l-.345.223m-1.942-8.254a.333.333,0,0,0-.31.29.31.31,0,0,0,.3.294.3.3,0,0,0,.306-.286.328.328,0,0,0-.3-.3m0,0a.333.333,0,0,0-.31.29.31.31,0,0,0,.3.294.3.3,0,0,0,.306-.286.328.328,0,0,0-.3-.3m1.942,8.254a3.253,3.253,0,0,0,.345-.223l-.345.223m0,0a3.253,3.253,0,0,0,.345-.223l-.345.223m-1.942-8.254a.333.333,0,0,0-.31.29.31.31,0,0,0,.3.294.3.3,0,0,0,.306-.286.328.328,0,0,0-.3-.3m0,0a.333.333,0,0,0-.31.29.31.31,0,0,0,.3.294.3.3,0,0,0,.306-.286.328.328,0,0,0-.3-.3m1.942,8.254a3.253,3.253,0,0,0,.345-.223l-.345.223m0,0a3.253,3.253,0,0,0,.345-.223l-.345.223m-1.942-8.254a.333.333,0,0,0-.31.29.31.31,0,0,0,.3.294.3.3,0,0,0,.306-.286.328.328,0,0,0-.3-.3m0,0a.333.333,0,0,0-.31.29.31.31,0,0,0,.3.294.3.3,0,0,0,.306-.286.328.328,0,0,0-.3-.3m1.942,8.254a3.253,3.253,0,0,0,.345-.223l-.345.223m0,0a3.253,3.253,0,0,0,.345-.223l-.345.223m-1.942-8.254a.333.333,0,0,0-.31.29.31.31,0,0,0,.3.294.3.3,0,0,0,.306-.286.328.328,0,0,0-.3-.3m0,0a.333.333,0,0,0-.31.29.31.31,0,0,0,.3.294.3.3,0,0,0,.306-.286.328.328,0,0,0-.3-.3m1.942,8.254a3.253,3.253,0,0,0,.345-.223l-.345.223m0,0a3.253,3.253,0,0,0,.345-.223l-.345.223m-1.942-8.254a.333.333,0,0,0-.31.29.31.31,0,0,0,.3.294.3.3,0,0,0,.306-.286.328.328,0,0,0-.3-.3m0,0a.333.333,0,0,0-.31.29.31.31,0,0,0,.3.294.3.3,0,0,0,.306-.286.328.328,0,0,0-.3-.3m1.942,8.254a3.253,3.253,0,0,0,.345-.223l-.345.223m0,0a3.253,3.253,0,0,0,.345-.223l-.345.223m-1.942-8.254a.333.333,0,0,0-.31.29.31.31,0,0,0,.3.294.3.3,0,0,0,.306-.286.328.328,0,0,0-.3-.3m0,0a.333.333,0,0,0-.31.29.31.31,0,0,0,.3.294.3.3,0,0,0,.306-.286.328.328,0,0,0-.3-.3m1.942,8.254a3.253,3.253,0,0,0,.345-.223l-.345.223m0,0a3.253,3.253,0,0,0,.345-.223l-.345.223m-1.942-8.254a.333.333,0,0,0-.31.29.31.31,0,0,0,.3.294.3.3,0,0,0,.306-.286.328.328,0,0,0-.3-.3m0,0a.333.333,0,0,0-.31.29.31.31,0,0,0,.3.294.3.3,0,0,0,.306-.286.328.328,0,0,0-.3-.3m0,0a.333.333,0,0,0-.31.29.31.31,0,0,0,.3.294.3.3,0,0,0,.306-.286.328.328,0,0,0-.3-.3m0,0a.333.333,0,0,0-.31.29.31.31,0,0,0,.3.294.3.3,0,0,0,.306-.286.328.328,0,0,0-.3-.3m0,0a.333.333,0,0,0-.31.29.31.31,0,0,0,.3.294.3.3,0,0,0,.306-.286.328.328,0,0,0-.3-.3m0,0a.333.333,0,0,0-.31.29.31.31,0,0,0,.3.294.3.3,0,0,0,.306-.286.328.328,0,0,0-.3-.3m0,0a.333.333,0,0,0-.31.29.31.31,0,0,0,.3.294.3.3,0,0,0,.306-.286.328.328,0,0,0-.3-.3m0,0a.333.333,0,0,0-.31.29.31.31,0,0,0,.3.294.3.3,0,0,0,.306-.286.328.328,0,0,0-.3-.3m0,0a.333.333,0,0,0-.31.29.31.31,0,0,0,.3.294.3.3,0,0,0,.306-.286.328.328,0,0,0-.3-.3m0,0a.333.333,0,0,0-.31.29.31.31,0,0,0,.3.294.3.3,0,0,0,.306-.286.328.328,0,0,0-.3-.3m0,0a.333.333,0,0,0-.31.29.31.31,0,0,0,.3.294.3.3,0,0,0,.306-.286.328.328,0,0,0-.3-.3m0,0a.333.333,0,0,0-.31.29.31.31,0,0,0,.3.294.3.3,0,0,0,.306-.286.328.328,0,0,0-.3-.3m0,0a.333.333,0,0,0-.31.29.31.31,0,0,0,.3.294.3.3,0,0,0,.306-.286.328.328,0,0,0-.3-.3m0,0a.333.333,0,0,0-.31.29.31.31,0,0,0,.3.294.3.3,0,0,0,.306-.286.328.328,0,0,0-.3-.3m0,0a.333.333,0,0,0-.31.29.31.31,0,0,0,.3.294.3.3,0,0,0,.306-.286.328.328,0,0,0-.3-.3m0,0a.333.333,0,0,0-.31.29.31.31,0,0,0,.3.294.3.3,0,0,0,.306-.286.328.328,0,0,0-.3-.3m0,0a.333.333,0,0,0-.31.29.31.31,0,0,0,.3.294.3.3,0,0,0,.306-.286.328.328,0,0,0-.3-.3m0,0a.333.333,0,0,0-.31.29.31.31,0,0,0,.3.294.3.3,0,0,0,.306-.286.328.328,0,0,0-.3-.3m0,0a.333.333,0,0,0-.31.29.31.31,0,0,0,.3.294.3.3,0,0,0,.306-.286.328.328,0,0,0-.3-.3m0,0a.333.333,0,0,0-.31.29.31.31,0,0,0,.3.294.3.3,0,0,0,.306-.286.328.328,0,0,0-.3-.3m0,0a.333.333,0,0,0-.31.29.31.31,0,0,0,.3.294.3.3,0,0,0,.306-.286.328.328,0,0,0-.3-.3m0,0a.333.333,0,0,0-.31.29.31.31,0,0,0,.3.294.3.3,0,0,0,.306-.286.328.328,0,0,0-.3-.3m0,0a.333.333,0,0,0-.31.29.31.31,0,0,0,.3.294.3.3,0,0,0,.306-.286.328.328,0,0,0-.3-.3m0,0a.333.333,0,0,0-.31.29.31.31,0,0,0,.3.294.3.3,0,0,0,.306-.286.328.328,0,0,0-.3-.3m0,0a.333.333,0,0,0-.31.29.31.31,0,0,0,.3.294.3.3,0,0,0,.306-.286.328.328,0,0,0-.3-.3m0,0a.333.333,0,0,0-.31.29.31.31,0,0,0,.3.294.3.3,0,0,0,.306-.286.328.328,0,0,0-.3-.3m0,0a.333.333,0,0,0-.31.29.31.31,0,0,0,.3.294.3.3,0,0,0,.306-.286.328.328,0,0,0-.3-.3m0,0a.333.333,0,0,0-.31.29.31.31,0,0,0,.3.294.3.3,0,0,0,.306-.286.328.328,0,0,0-.3-.3m0,0a.333.333,0,0,0-.31.29.31.31,0,0,0,.3.294.3.3,0,0,0,.306-.286.328.328,0,0,0-.3-.3m0,0a.333.333,0,0,0-.31.29.31.31,0,0,0,.3.294.3.3,0,0,0,.306-.286.328.328,0,0,0-.3-.3m0,0a.333.333,0,0,0-.31.29.31.31,0,0,0,.3.294.3.3,0,0,0,.306-.286.328.328,0,0,0-.3-.3m0,0a.333.333,0,0,0-.31.29.31.31,0,0,0,.3.294.3.3,0,0,0,.306-.286.328.328,0,0,0-.3-.3m0,0a.333.333,0,0,0-.31.29.31.31,0,0,0,.3.294.3.3,0,0,0,.306-.286.328.328,0,0,0-.3-.3m0,0a.333.333,0,0,0-.31.29.31.31,0,0,0,.3.294.3.3,0,0,0,.306-.286.328.328,0,0,0-.3-.3m0,0a.333.333,0,0,0-.31.29.31.31,0,0,0,.3.294.3.3,0,0,0,.306-.286.328.328,0,0,0-.3-.3m0,0a.333.333,0,0,0-.31.29.31.31,0,0,0,.3.294.3.3,0,0,0,.306-.286.328.328,0,0,0-.3-.3m0,0a.333.333,0,0,0-.31.29.31.31,0,0,0,.3.294.3.3,0,0,0,.306-.286.328.328,0,0,0-.3-.3m0,0a.333.333,0,0,0-.31.29.31.31,0,0,0,.3.294.3.3,0,0,0,.306-.286.328.328,0,0,0-.3-.3m0,0a.333.333,0,0,0-.31.29.31.31,0,0,0,.3.294.3.3,0,0,0,.306-.286.328.328,0,0,0-.3-.3m0,0a.333.333,0,0,0-.31.29.31.31,0,0,0,.3.294.3.3,0,0,0,.306-.286.328.328,0,0,0-.3-.3m0,0a.333.333,0,0,0-.31.29.31.31,0,0,0,.3.294.3.3,0,0,0,.306-.286.328.328,0,0,0-.3-.3m0,0a.333.333,0,0,0-.31.29.31.31,0,0,0,.3.294.3.3,0,0,0,.306-.286.328.328,0,0,0-.3-.3m0,0a.333.333,0,0,0-.31.29.31.31,0,0,0,.3.294.3.3,0,0,0,.306-.286.328.328,0,0,0-.3-.3m0,0a.333.333,0,0,0-.31.29.31.31,0,0,0,.3.294.3.3,0,0,0,.306-.286.328.328,0,0,0-.3-.3m1.942,8.254a3.253,3.253,0,0,0,.345-.223l-.345.223" transform="translate(-94.487 -124.99)"/>
    <path id="Caminho_2" data-name="Caminho 2" class="cls-3" d="M24.879.275c-.014-.081-.043-.194-.1-.224-.1-.051-.2.008-.28.1a2.116,2.116,0,0,1-.4.346,3.323,3.323,0,0,1-1.386.426A9.53,9.53,0,0,1,20.47.9C19.984.847,19.5.761,19.014.716a3.417,3.417,0,0,0-2.143.515,4.979,4.979,0,0,0-1.292,1.185c-.047.059-.081.147-.165.016a4.854,4.854,0,0,0-1.059-1.163A2.906,2.906,0,0,0,11.113.98a4.291,4.291,0,0,0-1.56,1.558c-.02.033-.045.063-.058.08a10.05,10.05,0,0,0-.647-.828A3.64,3.64,0,0,0,5.512.771C5.1.828,4.683.895,4.266.939A8.006,8.006,0,0,1,2.18.915,3.373,3.373,0,0,1,.741.388C.6.287.469.16.323.061A.29.29,0,0,0,.095.008.258.258,0,0,0,0,.213,5.077,5.077,0,0,0,.044.967c.067.424.239.752.7.823.151.023.17.1.2.219.114.411.272.8.746.923.114.03.235.028.351.051.046.009.111.037.126.073a.94.94,0,0,0,1.03.7c.045,0,.115.058.143.106.14.243.3.479.6.5a5.734,5.734,0,0,0,.787-.019c.1-.006.158-.007.2.1a.917.917,0,0,0,.186.26.52.52,0,0,0,.56.189c.142-.046.288-.082.431-.124.1-.028.146-.022.207.092.2.374.338.486.775.309.173-.07.336-.167.5-.254.208-.109.413-.225.624-.33a.274.274,0,0,1,.327.128c.073.121-.046.155-.1.194a5.725,5.725,0,0,1-.721.455,3.838,3.838,0,0,1-1.839.329c-.1,0-.138.019-.136.129.007.387.009.774,0,1.162,0,.128.034.159.161.157,1.073-.012,2.146-.017,3.219-.023.2,0,.39,0,.585.008.028,0,.083.06.077.079a1.3,1.3,0,0,0,.611,1.506c.079.045.075.077.033.145-.148.242-.284.49-.435.73a.142.142,0,0,0,0,.194c.181.259.352.525.518.794a.555.555,0,0,1,.076.236c.03.336.03.675.077,1.008a1.406,1.406,0,0,1-.293,1.307c-.008.007-.011.019-.018.026-.054.055-.042.1,0,.161.156.206.309.413.455.625a.433.433,0,0,1,.068.205c.032.46.057.921.084,1.381a.159.159,0,0,1,0,.059c.033.429.035.361-.377.3-.093-.014-.184-.035-.276-.053h0c-.272-.062-.547-.112-.816-.187a5.462,5.462,0,0,1-2.653-1.523,2.954,2.954,0,0,1-.926-1.771A2.328,2.328,0,0,1,6.1,11.139,2.784,2.784,0,0,1,7.491,9.852c.444-.215.9-.408,1.347-.613A.242.242,0,0,0,8.9,8.821c-.032-.027-.069-.049-.1-.075l.181-.157-.295-.044.085-.075a.366.366,0,0,0,.131-.414c-.063-.175-.2-.214-.378-.208-.433.016-.866.016-1.3.041a2.318,2.318,0,0,0-.617.1,2.132,2.132,0,0,0-.911.744,7.724,7.724,0,0,0-1.222,2.293,3.824,3.824,0,0,0-.19,2,4.2,4.2,0,0,0,1.208,2.224,10.155,10.155,0,0,0,2.787,1.928c.328.16.32.153.073.418a2.606,2.606,0,0,0-.7,1.453,3.007,3.007,0,0,0,.875,2.52,6.886,6.886,0,0,0,.7.618c.064.053.071.076.016.132-.1.108-.2.221-.305.332-.062.094-.128.186-.186.282a2.031,2.031,0,0,0,.583,2.838,3.187,3.187,0,0,0,1.088.465c-.151.174-.3.333-.431.5a5.339,5.339,0,0,0-.465.595.361.361,0,0,0,.23.549.7.7,0,0,0,.707-.2c.257-.23.5-.476.761-.7A1.957,1.957,0,0,1,12,26.564c.025.267.049.523.072.778.028.3.059.6.082.9.006.084.036.108.118.1.135-.006.271,0,.407,0,.3,0,.3,0,.339-.285.007-.047.022-.094.026-.141.03-.412.062-.823.082-1.236.005-.113.059-.133.14-.107a1.5,1.5,0,0,1,.4.168c.472.339.94.683,1.4,1.043a.514.514,0,0,0,.765-.037.457.457,0,0,0-.094-.558c-.165-.169-.342-.327-.509-.494s-.351-.359-.506-.52a8.23,8.23,0,0,0,.913-.443,1.91,1.91,0,0,0,.956-1.6,2.146,2.146,0,0,0-.366-1.228l-.477-.571c.231-.126.479-.244.708-.389a2.823,2.823,0,0,0,1.324-1.812,2.455,2.455,0,0,0-.908-2.577c-.049-.04-.1-.084-.16-.142l.476-.194c.042-.023.084-.046.125-.07l1.1-.651h0a1,1,0,0,0,.11-.06A5.915,5.915,0,0,0,20.873,13.3c.013-.052.025-.1.038-.156a4.283,4.283,0,0,0-.063-2.341,4.972,4.972,0,0,0-1.5-2.259,1.736,1.736,0,0,0-.738-.5A5.081,5.081,0,0,0,17.77,7.9a10.867,10.867,0,0,0-1.164.025.192.192,0,0,0-.18.229c.02.137.061.271.095.411h-.184c.11.108.11.108.017.22a.213.213,0,0,0,.1.355c.183.059.371.1.552.167a4.028,4.028,0,0,1,1.8,1.119,2.078,2.078,0,0,1,.47,1.931,3.415,3.415,0,0,1-.947,1.6,6.55,6.55,0,0,1-2.313,1.482c-.353.138-.723.236-1.085.352-.305.074-.61.149-.916.218-.011,0-.053-.057-.051-.086.012-.132.034-.263.053-.4h0A.217.217,0,0,1,14,15.463c.028-.448.057-.9.089-1.345a.417.417,0,0,1,.149-.3c.159-.137.3-.3.454-.439.071-.064.056-.1.006-.164-.126-.147-.253-.293-.372-.446a.249.249,0,0,1-.052-.154q.066-1.049.143-2.1a.214.214,0,0,1,.067-.117c.2-.2.4-.406.606-.6.078-.074.106-.113.009-.206-.242-.231-.461-.485-.7-.719-.093-.092-.053-.116.033-.159a1.13,1.13,0,0,0,.666-.815,4.25,4.25,0,0,0,.007-.724c.58,0,1.2,0,1.814,0,.742.006,1.485.022,2.227.028.035,0,.1-.045.1-.07.006-.472,0-.944,0-1.4-.331,0-.65.026-.964-.005a3.807,3.807,0,0,1-1.922-.813c-.113-.085-.1-.167,0-.247a.329.329,0,0,1,.4-.042q.5.268,1.026.5c.476.215.707.14.967-.3.045-.075.076-.072.152-.046a1.073,1.073,0,0,0,.625.083.922.922,0,0,0,.583-.5c.042-.075.07-.077.146-.058a4.176,4.176,0,0,0,.6.12A.6.6,0,0,0,21.5,4.1c.058-.108.112-.219.168-.328a.153.153,0,0,1,.2-.093.828.828,0,0,0,.352,0,.842.842,0,0,0,.608-.647c.029-.086.06-.129.155-.111a.66.66,0,0,0,.752-.336A3.844,3.844,0,0,0,24,1.9c.032-.1.069-.141.173-.147a.7.7,0,0,0,.647-.513,1.828,1.828,0,0,0,.06-.966M8.6,17.064c-.048-.015-.084-.069-.126-.1a.445.445,0,0,1,.135-.069c.15-.018.3-.028.452-.032.226,0,.226,0,.195-.236l-.53.128a1.409,1.409,0,0,1-.979-.09.665.665,0,0,1-.222-.2,3.946,3.946,0,0,1,.427-.021c.182.009.148-.108.145-.212,0-.135-.1-.078-.165-.072A2.386,2.386,0,0,1,6.8,16.05a.645.645,0,0,1-.4-.394l.439-.032c.03-.169-.068-.2-.207-.221a1.775,1.775,0,0,1-.995-.382.935.935,0,0,1-.313-.535c.171.091.315.171.463.243a.179.179,0,0,0,.122,0c.019-.062.071-.126-.046-.176a2.652,2.652,0,0,1-.959-.645,1.229,1.229,0,0,1-.316-.7,1.705,1.705,0,0,1,.635.522c.13-.126.105-.232-.018-.345-.21-.192-.413-.393-.619-.59-.022-.022-.057-.045-.059-.07-.019-.211-.032-.422-.046-.633l.071-.03.441.55a.181.181,0,0,0,.027-.3q-.2-.233-.38-.478a.2.2,0,0,1-.043-.149A7.885,7.885,0,0,1,6.271,8.495a1.036,1.036,0,0,1,.7-.343c.488-.045.98-.056,1.47-.065.071,0,.143.083.215.128-.058.052-.107.129-.175.153a2.918,2.918,0,0,0-1.4.906c-.013.016-.024.035-.045.065l1.216-.246.02.064c-.052.025-.1.054-.157.073a5.509,5.509,0,0,0-1.444.739A2.487,2.487,0,0,0,5.6,12.063c0,.025,0,.049,0,.084L5.235,11.9c-.089.154-.08.234.088.315a1.072,1.072,0,0,1,.529.768c.018.07-.006.1-.08.093a2.745,2.745,0,0,0-.309-.005c-.035,0-.069.033-.1.051.033.061-.039.179.1.183a2.871,2.871,0,0,1,.325,0,.3.3,0,0,1,.181.092c.146.188.279.387.439.613-.164,0-.291,0-.419,0a.454.454,0,0,0-.127.046c.058.065-.028.217.127.219.179,0,.357-.008.536-.006a.251.251,0,0,1,.144.039c.17.132.333.273.5.407.1.076.058.107-.035.126l-.421.083a.34.34,0,0,0,.474.145.7.7,0,0,1,.733.177c.047.034.1.065.173.116-.156.092-.294.171-.431.254a.581.581,0,0,0-.083.077c.058.045.04.189.174.135.184-.075.366-.156.553-.225a.324.324,0,0,1,.194-.017c.2.064.394.146.592.217.075.027.088.056.02.1l-.425.3a.244.244,0,0,0,.372.073,2.145,2.145,0,0,0,.316-.191.338.338,0,0,1,.439-.044l.332.092c-.052.085-.1.172-.158.254-.042.061-.093.117-.14.175.219.118.221.12.419-.027a2.107,2.107,0,0,0,.195-.169.472.472,0,0,1,.52-.094.124.124,0,0,1,.048.088c.035.313.073.627.1.941.015.2-.055.3-.249.3-.315.005-.632-.034-.948-.059-.031,0-.06-.039-.094-.062.551-.285.569-.306.463-.46a1.4,1.4,0,0,1-.381.164A3.381,3.381,0,0,1,8.6,17.064m4.306.758h.057c0-1.193,0-2.386,0-3.579,0-.138.04-.172.173-.163.2.014.4.009.6.007.075,0,.1.019.1.1-.045,1.014-.085,2.029-.127,3.043q-.072,1.707-.146,3.413c-.011.252-.019.5-.037.756,0,.038-.049.076-.081.109-.013.014-.04.014-.061.02-.447.115-.476.089-.475-.354,0-1.118,0-2.236,0-3.353m1.481,5.817a2.763,2.763,0,0,1,.386.194.4.4,0,0,1,.088.65,2.717,2.717,0,0,1-.646.5,7.215,7.215,0,0,1-.867.351c-.091.035-.137.039-.122-.1.05-.458.078-.919.115-1.379.009-.122.015-.245.033-.366a.107.107,0,0,1,.086-.06c.31.067.618.141.927.214m-1.3-.241c.108,0,.119.035.117.13-.008.284,0,.569,0,.853h-.031c-.015.311-.028.622-.049.933a.154.154,0,0,1-.081.113,1.244,1.244,0,0,1-.269.039.341.341,0,0,1-.015-.088,3.618,3.618,0,0,1,0-.4c.013-.134-.041-.159-.162-.155-.151.006-.3-.018-.454-.012-.2.009-.128-.143-.144-.234-.023-.128.086-.079.141-.081a4.772,4.772,0,0,1,.5,0c.133.01.119-.067.121-.15s0-.143-.114-.136c-.194.011-.39,0-.584,0s-.093-.144-.12-.222c-.033-.094.038-.1.11-.1.195,0,.39-.009.584,0,.155,0,.095-.107.11-.179.02-.1-.044-.087-.106-.086-.206,0-.412-.005-.617.009-.126.009-.119-.063-.131-.144-.016-.111.056-.092.119-.092.357,0,.715.006,1.072,0M12.6,17.153c.172-.012.123.1.13.189s0,.147-.125.143c-.356-.013-.714-.009-1.07-.014-.1,0-.237-.225-.186-.3.014-.021.065-.023.1-.023.195,0,.389,0,.584,0v.011c.189,0,.379.01.567,0m.063.61c.022,0,.054.08.064.126.032.153-.019.214-.192.2a7.63,7.63,0,0,0-.876-.011c-.159.007-.229-.044-.242-.193a1.234,1.234,0,0,0-.022-.128c.426,0,.848,0,1.269.005m-.037,1.653c.145-.006.1.1.1.166s.023.151-.106.144c-.308-.016-.617-.022-.925-.029-.175,0-.1-.16-.151-.239a.5.5,0,0,1,.14-.048c.152-.006.3,0,.455,0v.011c.162,0,.325,0,.487,0m.008.613c.156,0,.074.124.093.191s-.027.1-.1.1c-.293-.008-.585-.007-.878-.019a.178.178,0,0,1-.116-.09.653.653,0,0,1-.04-.178c.359,0,.7,0,1.041,0M11.6,18.359c.168-.005.335,0,.5,0v.014c.173,0,.346.008.518,0,.139-.009.11.079.11.154s.027.149-.1.144c-.34-.015-.681-.018-1.021-.026-.17,0-.1-.162-.152-.239a.61.61,0,0,1,.145-.041m1.035.564c.15,0,.085.1.093.169s.019.136-.1.131c-.323-.011-.647-.008-.97-.02a.176.176,0,0,1-.113-.092.83.83,0,0,1-.049-.187c.393,0,.765,0,1.136,0M11.56,23.146l0,.044a3.955,3.955,0,0,1-.551.029c-.252-.02-.344-.157-.326-.421.148.067.292.139.442.2s.291.1.436.15m-.82.426c.3-.06.607-.123.912-.177.023,0,.08.051.083.083a3.19,3.19,0,0,1,0,.32c.019.137.044.274.057.412q.045.489.079.978c0,.032-.045.1-.06.1a2.647,2.647,0,0,1-1.473-.645c-.383-.37-.31-.75.171-.986a1.945,1.945,0,0,1,.228-.08m1.035-2.682c-.031,0-.072-.049-.088-.084a.926.926,0,0,1-.037-.176c.339,0,.672,0,1.005.006.025,0,.066.088.065.134s-.045.132-.072.132c-.291,0-.583,0-.874-.013m.731-4c-.318-.009-.638-.026-.956-.019-.15,0-.219-.04-.229-.186a.817.817,0,0,0-.033-.136c.459,0,.913,0,1.366,0,.029,0,.077.051.081.083.036.255.027.261-.229.255m.231-.712c-.015.037-.056.091-.086.091q-.625,0-1.251-.017a.143.143,0,0,1-.1-.075c-.027-.057-.025-.127-.049-.186-.04-.1-.011-.117.087-.114.206.007.411,0,.617,0V15.9c.211,0,.423,0,.634,0,.114,0,.176.026.153.153-.008.042.01.09-.005.128m0-.627c0,.012-.052.031-.081.032-.437.015-.874.029-1.311.036-.03,0-.077-.046-.088-.079-.037-.11-.061-.225-.092-.348.508-.015,1-.03,1.5-.043.027,0,.077.021.077.033,0,.123,0,.246,0,.369m-1.5,2.994c.092.869.188,1.738.282,2.607.006.056.029.124-.08.1a2.416,2.416,0,0,1-1.449-.818,1.194,1.194,0,0,1-.251-.772A1.225,1.225,0,0,1,10.6,18.6a4.007,4.007,0,0,1,.514-.144c.072-.02.1,0,.113.082m-1.044,8.977c-.158.132-.314.147-.395.062s-.052-.244.079-.389.274-.3.422-.444a.251.251,0,0,1,.353-.028c.085.068.117-.005.154-.046.013-.015-.017-.067-.026-.1-.015-.064-.03-.128-.044-.192a.636.636,0,0,1,.251-.024,2.087,2.087,0,0,1,.345.193c-.377.322-.755.65-1.139.97m2.555.343c0,.032-.007.064-.01.1-.022.222-.022.212-.252.224-.142.007-.2-.036-.2-.177a1.857,1.857,0,0,0-.018-.207c-.014-.216-.014-.216.209-.221.3-.007.3-.007.272.286m.018-.52c-.009.068,0,.143-.108.135a1.808,1.808,0,0,0-.258,0c-.1.006-.159,0-.163-.13,0-.154.1-.081.165-.1a.522.522,0,0,1,.113,0c.048,0,.1,0,.145,0,.065,0,.119,0,.107.09m.031-.351c-.008.093.015.2-.144.186-.107-.011-.217.01-.324,0a.162.162,0,0,1-.105-.094c-.045-.122-.007-.19.139-.168a1.082,1.082,0,0,0,.162,0,.452.452,0,0,1,.129,0c.05.015.156-.063.143.074m.023-.232a.111.111,0,0,1-.082.064c-.151.005-.3,0-.454,0a.133.133,0,0,1-.086-.078c-.055-.139,0-.2.146-.175a1.126,1.126,0,0,0,.162,0h.162c.172,0,.2.029.151.193m.855-.609a.445.445,0,0,1-.574.143,1.837,1.837,0,0,0,.128-.184c.013-.023-.007-.063-.012-.095-.034,0-.084,0-.1.017a.955.955,0,0,1-.978.263l.269-.228c-.073-.122-.144-.122-.259-.041a1.227,1.227,0,0,1-.821.248.265.265,0,0,1-.154-.07c-.013-.013.039-.085.05-.133s.012-.091-.008-.111a.152.152,0,0,0-.121-.039c-.2.049-.4.118-.607.158-.066.013-.144-.042-.217-.065a1.172,1.172,0,0,1,.078-.212c.03-.051.087-.078.008-.138-.062-.047-.1-.069-.171,0a.8.8,0,0,1-.29.161c-.112.033-.164-.039-.123-.148a.563.563,0,0,1,.075-.124c.087-.12.088-.119-.023-.226a1.268,1.268,0,0,1-.268.148.293.293,0,0,1-.22-.04c-.054-.037-.074-.123-.109-.188a1.134,1.134,0,0,1,.177-.033c.214-.006.225-.013.167-.163a.152.152,0,0,0-.1-.069c-.126-.027-.259-.031-.381-.068a.491.491,0,0,1-.346-.442c-.006-.085.019-.121.1-.116a.269.269,0,0,0,.1,0c.054-.018.149-.046.149-.07,0-.088.035-.2-.135-.214-.243-.016-.309-.137-.162-.337a1.977,1.977,0,0,1,.435-.369c.078-.058.11-.243.03-.3-.016-.012-.059,0-.083.014a1.912,1.912,0,0,1-.33.155c.135-.159.267-.32.407-.473.02-.022.079-.017.117-.011a1.678,1.678,0,0,0,.819-.041c.106-.035.132.007.149.095a.725.725,0,0,0,.3.516A.53.53,0,0,1,9.91,23.3c-.113-.1-.194-.11-.307.013.1.089.193.187.3.278.057.05.075.087.024.158-.141.2-.137.2-.366.107a.87.87,0,0,0-.151-.058c-.03-.006-.092.009-.095.023-.01.054-.023.127,0,.162a.344.344,0,0,0,.168.091.558.558,0,0,1,.4.527,1.306,1.306,0,0,0-.2,0c-.039.006-.106.039-.106.06,0,.069,0,.148.12.132a.87.87,0,0,1,.733.274c.061.058.079.1-.013.137a.345.345,0,0,0-.108.07.417.417,0,0,0-.055.1c.047.009.111.043.139.025a.582.582,0,0,1,.571-.057c.1.038.129.078.055.172a.545.545,0,0,0-.058.17c.1.015.2.1.27-.061a.186.186,0,0,1,.15-.075c.171.008.342.035.534.057l-.19.162c.2.1.205.1.379,0a.532.532,0,0,1,.381-.083,2.567,2.567,0,0,0,.416,0l-.148.129c.141.137.273.031.395-.01a.213.213,0,0,1,.245.041.545.545,0,0,0,.222.128c.137.033.136.077.058.176m1.058.55c.067-.08.115-.055.179.012.152.16.314.311.468.469a.6.6,0,0,1,.148.188,1.044,1.044,0,0,1,.028.266c-.091,0-.211.029-.27-.016-.256-.2-.5-.413-.74-.624-.11-.1-.216-.195-.324-.292-.073-.066-.106-.132-.025-.219a.106.106,0,0,0,0-.106.118.118,0,0,0-.111,0c-.119.083-.235.153-.321.1.1-.128.195-.258.3-.382a.091.091,0,0,1,.087-.005c.156.115.307.238.463.352.068.05.049.083-.008.116s-.077.071-.023.135.1.072.153.008m1.064-3.357a.246.246,0,0,1,.048,0c.306,0,.391.073.423.38,0,.022,0,.043,0,.065.028.345.028.355-.309.349-.2,0-.1.145-.161.234.126,0,.234.006.34,0,.083-.006.111.02.086.1a1.509,1.509,0,0,1-.6.845,1.535,1.535,0,0,1-.069-.2c-.018-.1-.072-.094-.153-.091-.114,0-.081.076-.078.133a.606.606,0,0,1-.3.569c-.07.046-.129.066-.191-.023-.036-.052-.068-.147-.174-.078s-.012.128.014.171c.052.088-.006.1-.062.12a1.05,1.05,0,0,1-.8-.086,3.548,3.548,0,0,1-.308-.195l.3-.139a2.012,2.012,0,0,0,.191-.088c.2-.12.392-.212.613-.034.033.026.129-.025.236-.05l-.085-.057c-.244-.16-.254-.2,0-.34a2.179,2.179,0,0,1,.519-.145c.06-.015.148.034.152-.086s-.086-.064-.138-.077c-.071-.017-.144-.027-.217-.04.031-.079.04-.18.1-.232a2.7,2.7,0,0,1,.431-.327c.087-.054.087-.091.053-.174-.046-.112-.1-.039-.148-.018a2.293,2.293,0,0,0-.248.118c-.118.067-.157.009-.126-.09.056-.177.134-.346.2-.518l.3-.127h0c0,.106.041.159.155.136m-.412-7.36.095-.019a.31.31,0,0,1,.377.069,1.2,1.2,0,0,0,.245.153c.235.125.236.124.454-.025l-.416-.29c-.084-.058-.086-.1.02-.132.193-.067.382-.147.576-.211a.29.29,0,0,1,.177.014,4.479,4.479,0,0,1,.443.192c.152.077.253.054.3-.118l-.4-.236c-.078-.046-.106-.088-.005-.147.13-.076.249-.17.381-.242a.323.323,0,0,1,.179-.02,2.167,2.167,0,0,1,.317.056.341.341,0,0,0,.405-.154c-.15-.029-.3-.057-.457-.089-.078-.016-.11-.041-.026-.107a6.466,6.466,0,0,1,.515-.415.764.764,0,0,1,.337-.038c.117-.007.235,0,.351-.012a.119.119,0,0,0,.079-.067c.069-.184.06-.195-.135-.2l-.325,0s-.008-.005-.026-.018c.153-.216.305-.433.463-.647.017-.024.066-.031.1-.034a.951.951,0,0,1,.227,0c.186.032.248-.054.235-.234H19.35A1.148,1.148,0,0,1,20,12.106c.132-.053,0-.135.018-.2-.037,0-.085-.024-.11-.008-.092.054-.176.12-.273.188-.018-.181-.028-.359-.053-.535a2.422,2.422,0,0,0-1.033-1.642,5.649,5.649,0,0,0-1.429-.734c-.049-.018-.1-.043-.143-.065l.009-.047c.2.029.394.053.588.09s.379.087.594.138l.006-.009,0-.009a2.386,2.386,0,0,0-.977-.773c-.165-.075-.343-.125-.508-.2-.056-.025-.093-.091-.14-.138.047-.039.094-.08.143-.117a.111.111,0,0,1,.061-.021,4.982,4.982,0,0,1,1.8.155,1.333,1.333,0,0,1,.546.438,7.58,7.58,0,0,1,1.268,1.814,3.261,3.261,0,0,1,.273,1.178.313.313,0,0,1-.072.179c-.121.162-.259.313-.376.478-.1.148-.1.155.033.289l.436-.542.07.032c-.017.21-.029.42-.054.629,0,.037-.057.07-.09.1-.193.187-.383.378-.581.56-.12.11-.14.217-.033.328.163-.145.326-.3.5-.44.1-.08.167-.065.144.083h-.007l.006,0a1.96,1.96,0,0,1-1.192,1.156c-.129.059-.182.118-.09.252l.543-.28a.839.839,0,0,1-.381.6,2.006,2.006,0,0,1-.981.329c-.106.014-.149.058-.135.147,0,.027.082.051.129.059.094.017.191.023.3.034-.066.253-.274.336-.469.432l0,0h0a3.242,3.242,0,0,1-1.12.062c-.169-.011-.039.133-.1.173.024.034.046.094.074.1.165.018.331.024.53.035a.859.859,0,0,1-.608.318,3.986,3.986,0,0,1-.481,0c-.178-.041-.356-.085-.535-.123-.043-.009-.121-.016-.128,0a.277.277,0,0,0-.019.169c.008.027.074.049.117.055.16.02.322.029.483.048a.47.47,0,0,1,.169.049.542.542,0,0,1,.11.108c-.042.026-.081.07-.126.077a1.721,1.721,0,0,1-1.52-.646l-.008-.014c-.183-.326-.158-.381.207-.454m-.21,2.821a1.04,1.04,0,0,1,.317,1.4,2.268,2.268,0,0,1-1.083.959c-.222.106-.458.182-.668.265,0-.5-.007-.988,0-1.471s.033-.978.049-1.466c0-.061-.007-.12.089-.109a2.624,2.624,0,0,1,1.3.422m-.81-5.62H10.7c.09-.171.175-.341.272-.505.017-.029.082-.044.124-.044q1.388.006,2.775.021a.177.177,0,0,1,.123.048c.118.145.227.3.366.48m-1.6-1.7h-.007v-.87c0-.058-.015-.115.086-.11q.616.028,1.232.041c.091,0,.118.025.11.119-.045.545-.086,1.09-.119,1.635-.008.122-.038.164-.168.162-.33-.006-.66,0-.989.013-.133.006-.15-.04-.147-.152.007-.279,0-.558,0-.838m2.091-1.826H10.271c.152-.263.291-.509.437-.75a.157.157,0,0,1,.116-.057q1.607-.018,3.214-.027a.225.225,0,0,1,.145.075c.216.24.425.485.664.76M12.942,7.445c0-.019.041-.057.064-.057.308,0,.615,0,.921,0A1.457,1.457,0,0,1,12.1,8.472c.138-.093.274-.175.4-.272a.9.9,0,0,0,.447-.756m-.35.088a.863.863,0,0,1-.767.48.674.674,0,0,1-.786-.509c-.028-.1-.017-.144.105-.138.227.01.454,0,.681,0s.444.008.665,0c.162-.008.157.057.1.168M24.25,1.307a2.914,2.914,0,0,1-1.087.348,8.115,8.115,0,0,1-2.342.133c-.4-.04-.789-.123-1.185-.175a.786.786,0,0,0-.311.034.163.163,0,0,0-.089.133c0,.038.075.09.125.1.4.08.792.167,1.192.222A8.317,8.317,0,0,0,23.5,1.947c.142-.031.165,0,.13.138a.527.527,0,0,1-.406.379,3.213,3.213,0,0,1-.649.123,8.972,8.972,0,0,1-2.336-.208c-.423-.083-.838-.205-1.26-.3a.475.475,0,0,0-.3.04c-.125.069-.1.21.04.245.564.143,1.124.316,1.7.405.654.1,1.321.127,1.98.185a.416.416,0,0,1-.4.335,4.5,4.5,0,0,1-.871.019,16.418,16.418,0,0,1-2.638-.564.426.426,0,0,0-.206-.023.847.847,0,0,0-.2.127c.046.059.08.148.14.17a4.692,4.692,0,0,0,.678.214c.739.16,1.48.307,2.222.454.125.025.144.059.065.159a.531.531,0,0,1-.424.2,3.418,3.418,0,0,1-1.2-.241c-.527-.173-1.047-.368-1.575-.535a.718.718,0,0,0-.368.021c-.043.011-.088.112-.086.17,0,.04.076.095.128.113.635.223,1.273.439,1.908.664a.148.148,0,0,1,.07.124.222.222,0,0,1-.27.2,4.686,4.686,0,0,1-.826-.208c-.415-.164-.811-.375-1.22-.554a.564.564,0,0,0-.293-.027.184.184,0,0,0-.114.136c0,.044.058.115.107.136.431.184.866.358,1.3.538a1.162,1.162,0,0,1,.16.1c-.063.079-.111.193-.193.229a.407.407,0,0,1-.3-.018c-.358-.161-.708-.34-1.06-.513a1.245,1.245,0,0,1-.182-.1c-.129-.095-.2-.105-.319.054a.941.941,0,0,1-.95.316,2.322,2.322,0,0,1-.566-.179c-.1-.039-.133-.044-.187.06a.964.964,0,0,1-1.039.606,2.827,2.827,0,0,1-.408-.1c-.062-.017-.121-.045-.19-.071a.672.672,0,0,0,.3.548c.308.231.636.437.933.639H10.593c.509-.357,1.1-.557,1.375-1.172-.219.042-.4.089-.591.112A.946.946,0,0,1,10.26,4.5c-.047-.094-.084-.065-.146-.04a1.767,1.767,0,0,1-1,.15,1.15,1.15,0,0,1-.642-.349c-.068-.072-.109-.074-.2-.025-.424.234-.85.465-1.286.676-.217.1-.321.056-.426-.113-.048-.078-.042-.1.054-.146.419-.182.832-.377,1.243-.575.1-.05.239-.122.162-.267s-.2-.046-.3,0a7.85,7.85,0,0,1-1.68.666,1.978,1.978,0,0,1-.575.019.408.408,0,0,1-.322-.283,7.722,7.722,0,0,0,2.16-.675c.12-.055.2-.119.143-.256-.044-.116-.143-.133-.3-.074-.606.225-1.208.458-1.82.663a2.811,2.811,0,0,1-1.134.149.65.65,0,0,1-.616-.377A6.156,6.156,0,0,0,4.3,3.594c.632-.113,1.261-.245,1.889-.377.2-.042.394-.115.592-.165.111-.028.188-.078.147-.2s-.139-.116-.242-.086c-.45.131-.9.275-1.352.387a5.778,5.778,0,0,1-1.829.2,3,3,0,0,1-.728-.184c-.095-.033-.164-.14-.245-.214l.021-.05c.392,0,.785.019,1.175,0a8.767,8.767,0,0,0,2.583-.575c.051-.019.077-.1.115-.159-.07-.035-.149-.11-.21-.1-.328.067-.65.159-.975.235a10.889,10.889,0,0,1-2.527.371,3.179,3.179,0,0,1-.763-.119.8.8,0,0,1-.588-.651c.191.036.372.069.552.106a7.29,7.29,0,0,0,2.293.116c.47-.056.933-.168,1.4-.264.051-.011.088-.09.132-.138-.072-.041-.16-.132-.215-.116A7.3,7.3,0,0,1,3.1,1.843,7.626,7.626,0,0,1,.868,1.462.785.785,0,0,1,.314.816a.4.4,0,0,1,0-.127C.324.588.351.541.467.62a4.791,4.791,0,0,0,1.627.649,10.251,10.251,0,0,0,2.967.218,7.329,7.329,0,0,1,1.408.005A3.592,3.592,0,0,1,9,2.892a1.015,1.015,0,0,1,.2.634c0,.242-.171.4-.444.456a.788.788,0,0,0-.2.116c.061.06.114.157.185.174a2.16,2.16,0,0,0,1.307-.04.652.652,0,0,0,.4-.508,1.964,1.964,0,0,1,1.2-1.531,2.3,2.3,0,0,1,2.525.671,1.369,1.369,0,0,1,.237.535.965.965,0,0,0,.977.895,6.2,6.2,0,0,0,.858-.033.192.192,0,0,0,.139-.12.191.191,0,0,0-.1-.15c-.411-.143-.517-.353-.365-.766a2.063,2.063,0,0,1,.8-.989,4.541,4.541,0,0,1,3.028-.818,9.384,9.384,0,0,0,3.616-.284,10.3,10.3,0,0,0,1.1-.489c.037-.017.071-.039.119-.066a.7.7,0,0,1-.33.727" transform="translate(0 0)"/>
    <path id="Caminho_3" data-name="Caminho 3" class="cls-4" d="M334.206,302.55a.659.659,0,0,0-.676-.039c-.188.1-.364.222-.547.334,0-.02,0-.046,0-.071a.328.328,0,0,0-.557-.239c-.14.1-.286.186-.433.281-.077-.263-.193-.358-.445-.356a2.94,2.94,0,0,0-.436.034,4.543,4.543,0,0,0-2.392,1.158,3.351,3.351,0,0,0-1.054,1.573l-.041.148c-.074-.089-.122-.2-.2-.227-.115-.042-.088-.09-.056-.161.217-.483.436-.965.648-1.451a3.266,3.266,0,0,0,.216-.585.4.4,0,0,0-.47-.506,1.3,1.3,0,0,0-.455.15c-.218.122-.418.277-.633.422,0-.046,0-.088,0-.13a.423.423,0,0,0-.5-.438,1.447,1.447,0,0,0-.459.139,5.606,5.606,0,0,0-.529.345.592.592,0,0,0,.013-.153c-.02-.116.016-.249-.125-.326a.392.392,0,0,0-.435.013c-.276.165-.571.3-.856.45a.291.291,0,0,0-.132.125.425.425,0,0,0,.211.441c.131.042.141.1.092.214-.3.71-.59,1.425-.89,2.136a.233.233,0,0,0,.051.29c.094.093.179.186.335.116a2.964,2.964,0,0,1,.411-.146.374.374,0,0,0,.244-.232c.228-.467.453-.936.708-1.388a7.578,7.578,0,0,1,.518-.72.2.2,0,0,1-.007.141c-.25.649-.5,1.3-.753,1.947a.263.263,0,0,0,.087.325.272.272,0,0,0,.335.065,3.367,3.367,0,0,1,.42-.164.311.311,0,0,0,.22-.21c.1-.261.2-.52.321-.771a4,4,0,0,1,.741-1.1.422.422,0,0,1-.035.118,6.558,6.558,0,0,0-.541,1.727c-.049.367.158.529.505.383s.657-.312.979-.467c.059.376.249.579.581.538a2.016,2.016,0,0,0,.609-.2,5.141,5.141,0,0,0,.554-.352c-.007.073-.013.131-.018.189a.31.31,0,0,0,.357.332,3.141,3.141,0,0,0,1.259-.56.267.267,0,0,0,.1-.158c.019-.147-.264-.432-.432-.436.069-.16.125-.321.205-.47a.26.26,0,0,0-.059-.37c-.072-.058-.055-.112-.042-.191a4.2,4.2,0,0,0,.063-.615c0-.072,0-.1.075-.1.114,0,.227,0,.341,0,.129,0,.259,0,.31.16a.156.156,0,0,0,.11.086c.193.021.166.125.109.249-.016.034-.023.071-.036.106-.233.638-.464,1.277-.7,1.913a.237.237,0,0,0,.073.286c.089.085.169.159.31.106a2.564,2.564,0,0,1,.39-.1.267.267,0,0,0,.222-.2c.067-.22.143-.438.219-.655a4.247,4.247,0,0,1,.852-1.571.749.749,0,0,1,.807-.308c.138.043.214-.026.257-.148.058-.166.113-.333.176-.5a.165.165,0,0,0-.089-.226m-4.259,1.071a3.4,3.4,0,0,1-1.32,1.753,2.322,2.322,0,0,1,1.32-1.753" transform="translate(-302.311 -283.143)"/>
    <path id="Caminho_4" data-name="Caminho 4" class="cls-4" d="M278.467,272.421c-.119-.082-.236-.153-.385-.057a1.27,1.27,0,0,1-.221.1c-.292.116-.585.23-.908.357.111-.26.207-.481.3-.7a6.41,6.41,0,0,0,.469-1.463.323.323,0,0,0-.425-.357q-.516.206-1.027.424a.261.261,0,0,0-.131.126.437.437,0,0,0,.35.517c-.135.325-.272.644-.4.966-.356.879-.718,1.756-1.057,2.641a2.119,2.119,0,0,0-.122.692.486.486,0,0,0,.666.513,3.659,3.659,0,0,0,.678-.363,2.178,2.178,0,0,0,.214-.163c-.009.073-.013.11-.018.147-.042.318.177.5.473.383.32-.128.634-.27.947-.413a.268.268,0,0,0,.13-.13c.061-.156-.168-.5-.358-.52.145-.329.288-.647.426-.966a5.864,5.864,0,0,0,.489-1.424.27.27,0,0,0-.09-.3m-2.453,2.65.844-2.068.046,0a.408.408,0,0,0,.383.413.19.19,0,0,1,0,.105c-.18.411-.364.82-.544,1.232-.062.14-.115.284-.177.437a.436.436,0,0,0-.553-.116" transform="translate(-257.273 -253.07)"/>
    <path id="Caminho_5" data-name="Caminho 5" class="cls-4" d="M131.66,454.143a6.214,6.214,0,0,1-.077-.635c-.012-.171,0-.344-.007-.516-.025-.449-.212-.72-.6-.794a3.132,3.132,0,0,0-.789-.038.95.95,0,0,0-.659.31.474.474,0,0,0,.092.78.727.727,0,0,0-.356.626,1.483,1.483,0,0,0-.23.02c-.1.024-.122-.007-.121-.1,0-.242,0-.484-.006-.726-.005-.117.011-.178.15-.2a.316.316,0,0,0,.289-.3c.014-.146-.073-.338-.206-.345-.261-.014-.24-.17-.232-.342a.567.567,0,0,0-.023-.158.414.414,0,0,0-.429-.318.4.4,0,0,0-.391.345,1.949,1.949,0,0,0-.017.321c0,.075,0,.121-.1.15a.306.306,0,0,0-.217.309.31.31,0,0,0,.2.32c.1.037.112.088.113.177,0,.344,0,.688.017,1.032a.554.554,0,0,0,.274.482,1.089,1.089,0,0,0,1.1-.091.083.083,0,0,1,.078-.007,1.083,1.083,0,0,0,1.207.051c.105-.053.162-.07.25.029a.387.387,0,0,0,.489.067.393.393,0,0,0,.191-.451m-.965-.43c-.019.139-.175.244-.415.247l-.129-.1c.049-.046.09-.112.149-.135a1.593,1.593,0,0,1,.329-.078c.019,0,.07.047.067.068m-.008-.79a.333.333,0,0,1-.086.065,2.244,2.244,0,0,1-.234.059c-.1.021-.2.038-.3.057.161-.3.256-.256.524-.248.033,0,.065.043.1.066" transform="translate(-119.545 -422.674)"/>
    <path id="Caminho_6" data-name="Caminho 6" class="cls-5" d="M247.549,274.126A4.226,4.226,0,0,1,246,276.015a1.88,1.88,0,0,0-.156.137l-.477-.571c.231-.126.478-.244.708-.389a2.823,2.823,0,0,0,1.324-1.812,2.455,2.455,0,0,0-.908-2.577c-.049-.04-.1-.084-.16-.142l.476-.194a3.892,3.892,0,0,1,.911,1.735,3.18,3.18,0,0,1-.172,1.923" transform="translate(-229.628 -253.25)"/>
    <path id="Caminho_7" data-name="Caminho 7" class="cls-6" d="M115.343,275.113c-.1.108-.2.221-.305.332a4.192,4.192,0,0,1-1.081-1.139,3.387,3.387,0,0,1-.578-1.925,3.528,3.528,0,0,1,.8-2.175c.063-.08.13-.157.2-.236.328.16.32.153.074.418a2.606,2.606,0,0,0-.7,1.453,3.007,3.007,0,0,0,.875,2.52,6.9,6.9,0,0,0,.7.618c.064.053.071.076.016.132" transform="translate(-106.105 -252.785)"/>
    <path id="Caminho_8" data-name="Caminho 8" class="cls-4" d="M7.137,451.94a3.523,3.523,0,0,0,.112.52.51.51,0,0,0,.537.334.519.519,0,0,0,.5-.339c.023-.054.044-.109.07-.162a.418.418,0,0,1,.8.229,1.156,1.156,0,0,1-.734.949,1.513,1.513,0,0,1-2.16-1.216,1.849,1.849,0,0,1,.31-1.406,1.549,1.549,0,0,1,2.452.064.628.628,0,0,1,.109.5.383.383,0,0,1-.313.309.4.4,0,0,1-.438-.174c-.041-.063-.079-.128-.116-.193a.523.523,0,0,0-.555-.277.5.5,0,0,0-.44.329,4.424,4.424,0,0,0-.133.529" transform="translate(-5.836 -421.614)"/>
    <path id="Caminho_9" data-name="Caminho 9" class="cls-7" d="M92.384,464.073c0-.263,0-.527,0-.79a.4.4,0,0,1,.247-.415.435.435,0,0,1,.48.095c.024.022.1.014.139-.007a1,1,0,0,1,1.158.133.845.845,0,0,1,.228.6c.005.4.008.8,0,1.193a.42.42,0,0,1-.543.444.429.429,0,0,1-.316-.451c0-.322,0-.645-.005-.967a.292.292,0,0,0,0-.08c-.03-.1.007-.241-.165-.251a.293.293,0,0,0-.32.213.871.871,0,0,0-.026.223c0,.29,0,.58-.008.87a.433.433,0,1,1-.864-.006c0-.269,0-.537,0-.806Z" transform="translate(-86.456 -433.369)"/>
    <path id="Caminho_10" data-name="Caminho 10" class="cls-4" d="M321.257,464.933a6.309,6.309,0,0,1-.075-.634c-.012-.166,0-.333-.005-.5a.762.762,0,0,0-.722-.837,2.345,2.345,0,0,0-.677-.012.924.924,0,0,0-.72.407.436.436,0,0,0,.166.674c-.046.038-.08.064-.112.093a.7.7,0,0,0-.225.7.714.714,0,0,0,.52.562,1.141,1.141,0,0,0,.922-.1c.1-.057.162-.071.25.029a.4.4,0,0,0,.678-.382m-1.355-.423a1.393,1.393,0,0,1,.283-.065.705.705,0,0,1,.117,0,.631.631,0,0,1-.03.123c-.055.118-.177.182-.4.184l-.126-.106a.622.622,0,0,1,.152-.133m.388-.791a.318.318,0,0,1-.079.056,2.308,2.308,0,0,1-.233.06c-.1.022-.207.039-.315.058.158-.294.256-.258.535-.247.032,0,.061.047.092.072" transform="translate(-298.412 -433.462)"/>
    <path id="Caminho_11" data-name="Caminho 11" class="cls-8" d="M281.631,452.085c0-.451,0-.9,0-1.354a.4.4,0,0,0-.363-.437.384.384,0,0,0-.454.352,5.235,5.235,0,0,0-.032.575l-.078-.032a1.046,1.046,0,0,0-1.382.472,1.551,1.551,0,0,0-.123.911,1.052,1.052,0,0,0,1.6.876.109.109,0,0,1,.1.015.423.423,0,0,0,.735-.332c0-.349,0-.7,0-1.047m-.976-.118a.791.791,0,0,1,.021.749.308.308,0,0,1-.533-.013,1.763,1.763,0,0,1-.1-.364,1.88,1.88,0,0,1,.1-.342.3.3,0,0,1,.517-.03" transform="translate(-261.27 -421.626)"/>
    <path id="Caminho_12" data-name="Caminho 12" class="cls-7" d="M192.155,452.213a1.057,1.057,0,0,0-.717-1.028,1.129,1.129,0,0,0-.888.078c0-.178,0-.343,0-.508a.4.4,0,0,0-.423-.429c-.261,0-.415.18-.416.488,0,.473,0,.945,0,1.418,0,.322,0,.645,0,.967a.4.4,0,0,0,.246.4.434.434,0,0,0,.481-.09.137.137,0,0,1,.126-.008,1.038,1.038,0,0,0,1.366-.3,1.46,1.46,0,0,0,.226-.984m-1.23.679a.31.31,0,0,1-.3-.211.783.783,0,0,1,.011-.6.318.318,0,0,1,.324-.218.3.3,0,0,1,.284.243,1.847,1.847,0,0,1,.048.289,1.625,1.625,0,0,1-.067.293.3.3,0,0,1-.3.2" transform="translate(-177.538 -421.659)"/>
    <path id="Caminho_13" data-name="Caminho 13" class="cls-4" d="M398.865,464.4a.075.075,0,0,1,0-.074.526.526,0,0,0,.142-.532,1.08,1.08,0,0,0-1.152-.911,2.14,2.14,0,0,0-.258.019,1.059,1.059,0,0,0-.893.78,1.324,1.324,0,0,0,.267,1.362,1.3,1.3,0,0,0,1.26.308.96.96,0,0,0,.673-.428.389.389,0,0,0-.037-.525m-.826-.6c-.156,0-.312,0-.485,0,.059-.135.133-.223.263-.2a.708.708,0,0,1,.265.11c.057.038.048.092-.043.09m.321.642c-.373.355-.7.35-.81,0Z" transform="translate(-371.181 -433.417)"/>
    <path id="Caminho_14" data-name="Caminho 14" class="cls-8" d="M359.214,452.425c0-.543,0-1.085,0-1.628,0-.3-.153-.47-.41-.473s-.418.168-.429.46c-.005.154,0,.309,0,.475-.052-.024-.089-.043-.129-.058a1.045,1.045,0,0,0-1.391.605,1.692,1.692,0,0,0-.025,1.012,1.021,1.021,0,0,0,1.532.669.124.124,0,0,1,.115,0,.419.419,0,0,0,.5.1.426.426,0,0,0,.234-.44c0-.242,0-.483,0-.725m-1.569-.041-.021-.005a1.746,1.746,0,0,1,.1-.349.3.3,0,0,1,.525-.021.74.74,0,0,1,.076.589.328.328,0,0,1-.348.293.355.355,0,0,1-.318-.331c-.009-.058-.007-.118-.01-.177" transform="translate(-333.877 -421.657)"/>
    <path id="Caminho_15" data-name="Caminho 15" class="cls-4" d="M264.009,452.795c0-.263-.014-.528.006-.789a.72.72,0,0,1,.136-.344c.052-.073.062-.092-.008-.152a.419.419,0,0,1,.3-.733.406.406,0,0,1,.4.248.437.437,0,0,1-.108.487c-.063.056-.075.073-.01.15a.573.573,0,0,1,.138.326c.014.542.009,1.085,0,1.628a.426.426,0,1,1-.851,0c-.006-.274,0-.548,0-.822" transform="translate(-247.066 -422.08)"/>
    <path id="Caminho_16" data-name="Caminho 16" class="cls-4" d="M230.152,451.487a.418.418,0,0,1-.059-.637.451.451,0,0,1,.627-.015.429.429,0,0,1-.018.619c-.062.056-.077.072-.011.149a.571.571,0,0,1,.139.326c.014.537.009,1.075,0,1.612a.427.427,0,1,1-.852,0c-.006-.537-.012-1.075.006-1.612a1.61,1.61,0,0,1,.164-.445" transform="translate(-215.218 -422.023)"/>
    <path id="Caminho_17" data-name="Caminho 17" class="cls-7" d="M53.951,462.929a1.157,1.157,0,0,0-1.242,1.239,1.238,1.238,0,1,0,1.242-1.239m-.319,1.554a2.178,2.178,0,0,1-.065-.317c.025-.1.046-.214.085-.323a.276.276,0,0,1,.276-.184.3.3,0,0,1,.307.168.793.793,0,0,1,.016.668.308.308,0,0,1-.314.208.311.311,0,0,1-.3-.221" transform="translate(-49.328 -433.459)"/>
    <path id="Caminho_18" data-name="Caminho 18" class="cls-9" d="M247.687,451.929c0,.408.007.816,0,1.224a.426.426,0,1,1-.851-.037c0-.4,0-.806,0-1.208s0-.806,0-1.208a.426.426,0,1,1,.852.021c0,.4,0,.806,0,1.208" transform="translate(-230.996 -421.599)"/>
    <path id="Caminho_19" data-name="Caminho 19" class="cls-10" d="M323.727,286.632a.538.538,0,0,1-.535.534.432.432,0,0,1-.459-.454.557.557,0,0,1,.548-.545.427.427,0,0,1,.446.465" transform="translate(-302.029 -267.95)"/>
    <path id="Caminho_20" data-name="Caminho 20" class="cls-5" d="M218.667,244.139c-.305.074-.61.149-.916.218-.011,0-.053-.057-.051-.086.012-.132.034-.263.053-.4h0l.914.263" transform="translate(-203.734 -228.351)"/>
    <path id="Caminho_21" data-name="Caminho 21" class="cls-11" d="M242.125,121.363l.386.789a.639.639,0,0,1-.634-.3c.017-.009.026-.017.034-.017.211.006.206.007.176-.193a1.934,1.934,0,0,1,0-.284l.04.007" transform="translate(-226.36 -113.631)"/>
    <path id="Caminho_22" data-name="Caminho 22" class="cls-12" d="M143.287,121.766c-.089.221-.283.317-.612.3l.374-.775.036,0a.944.944,0,0,1-.006.315c-.059.156,0,.177.13.163a.714.714,0,0,1,.079,0" transform="translate(-133.522 -113.567)"/>
    <path id="Caminho_23" data-name="Caminho 23" class="cls-6" d="M161.257,244.154c-.093-.014-.184-.035-.276-.053.181-.061.362-.117.539-.187.045-.018.074-.079.11-.12,0,.021,0,.04,0,.059.033.429.035.361-.377.3" transform="translate(-150.654 -228.274)"/>
    <path id="Caminho_24" data-name="Caminho 24" class="cls-13" d="M285.721,133.046a.292.292,0,1,1,0-.583.29.29,0,0,1,.3.293.3.3,0,0,1-.3.29" transform="translate(-267.12 -124.031)"/>
    <path id="Caminho_25" data-name="Caminho 25" class="cls-14" d="M286.022,132.756a.3.3,0,0,1-.3.29.292.292,0,1,1,0-.583.29.29,0,0,1,.3.293" transform="translate(-267.121 -124.031)"/>
    <path id="Caminho_26" data-name="Caminho 26" class="cls-14" d="M321.306,209.018v0l-.007,0h.008" transform="translate(-300.686 -195.712)"/>
    <path id="Caminho_27" data-name="Caminho 27" class="cls-14" d="M101.57,133.786a.3.3,0,0,1-.306.286.31.31,0,0,1-.3-.294.333.333,0,0,1,.31-.29.328.328,0,0,1,.3.3" transform="translate(-94.486 -124.989)"/>
    <path id="Caminho_28" data-name="Caminho 28" class="cls-14" d="M136.412,259.633a3.271,3.271,0,0,1-.345.223l.345-.223" transform="translate(-127.338 -243.105)"/>
    <path id="Caminho_29" data-name="Caminho 29" class="cls-5" d="M130.845,280.184a.48.48,0,0,1-.175.026c-.121-.016-.115.051-.1.13h0l-.3.127-.112-.163a1.183,1.183,0,0,0-.092.092.976.976,0,0,1-.169.211.262.262,0,0,1-.217.02.222.222,0,0,1-.1-.172,3.407,3.407,0,0,1,.037-.448c.018-.155-.127-.048-.168-.106-.024.03-.067.057-.07.089-.01.1,0,.194-.007.29a.226.226,0,0,1-.262.221c-.1-.012-.156-.049-.156-.164,0-.15-.02-.3-.025-.449,0-.118-.089-.128-.168-.119-.026,0-.053.081-.062.127a.973.973,0,0,0,0,.177c0,.126-.04.224-.185.239s-.236-.016-.275-.177c-.044-.182-.124-.354-.177-.534-.041-.14-.122-.055-.188-.043s-.134.037-.09.137c.061.137.109.28.168.418.035.08.012.1-.071.106a.717.717,0,0,1-.6-.306,3.129,3.129,0,0,1-.332-.513c-.067-.13-.152-.076-.228-.046-.021.008-.027.113-.006.156.094.186.2.366.3.546a.879.879,0,0,1-.955-.564A2,2,0,0,1,126,279.1c-.015-.193-.159-.093-.246-.112-.115-.024-.106.057-.088.129.046.181.088.363.145.54.027.086.024.1-.071.085a1.544,1.544,0,0,1-1.339-1.186c-.038-.171-.178-.047-.3-.1l.176.531a.729.729,0,0,1-.519-.658c0-.2,0-.4,0-.6,0-.1-.011-.172-.135-.169s-.063.1-.066.151c-.009.192,0,.384,0,.583a.634.634,0,0,1-.363-.788c.089-.234.214-.454.317-.683a.106.106,0,0,0-.027-.1c-.186-.124-.209-.121-.305.081a4.881,4.881,0,0,1-.249.512c-.037-.2-.088-.393-.107-.593a2.166,2.166,0,0,1,.028-.448c.014-.124.163-.208.372-.225.054,0,.108,0,.162-.006.114-.007.12-.085.112-.172-.009-.107-.078-.077-.142-.064-.105.022-.212.039-.316.065-.076.019-.1,0-.083-.076a.629.629,0,0,1,.752-.534.489.489,0,0,0,.16.016c.037-.006.092-.044.1-.074s-.039-.1-.064-.1c-.154-.01-.31,0-.464,0a.639.639,0,0,1,.4-.486.244.244,0,0,1,.153.025,3.766,3.766,0,0,0,1.552.352,1.528,1.528,0,0,1,.381.065.225.225,0,0,1,.132.139c.008.033-.065.1-.116.129a.459.459,0,0,1-.528-.02,2.843,2.843,0,0,0-.512-.238c-.1-.047-.142.025-.167.095-.006.018.054.067.09.091a3.171,3.171,0,0,1,.364.236c.137.121.092.261-.082.308a.989.989,0,0,1-.669-.125c-.059-.026-.113-.06-.173-.093-.139.312.211.337.292.521-.222,0-.445,0-.668,0-.064,0-.143-.036-.13.073.009.079-.07.213.109.21.114,0,.228,0,.341,0a.3.3,0,0,1,.074.022.289.289,0,0,1-.034.08c-.132.156-.269.308-.4.466a.3.3,0,0,0-.084.164c0,.129.1.172.217.113l.044-.02c.311-.165.316-.166.42.164a.3.3,0,0,1-.037.2c-.072.132-.167.251-.24.382a.144.144,0,0,0,.017.138c.053.04.116.135.2.03a2.793,2.793,0,0,1,.214-.242c.032-.031.106-.069.123-.055a.25.25,0,0,1,.109.151c.009.241,0,.483,0,.726,0,.064-.013.138.093.124.079-.011.167,0,.171-.122.006-.149.023-.3.033-.449.006-.079.027-.115.107-.057.034.025.075.042.112.065.216.133.215.133.094.35-.014.024-.009.086.006.093.069.033.135.128.221.018s.146-.2.3-.152c.1.032.181.059.167.19-.009.087.016.157.133.156s.172-.02.154-.142c-.013-.085.026-.1.1-.08a.328.328,0,0,0,.048.006c.238.043.247.044.235.284-.006.139.041.179.174.165.089-.009.135-.046.122-.131-.029-.184.055-.215.209-.166a.266.266,0,0,0,.065.005c.272.018.277.018.276.278,0,.108.037.136.14.138s.127-.036.128-.13c0-.208.008-.208.219-.191h.049c.217.006.224.006.214.23-.006.119.05.131.144.131s.168.006.152-.12a.265.265,0,0,1,0-.127.114.114,0,0,1,.088-.061c.128.019.253.055.38.077.107.018.132.051.058.143a.2.2,0,0,0-.032.136c.068.034.153.086.206-.024.083-.171.2-.174.351-.085a2.137,2.137,0,0,0,.263.127c.091.038.087.081.016.135a.437.437,0,0,0-.1.079c-.026.037-.06.1-.046.129.034.07.088.105.182.051.109-.062.222-.213.359-.107a4.563,4.563,0,0,1,.465.458.1.1,0,0,1-.041.056" transform="translate(-114.933 -257.13)"/>
    <path id="Caminho_30" data-name="Caminho 30" class="cls-5" d="M219.518,263.9c-.163-.021-.326-.048-.491-.061-.061,0-.162-.07-.173.065-.008.1.016.172.143.186a4.291,4.291,0,0,1,.524.1c.042.01.1.071.1.107-.012.342-.036.683-.058,1.024a.169.169,0,0,1-.025.076c-.03.047-.064.091-.1.136a1.52,1.52,0,0,1-.075-.136c-.1-.222-.2-.442-.281-.668-.063-.168-.146-.033-.218-.025-.1.012-.058.076-.033.128.139.3.28.592.416.89a.257.257,0,0,1,.024.164,1.3,1.3,0,0,1-.461.626c0-.272,0-.5,0-.728,0-.152-.05-.182-.176-.12a.128.128,0,0,0-.047.1,1.3,1.3,0,0,1-.2.938,4.035,4.035,0,0,1-.37.359l-.032-.032c.046-.123.084-.251.141-.369.075-.156.019-.23-.137-.261-.068.167-.133.337-.205.5a1.146,1.146,0,0,1-.121.209c-.136.19-.152.176-.361.076-.325-.155-.663-.284-1-.424-.034-.014-.069-.026-.13-.048a3.932,3.932,0,0,0,.374-.163c.168-.095.328-.205.492-.308.03-.019.063-.032.094-.048.007.035.017.07.021.1.013.122.016.246.04.366a.162.162,0,0,0,.107.093c.072.017.121-.012.117-.1a1.938,1.938,0,0,1,0-.478,1.4,1.4,0,0,1,.193-.395c.012-.02.107-.019.136.005.1.083.181.185.279.27a.14.14,0,0,0,.127.015c.06-.032.093-.082.026-.154a4.487,4.487,0,0,1-.311-.371.187.187,0,0,1-.017-.144c.03-.108.08-.21.114-.317.024-.078.048-.086.121-.041.137.085.285.15.424.231.106.062.152-.006.182-.081.008-.019-.052-.084-.092-.1a.8.8,0,0,1-.548-.506c-.055-.188-.038-.216.156-.216a1.92,1.92,0,0,1,.26,0c.15.02.166-.064.141-.171a.124.124,0,0,0-.1-.069,1.722,1.722,0,0,1-.78-.094c-.058-.021-.1-.088-.147-.133a.682.682,0,0,1,.168-.134,1.548,1.548,0,0,1,.27-.046c.043-.008.121-.023.121-.035a.363.363,0,0,0-.04-.168c-.008-.015-.075,0-.114,0-.235.032-.468.074-.7.094-.062.005-.129-.053-.194-.083.043-.056.074-.132.131-.165a4.339,4.339,0,0,1,.4-.186.862.862,0,0,1-.076-.1c-.061-.113-.124-.1-.234-.046a6.511,6.511,0,0,1-.709.3.178.178,0,0,1-.165-.051c-.021-.038.01-.123.044-.168a1.293,1.293,0,0,1,.215-.215c.082-.066.046-.109-.006-.169s-.09-.052-.153,0c-.154.125-.317.239-.48.352-.078.054-.12.026-.114-.069.025-.385.05-.771.076-1.156,0-.018.019-.036.035-.065a1.423,1.423,0,0,0,.109.292c.016.025.118,0,.181-.008-.047-.278-.008-.333.264-.316.2.013.4.06.6.092l.007.051c-.135.071-.274.138-.4.217-.04.025-.092.1-.08.126.03.062.066.141.18.074a3,3,0,0,1,.5-.232.341.341,0,0,1,.233.014c.171.077.333.174.531.281l-.614.211c.054.17.152.2.3.13a4.06,4.06,0,0,1,.474-.166.213.213,0,0,1,.164.008c.16.126.314.262.461.4.074.071.009.085-.054.085-.146,0-.293,0-.439,0-.073,0-.134.006-.118.1.013.08-.01.183.125.183.2,0,.391.01.585,0a.247.247,0,0,1,.244.12c.081.13.153.265.229.4l-.029.039" transform="translate(-202.102 -245.096)"/>
    <path id="Caminho_31" data-name="Caminho 31" class="cls-6" d="M134.534,253.719c-.315.005-.632-.033-.948-.059-.031,0-.06-.039-.094-.062.551-.285.569-.306.464-.46a1.4,1.4,0,0,1-.381.164,3.381,3.381,0,0,1-1.311-.135c-.048-.015-.084-.069-.126-.1a.444.444,0,0,1,.135-.069c.15-.018.3-.028.452-.032.226,0,.226,0,.195-.236l-.529.128a3.26,3.26,0,0,0,.345-.223,3.965,3.965,0,0,1,.412-.271l.035-.018.29-.187.332.092c-.052.085-.1.172-.158.254-.042.061-.093.117-.14.175.219.118.221.12.419-.027a2.11,2.11,0,0,0,.195-.169.472.472,0,0,1,.52-.094.124.124,0,0,1,.048.088c.035.313.073.627.1.941.015.2-.055.3-.249.3" transform="translate(-123.66 -236.103)"/>
    <path id="Caminho_32" data-name="Caminho 32" class="cls-5" d="M136.412,259.633a3.271,3.271,0,0,1-.345.223l.345-.223" transform="translate(-127.338 -243.105)"/>
    <path id="Caminho_33" data-name="Caminho 33" class="cls-5" d="M236.548,251.883c-.042.026-.081.07-.126.077a1.721,1.721,0,0,1-1.52-.646l-.008-.014c-.183-.326-.158-.381.207-.453l.095-.019.042.025h0c.29.175.582.348.869.528a1.48,1.48,0,0,1,.186.148l.059.05c-.178-.041-.356-.085-.535-.123-.043-.009-.121-.016-.128,0a.276.276,0,0,0-.019.169c.008.027.074.049.117.055.16.02.322.029.483.048a.469.469,0,0,1,.169.049.539.539,0,0,1,.11.108" transform="translate(-219.721 -234.86)"/>
    <path id="Caminho_34" data-name="Caminho 34" class="cls-6" d="M219.074,253.7c-.3-.031-.62-.063-.939-.1a.107.107,0,0,1-.064-.083c0-.045.025-.122.052-.128.242-.052.486-.093.731-.13.024,0,.07.04.083.071.052.126.1.256.138.371" transform="translate(-204.082 -237.131)"/>
    <path id="Caminho_35" data-name="Caminho 35" class="cls-6" d="M209.062,368.194c-.184.048-.365.1-.551.143-.163.034-.329.047-.494.07.009-.122.015-.245.033-.366a.107.107,0,0,1,.086-.06c.31.067.618.141.927.214" transform="translate(-194.672 -344.555)"/>
    <path id="Caminho_36" data-name="Caminho 36" class="cls-6" d="M168.4,367.911l-1-.226c.3-.06.607-.123.912-.177.023,0,.08.051.083.083a3.172,3.172,0,0,1,0,.32" transform="translate(-156.666 -344.113)"/>
    <path id="Caminho_37" data-name="Caminho 37" class="cls-5" d="M328.82,305.717c.2-.173.409-.374.642-.537a2.911,2.911,0,0,1,.641-.332.416.416,0,0,1,.325.062.263.263,0,0,1,.047.34c-.187.428-.381.854-.567,1.283-.13.3-.251.605-.375.909-.021.053-.032.109-.053.183a.889.889,0,0,0,.109-.033c.174-.083.267-.044.322.149a.112.112,0,0,1-.041.1c-.325.168-.65.337-.982.491-.12.055-.224-.064-.206-.209a6.374,6.374,0,0,1,.56-1.775c.112-.254.234-.5.351-.756l-.032-.03c-.2.19-.415.367-.6.571a5.31,5.31,0,0,0-1.036,1.828.273.273,0,0,1-.211.21,1.564,1.564,0,0,0-.288.108c-.09.04-.165.082-.262-.008s-.016-.169.011-.243c.261-.7.528-1.4.789-2.1.044-.117.067-.242.1-.364l-.04-.027c-.113.1-.233.2-.339.309a6.671,6.671,0,0,0-1.292,2.126.321.321,0,0,1-.228.221,2.649,2.649,0,0,0-.275.1c-.082.031-.153.058-.234-.025s-.031-.146,0-.217c.268-.645.54-1.289.8-1.936.07-.172.121-.351.193-.565-.091.026-.133.04-.177.05-.131.03-.309-.147-.266-.269.008-.023.047-.037.074-.051.3-.157.593-.31.887-.47.144-.078.286-.018.279.143a3.634,3.634,0,0,1-.078.49c-.011.062-.032.122-.06.223.208-.187.381-.352.565-.5a1.369,1.369,0,0,1,.691-.334c.207-.028.365.087.35.292a5.994,5.994,0,0,1-.1.6" transform="translate(-304.726 -285.376)"/>
    <path id="Caminho_38" data-name="Caminho 38" class="cls-5" d="M402.713,305.429a.544.544,0,0,0-.232.063,3.522,3.522,0,0,0-.42.272c-.141.107-.268.232-.412.36.021-.178.049-.331.054-.485a.206.206,0,0,0-.08-.164.249.249,0,0,0-.2.02c-.255.147-.5.305-.754.46a.24.24,0,0,1,.012-.145c.071-.236-.015-.356-.262-.35a3.158,3.158,0,0,0-.5.046,4.447,4.447,0,0,0-2.616,1.53,2.453,2.453,0,0,0-.657,1.423c-.028.376.208.6.569.491a2.8,2.8,0,0,0,.663-.328c.232-.149.439-.335.657-.505-.051.206-.108.406-.149.61-.032.158.071.261.221.2a10.56,10.56,0,0,0,.981-.413c.221-.109.206-.126.071-.325-.057-.084-.1-.089-.181-.036a2.688,2.688,0,0,1-.251.13,1.146,1.146,0,0,1,.032-.142q.152-.373.307-.744a.166.166,0,0,0-.12-.237.6.6,0,0,0-.111,0,.38.38,0,0,1,.017-.062,1.018,1.018,0,0,0,.105-.953c-.006-.013.038-.07.062-.072a3,3,0,0,1,.517-.032c.183.013.415-.043.488.226a.115.115,0,0,0,.093.054,2.67,2.67,0,0,0,.283-.046c-.086.274-.158.536-.249.792-.194.54-.4,1.076-.6,1.617a.319.319,0,0,0,.017.215c.044.1.133.057.211.035a1.946,1.946,0,0,1,.251-.064.244.244,0,0,0,.219-.195q.17-.529.369-1.048a3.3,3.3,0,0,1,.876-1.319.733.733,0,0,1,.554-.227c.293.026.292.033.392-.239.009-.025.019-.05.028-.076.084-.241,0-.349-.261-.337m-3.876,1.034a3.4,3.4,0,0,1-1.32,1.753,2.322,2.322,0,0,1,1.32-1.753" transform="translate(-371.201 -285.985)"/>
    <path id="Caminho_39" data-name="Caminho 39" class="cls-5" d="M278.974,273.389a1.268,1.268,0,0,0-.2.055c-.118.059-.161.029-.218-.1-.076-.169,0-.21.13-.261.273-.1.543-.214.811-.327.086-.036.178-.094.243,0a.316.316,0,0,1,.045.229,8.853,8.853,0,0,1-.308,1c-.4.98-.819,1.951-1.223,2.928-.09.217-.145.448-.214.674a.312.312,0,0,0,0,.09.274.274,0,0,0,.09-.018c.083-.05.162-.106.244-.158a.22.22,0,0,1,.342.139.087.087,0,0,1-.026.069,2.349,2.349,0,0,1-.931.6.35.35,0,0,1-.464-.361,2.262,2.262,0,0,1,.219-.966c.43-1.06.869-2.116,1.3-3.174.052-.127.092-.259.15-.421" transform="translate(-259.511 -255.349)"/>
    <path id="Caminho_40" data-name="Caminho 40" class="cls-5" d="M302.1,308.11a1.172,1.172,0,0,0,.2-.073c.119-.074.158-.017.211.088.071.139.063.207-.1.266-.268.1-.524.229-.79.334-.234.093-.323,0-.293-.252a4.275,4.275,0,0,1,.386-1.2q.278-.634.554-1.269a1.3,1.3,0,0,0,.041-.15,1.348,1.348,0,0,1-.261.089.246.246,0,0,1-.187-.047.533.533,0,0,1-.082-.219c0-.009.046-.036.073-.047.34-.138.679-.277,1.022-.406a.221.221,0,0,1,.185.025.2.2,0,0,1,.06.175c-.12.388-.236.779-.384,1.157-.181.465-.392.918-.59,1.376a1.582,1.582,0,0,0-.046.157" transform="translate(-281.988 -285.781)"/>
    <path id="Caminho_41" data-name="Caminho 41" class="cls-15" d="M156.223,467.352c-.045-.257-.082-.515-.123-.773l.033-.005c0-.14.005-.28,0-.419a.586.586,0,0,0-.54-.637,2.718,2.718,0,0,0-.742-.006.652.652,0,0,0-.565.38.376.376,0,0,0,0,.286.273.273,0,0,0,.235.083c.068-.011.137-.092.181-.159a.584.584,0,0,1,.7-.2.25.25,0,0,1,.173.294c0,.044-.112.093-.18.111-.266.068-.539.112-.8.187a.558.558,0,0,0-.438.629.6.6,0,0,0,.49.53.937.937,0,0,0,.762-.131c.169-.116.271-.131.388.056a.218.218,0,0,0,.317.06.243.243,0,0,0,.116-.289M155,467.144l-.129-.1c.049-.046.09-.112.149-.135a1.592,1.592,0,0,1,.329-.078c.019,0,.07.047.067.068-.019.139-.175.244-.415.247" transform="translate(-144.262 -435.857)"/>
    <path id="Caminho_42" data-name="Caminho 42" class="cls-5" d="M130.565,455.713c0-.172,0-.344,0-.515,0-.081-.011-.131-.112-.131a.191.191,0,0,1-.012-.381c.121,0,.126-.064.123-.154a2.952,2.952,0,0,1,0-.354.271.271,0,0,1,.3-.273c.155.011.243.119.246.3,0,.054,0,.107,0,.161,0,.091-.029.206.015.266s.174.014.246.053a.339.339,0,0,1,.173.194c.008.051-.092.141-.163.176s-.224,0-.251.05a.656.656,0,0,0-.019.3c0,.252,0,.5.007.757.006.2.052.241.259.227a.564.564,0,0,0,.1-.011.183.183,0,0,1,.239.108.189.189,0,0,1-.107.256.9.9,0,0,1-.827,0c-.2-.11-.2-.33-.213-.528-.011-.166,0-.333,0-.5" transform="translate(-121.905 -425.008)"/>
    <path id="Caminho_43" data-name="Caminho 43" class="cls-15" d="M9.222,454.171a4.823,4.823,0,0,0,.1.548.725.725,0,0,0,1.361.036c.059-.144.1-.3.316-.285a.245.245,0,0,1,.236.238.976.976,0,0,1-.6.864,1.365,1.365,0,0,1-1.99-1.2,1.532,1.532,0,0,1,.434-1.316,1.388,1.388,0,0,1,2.052.2.616.616,0,0,1,.1.331.33.33,0,0,1-.157.234.233.233,0,0,1-.3-.08c-.052-.075-.1-.156-.146-.232a.7.7,0,0,0-1.238.086,3.311,3.311,0,0,0-.159.581" transform="translate(-8.08 -423.873)"/>
    <path id="Caminho_44" data-name="Caminho 44" class="cls-5" d="M95.416,465.679a.883.883,0,0,1,.722-.306.667.667,0,0,1,.687.717c.009.387,0,.774,0,1.161a.285.285,0,0,1-.271.32c-.164,0-.271-.127-.275-.328-.007-.365,0-.731-.029-1.094-.016-.238-.106-.327-.268-.347a.434.434,0,0,0-.479.253,1.1,1.1,0,0,0-.067.36c-.01.279,0,.559-.006.838a.284.284,0,0,1-.271.317.28.28,0,0,1-.276-.312c0-.516,0-1.032,0-1.548,0-.224.064-.319.22-.333.177-.015.256.057.312.3" transform="translate(-88.797 -435.748)"/>
    <path id="Caminho_45" data-name="Caminho 45" class="cls-15" d="M323.511,467.354c-.045-.257-.083-.515-.124-.773l.033-.005c0-.145.006-.291,0-.435a.579.579,0,0,0-.537-.622,2.71,2.71,0,0,0-.742-.008.65.65,0,0,0-.572.393.364.364,0,0,0,.017.284.284.284,0,0,0,.24.072c.063-.01.125-.092.167-.155a.581.581,0,0,1,.694-.2.249.249,0,0,1,.175.292c0,.043-.11.095-.177.112-.266.068-.539.113-.8.188a.564.564,0,0,0-.441.627.594.594,0,0,0,.487.531.941.941,0,0,0,.762-.128c.165-.11.271-.14.388.053a.219.219,0,0,0,.316.063.241.241,0,0,0,.119-.288m-.834-.4c-.055.118-.177.182-.4.184l-.126-.106a.62.62,0,0,1,.152-.133,1.394,1.394,0,0,1,.283-.065.7.7,0,0,1,.117,0,.632.632,0,0,1-.03.123" transform="translate(-300.818 -435.856)"/>
    <path id="Caminho_46" data-name="Caminho 46" class="cls-15" d="M283.682,453.084c0-.207-.109-.3-.3-.275-.133.018-.209.121-.212.3,0,.257,0,.513,0,.8-.087-.066-.144-.115-.207-.157a.889.889,0,0,0-1.292.361,1.413,1.413,0,0,0,.064,1.273.779.779,0,0,0,.894.4,3.133,3.133,0,0,0,.536-.246l0-.005a.077.077,0,0,1,.006.015c.044.189.143.278.29.26s.228-.119.228-.314q0-1.2,0-2.4m-1.325,1.973a1.769,1.769,0,0,1-.1-.364,1.87,1.87,0,0,1,.1-.342.3.3,0,0,1,.516-.03.791.791,0,0,1,.021.749.308.308,0,0,1-.533-.013" transform="translate(-263.484 -423.98)"/>
    <path id="Caminho_47" data-name="Caminho 47" class="cls-15" d="M194.288,454.238a.866.866,0,0,0-.879-.687,1.072,1.072,0,0,0-.695.307c0-.3,0-.57,0-.837a.25.25,0,0,0-.33-.267c-.163.042-.186.178-.187.319q0,1.071,0,2.143c0,.1-.006.194,0,.29a.258.258,0,0,0,.513.016l.016-.09c.028.02.042.028.054.039a.869.869,0,0,0,1.48-.376,1.507,1.507,0,0,0,.025-.857m-1.036.917a.31.31,0,0,1-.3-.211.783.783,0,0,1,.011-.6.317.317,0,0,1,.324-.217.3.3,0,0,1,.284.243,1.846,1.846,0,0,1,.048.289,1.626,1.626,0,0,1-.067.293.3.3,0,0,1-.3.2" transform="translate(-179.865 -423.923)"/>
    <path id="Caminho_48" data-name="Caminho 48" class="cls-16" d="M399.734,466.331c.168.007.336,0,.5,0h0c.179,0,.357.005.536,0,.2-.008.321-.088.336-.236a.814.814,0,0,0-.017-.287,1.058,1.058,0,0,0-1.62-.538,1.188,1.188,0,0,0-.381,1.3,1.05,1.05,0,0,0,1.24.711.867.867,0,0,0,.711-.417c.055-.1.081-.209-.029-.289a.216.216,0,0,0-.292.039,2.173,2.173,0,0,1-.263.213.534.534,0,0,1-.834-.362c-.017-.09,0-.143.109-.138m.34-.675a.708.708,0,0,1,.265.11c.057.038.048.092-.043.09-.156,0-.312,0-.485,0,.059-.135.133-.223.263-.2" transform="translate(-373.438 -435.473)"/>
    <path id="Caminho_49" data-name="Caminho 49" class="cls-15" d="M361.227,453.132c0-.191-.082-.273-.26-.272s-.254.1-.257.3c0,.256,0,.513,0,.8-.067-.058-.1-.091-.14-.122a.894.894,0,0,0-1.352.3,1.406,1.406,0,0,0,.066,1.3.78.78,0,0,0,.887.38,3.156,3.156,0,0,0,.534-.244.008.008,0,0,1,0,0l0,.014c.044.187.146.277.294.258s.224-.12.225-.317,0-.409,0-.613c0-.6,0-1.194,0-1.79m-1.078,2.134a.355.355,0,0,1-.318-.331c-.009-.058-.007-.118-.01-.177l-.021-.005a1.743,1.743,0,0,1,.1-.349.3.3,0,0,1,.525-.021.74.74,0,0,1,.075.589.328.328,0,0,1-.348.293" transform="translate(-336.054 -424.031)"/>
    <path id="Caminho_50" data-name="Caminho 50" class="cls-5" d="M267.124,466.523c0,.263,0,.527,0,.79,0,.2-.1.318-.262.321s-.269-.111-.27-.311q0-.8,0-1.6c0-.2.088-.288.268-.286s.262.092.263.292c0,.263,0,.527,0,.79" transform="translate(-249.488 -435.812)"/>
    <path id="Caminho_51" data-name="Caminho 51" class="cls-15" d="M267.136,453.529a.234.234,0,0,1-.27.263.238.238,0,0,1-.262-.258.247.247,0,0,1,.275-.265.228.228,0,0,1,.257.259" transform="translate(-249.501 -424.416)"/>
    <path id="Caminho_52" data-name="Caminho 52" class="cls-5" d="M233.16,466.533c0,.269,0,.537,0,.806a.265.265,0,0,1-.27.3.257.257,0,0,1-.26-.288q0-.814,0-1.628c0-.185.094-.278.262-.278s.267.088.269.286c0,.269,0,.537,0,.806" transform="translate(-217.703 -435.812)"/>
    <path id="Caminho_53" data-name="Caminho 53" class="cls-16" d="M232.908,453.794a.24.24,0,0,1-.268-.264.237.237,0,0,1,.26-.258c.182,0,.273.082.273.256a.234.234,0,0,1-.265.266" transform="translate(-217.716 -424.417)"/>
    <path id="Caminho_54" data-name="Caminho 54" class="cls-15" d="M56.006,465.343a.976.976,0,0,0-.807,1.08,1,1,0,0,0,.268.772,1.163,1.163,0,0,0,1.274.238,1.117,1.117,0,0,0-.735-2.089m.26,1.6a.311.311,0,0,1-.3-.221,2.178,2.178,0,0,1-.065-.317c.025-.1.046-.214.085-.323a.276.276,0,0,1,.276-.184.3.3,0,0,1,.307.168.793.793,0,0,1,.016.668.308.308,0,0,1-.314.208" transform="translate(-51.656 -435.697)"/>
    <path id="Caminho_55" data-name="Caminho 55" class="cls-15" d="M249.9,454.347c0,.409,0,.817,0,1.226,0,.223-.186.354-.371.253a.33.33,0,0,1-.153-.236c-.011-.823-.009-1.645-.006-2.468a.237.237,0,0,1,.262-.26.245.245,0,0,1,.267.274c0,.4,0,.807,0,1.21" transform="translate(-233.366 -424.034)"/>
    <path id="Caminho_56" data-name="Caminho 56" class="cls-15" d="M325.776,288.972a.366.366,0,0,1-.384.369.283.283,0,0,1-.3-.29.4.4,0,0,1,.4-.389c.189,0,.289.109.286.31" transform="translate(-304.239 -270.286)"/>
    <path id="Caminho_57" data-name="Caminho 57" class="cls-17" d="M286.022,132.756a.3.3,0,0,1-.3.29.292.292,0,1,1,0-.583.29.29,0,0,1,.3.293" transform="translate(-267.121 -124.031)"/>
    <path id="Caminho_58" data-name="Caminho 58" class="cls-3" d="M101.57,133.786a.3.3,0,0,1-.306.286.31.31,0,0,1-.3-.294.333.333,0,0,1,.31-.29.328.328,0,0,1,.3.3" transform="translate(-94.486 -124.989)"/>
    <path id="Caminho_59" data-name="Caminho 59" class="cls-18" d="M409.266,317.291a2.82,2.82,0,0,0-1.45,1.28,2.068,2.068,0,0,0-.2.7c-.033.229.081.3.26.156a5.463,5.463,0,0,0,.761-.715,3.558,3.558,0,0,0,.733-1.454c-.049.014-.079.019-.107.031m-1.486,2a2.322,2.322,0,0,1,1.32-1.753,3.4,3.4,0,0,1-1.32,1.753" transform="translate(-381.464 -297.064)"/>
    <path id="Caminho_60" data-name="Caminho 60" class="cls-10" d="M163.649,483.54a.109.109,0,0,0-.084-.066c-.185.035-.37.074-.552.123a.282.282,0,0,0-.24.3.31.31,0,0,0,.331.245.508.508,0,0,0,.545-.6m-.585.443-.129-.1c.049-.046.09-.112.149-.135a1.6,1.6,0,0,1,.329-.078c.019,0,.07.047.067.068-.019.139-.175.244-.415.247" transform="translate(-152.329 -452.697)"/>
    <path id="Caminho_61" data-name="Caminho 61" class="cls-10" d="M330.932,483.428c-.007-.078-.035-.086-.1-.07-.172.043-.348.076-.519.121-.19.05-.277.157-.259.3a.311.311,0,0,0,.343.249.514.514,0,0,0,.538-.6m-.2.256c-.055.118-.177.182-.4.184l-.126-.106a.62.62,0,0,1,.152-.133,1.4,1.4,0,0,1,.283-.065.7.7,0,0,1,.117,0,.628.628,0,0,1-.03.123" transform="translate(-308.875 -452.581)"/>
    <path id="Caminho_62" data-name="Caminho 62" class="cls-10" d="M290.961,472.219a.451.451,0,0,0-.8.015,2.311,2.311,0,0,0-.127.424l.032.008c0,.048,0,.1,0,.145a.561.561,0,0,0,.389.5.463.463,0,0,0,.546-.275.883.883,0,0,0-.038-.821m-.129.807a.308.308,0,0,1-.533-.013,1.765,1.765,0,0,1-.1-.364,1.875,1.875,0,0,1,.1-.342.3.3,0,0,1,.517-.03.792.792,0,0,1,.021.749" transform="translate(-271.425 -441.935)"/>
    <path id="Caminho_63" data-name="Caminho 63" class="cls-10" d="M201.8,472.656a1.155,1.155,0,0,0,0-.193.509.509,0,0,0-.355-.456.457.457,0,0,0-.5.173.906.906,0,0,0-.032.943.477.477,0,0,0,.48.2.423.423,0,0,0,.355-.292,2.347,2.347,0,0,0,.081-.372l-.025,0m-.2.32a.3.3,0,0,1-.3.2.31.31,0,0,1-.3-.211.783.783,0,0,1,.011-.6.318.318,0,0,1,.324-.218.3.3,0,0,1,.284.243,1.848,1.848,0,0,1,.048.289,1.629,1.629,0,0,1-.067.293" transform="translate(-187.908 -441.942)"/>
    <path id="Caminho_64" data-name="Caminho 64" class="cls-19" d="M409.2,471.969a.455.455,0,0,0-.48-.386.462.462,0,0,0-.449.423.124.124,0,0,0,.077.093c.129.01.259,0,.388,0s.237-.005.356,0,.127-.045.109-.136m-.263-.023c-.156,0-.312,0-.485,0,.059-.135.133-.223.263-.2a.708.708,0,0,1,.265.11c.057.038.049.092-.043.09" transform="translate(-382.083 -441.562)"/>
    <path id="Caminho_65" data-name="Caminho 65" class="cls-10" d="M368.574,472.314a.438.438,0,0,0-.411-.238.416.416,0,0,0-.4.254,2.79,2.79,0,0,0-.118.407,2.492,2.492,0,0,0,.1.387.43.43,0,0,0,.379.285.437.437,0,0,0,.469-.245.875.875,0,0,0-.016-.849m-.07.652a.328.328,0,0,1-.348.293.355.355,0,0,1-.318-.331c-.009-.058-.007-.118-.01-.177l-.021-.005a1.745,1.745,0,0,1,.1-.349.3.3,0,0,1,.525-.021.74.74,0,0,1,.075.589" transform="translate(-344.06 -442.024)"/>
    <path id="Caminho_66" data-name="Caminho 66" class="cls-18" d="M64.957,472.423a.483.483,0,0,0-.443-.4.459.459,0,0,0-.521.357,1.549,1.549,0,0,0-.036.492.509.509,0,0,0,.414.494.453.453,0,0,0,.508-.227,2.281,2.281,0,0,0,.128-.383c-.021-.142-.03-.238-.05-.331m-.186.586a.308.308,0,0,1-.314.208.311.311,0,0,1-.3-.221,2.161,2.161,0,0,1-.065-.317c.025-.1.045-.214.085-.323a.276.276,0,0,1,.276-.184.3.3,0,0,1,.307.169.793.793,0,0,1,.016.668" transform="translate(-59.848 -441.973)"/>
  </g>
</svg>
